<svg version="1.1" viewBox="0.0 0.0 1920.0 1080.0" fill="none" stroke="none" stroke-linecap="square" stroke-miterlimit="10" xmlns:xlink="http://www.w3.org/1999/xlink" xmlns="http://www.w3.org/2000/svg"><clipPath id="p.0"><path d="m0 0l1920.0 0l0 1080.0l-1920.0 0l0 -1080.0z" clip-rule="nonzero"/></clipPath><g clip-path="url(#p.0)"><path fill="#000000" fill-opacity="0.0" d="m0 0l1920.0 0l0 1080.0l-1920.0 0z" fill-rule="evenodd"/><path fill="#424374" d="m0 0l1920.0 0l0 1080.0l-1920.0 0z" fill-rule="evenodd"/><path fill="#2f3052" d="m60.787403 644.93854l0 0c0 -41.641113 33.756756 -75.39783 75.39784 -75.39783l1647.6296 0c19.996704 0 39.17444 7.9436646 53.31421 22.083496c14.139893 14.139832 22.083618 33.317566 22.083618 53.31433l0 301.58228c0 41.641052 -33.756836 75.39783 -75.39783 75.39783l-1647.6296 0c-41.641083 0 -75.39784 -33.756775 -75.39784 -75.39783z" fill-rule="evenodd"/><path fill="#2f3052" d="m61.90551 124.60518l0 0c0 -41.641068 33.75676 -75.39783 75.397835 -75.39783l1647.6295 0c19.996704 0 39.17444 7.94368 53.31433 22.083515c14.139893 14.139839 22.083496 33.317574 22.083496 53.314316l0 301.58228c0 41.641083 -33.756714 75.39783 -75.39783 75.39783l-1647.6295 0c-41.641075 0 -75.397835 -33.756744 -75.397835 -75.39783z" fill-rule="evenodd"/><path fill="#000000" fill-opacity="0.0" d="m237.70094 163.66257l0 241.55301l193.79329 -0.31088257l-0.40567017 -171.22272l-69.041595 -70.174866z" fill-rule="evenodd"/><path stroke="#d8d9ff" stroke-width="16.0" stroke-linejoin="round" stroke-linecap="butt" d="m237.70094 163.66257l0 241.55301l193.79329 -0.31088257l-0.40567017 -171.22272l-69.041595 -70.174866z" fill-rule="evenodd"/><path fill="#424374" d="m361.28934 234.47742l0 -71.105576l70.19269 71.105576z" fill-rule="evenodd"/><path stroke="#d8d9ff" stroke-width="16.0" stroke-linejoin="round" stroke-linecap="butt" d="m361.28934 234.47742l0 -71.105576l70.19269 71.105576z" fill-rule="evenodd"/><path fill="#e1e485" d="m1552.9236 681.30054l30.363037 -17.611206l30.36316 17.611206l-30.36316 17.611267z" fill-rule="evenodd"/><path stroke="#e1e485" stroke-width="4.0" stroke-linejoin="round" stroke-linecap="butt" d="m1552.9236 681.30054l30.363037 -17.611206l30.36316 17.611206l-30.36316 17.611267z" fill-rule="evenodd"/><path fill="#e1e485" d="m1511.8473 704.66785l30.363037 -17.611267l30.36316 17.611267l-30.36316 17.611206z" fill-rule="evenodd"/><path stroke="#e1e485" stroke-width="4.0" stroke-linejoin="round" stroke-linecap="butt" d="m1511.8473 704.66785l30.363037 -17.611267l30.36316 17.611267l-30.36316 17.611206z" fill-rule="evenodd"/><path fill="#e1e485" d="m1470.3467 729.5516l30.363037 -17.611206l30.36316 17.611206l-30.36316 17.611267z" fill-rule="evenodd"/><path stroke="#e1e485" stroke-width="4.0" stroke-linejoin="round" stroke-linecap="butt" d="m1470.3467 729.5516l30.363037 -17.611206l30.36316 17.611206l-30.36316 17.611267z" fill-rule="evenodd"/><path fill="#e1e485" d="m1596.5477 705.7932l30.363037 -17.611267l30.363037 17.611267l-30.363037 17.611206z" fill-rule="evenodd"/><path stroke="#e1e485" stroke-width="4.0" stroke-linejoin="round" stroke-linecap="butt" d="m1596.5477 705.7932l30.363037 -17.611267l30.363037 17.611267l-30.363037 17.611206z" fill-rule="evenodd"/><path fill="#e1e485" d="m1553.1357 729.78955l30.363037 -17.611206l30.36316 17.611206l-30.36316 17.611267z" fill-rule="evenodd"/><path stroke="#e1e485" stroke-width="4.0" stroke-linejoin="round" stroke-linecap="butt" d="m1553.1357 729.78955l30.363037 -17.611206l30.36316 17.611206l-30.36316 17.611267z" fill-rule="evenodd"/><path fill="#e1e485" d="m1511.6351 754.67334l30.363037 -17.611267l30.36316 17.611267l-30.36316 17.611267z" fill-rule="evenodd"/><path stroke="#e1e485" stroke-width="4.0" stroke-linejoin="round" stroke-linecap="butt" d="m1511.6351 754.67334l30.363037 -17.611267l30.36316 17.611267l-30.36316 17.611267z" fill-rule="evenodd"/><path fill="#e1e485" d="m1638.5372 730.0497l30.363037 -17.611206l30.363037 17.611206l-30.363037 17.611267z" fill-rule="evenodd"/><path stroke="#e1e485" stroke-width="4.0" stroke-linejoin="round" stroke-linecap="butt" d="m1638.5372 730.0497l30.363037 -17.611206l30.363037 17.611206l-30.363037 17.611267z" fill-rule="evenodd"/><path fill="#e1e485" d="m1596.5477 753.9151l30.363037 -17.611267l30.363037 17.611267l-30.363037 17.611267z" fill-rule="evenodd"/><path stroke="#e1e485" stroke-width="4.0" stroke-linejoin="round" stroke-linecap="butt" d="m1596.5477 753.9151l30.363037 -17.611267l30.363037 17.611267l-30.363037 17.611267z" fill-rule="evenodd"/><path fill="#e1e485" d="m1555.0471 778.7989l30.363037 -17.611267l30.363037 17.611267l-30.363037 17.611206z" fill-rule="evenodd"/><path stroke="#e1e485" stroke-width="4.0" stroke-linejoin="round" stroke-linecap="butt" d="m1555.0471 778.7989l30.363037 -17.611267l30.363037 17.611267l-30.363037 17.611206z" fill-rule="evenodd"/><path fill="#d86f9a" d="m1492.7905 894.55164l-30.431152 -17.500671l0.08105469 -35.10443l30.43103 17.500671z" fill-rule="evenodd"/><path stroke="#d86f9a" stroke-width="4.0" stroke-linejoin="round" stroke-linecap="butt" d="m1492.7905 894.55164l-30.431152 -17.500671l0.08105469 -35.10443l30.43103 17.500671z" fill-rule="evenodd"/><path fill="#d86f9a" d="m1533.5623 918.45605l-30.431152 -17.500671l0.08105469 -35.10443l30.43103 17.500732z" fill-rule="evenodd"/><path stroke="#d86f9a" stroke-width="4.0" stroke-linejoin="round" stroke-linecap="butt" d="m1533.5623 918.45605l-30.431152 -17.500671l0.08105469 -35.10443l30.43103 17.500732z" fill-rule="evenodd"/><path fill="#d86f9a" d="m1575.8597 941.97015l-30.431152 -17.500671l0.08093262 -35.10443l30.431152 17.500671z" fill-rule="evenodd"/><path stroke="#d86f9a" stroke-width="4.0" stroke-linejoin="round" stroke-linecap="butt" d="m1575.8597 941.97015l-30.431152 -17.500671l0.08093262 -35.10443l30.431152 17.500671z" fill-rule="evenodd"/><path fill="#d86f9a" d="m1492.205 844.5204l-30.431152 -17.500732l0.08105469 -35.10437l30.431152 17.500671z" fill-rule="evenodd"/><path stroke="#d86f9a" stroke-width="4.0" stroke-linejoin="round" stroke-linecap="butt" d="m1492.205 844.5204l-30.431152 -17.500732l0.08105469 -35.10437l30.431152 17.500671z" fill-rule="evenodd"/><path fill="#d86f9a" d="m1534.689 870.13367l-30.431152 -17.500671l0.08105469 -35.10443l30.431152 17.500671z" fill-rule="evenodd"/><path stroke="#d86f9a" stroke-width="4.0" stroke-linejoin="round" stroke-linecap="butt" d="m1534.689 870.13367l-30.431152 -17.500671l0.08105469 -35.10443l30.431152 17.500671z" fill-rule="evenodd"/><path fill="#d86f9a" d="m1576.9865 893.64777l-30.431152 -17.500671l0.08105469 -35.10443l30.431152 17.500671z" fill-rule="evenodd"/><path stroke="#d86f9a" stroke-width="4.0" stroke-linejoin="round" stroke-linecap="butt" d="m1576.9865 893.64777l-30.431152 -17.500671l0.08105469 -35.10443l30.431152 17.500671z" fill-rule="evenodd"/><path fill="#d86f9a" d="m1492.2318 796.02313l-30.431152 -17.500732l0.08105469 -35.10443l30.431152 17.500732z" fill-rule="evenodd"/><path stroke="#d86f9a" stroke-width="4.0" stroke-linejoin="round" stroke-linecap="butt" d="m1492.2318 796.02313l-30.431152 -17.500732l0.08105469 -35.10443l30.431152 17.500732z" fill-rule="evenodd"/><path fill="#d86f9a" d="m1533.8915 820.4697l-30.431152 -17.500732l0.08105469 -35.10443l30.43103 17.500732z" fill-rule="evenodd"/><path stroke="#d86f9a" stroke-width="4.0" stroke-linejoin="round" stroke-linecap="butt" d="m1533.8915 820.4697l-30.431152 -17.500732l0.08105469 -35.10443l30.43103 17.500732z" fill-rule="evenodd"/><path fill="#d86f9a" d="m1576.189 843.9838l-30.431152 -17.500732l0.08105469 -35.10443l30.43103 17.500732z" fill-rule="evenodd"/><path stroke="#d86f9a" stroke-width="4.0" stroke-linejoin="round" stroke-linecap="butt" d="m1576.189 843.9838l-30.431152 -17.500732l0.08105469 -35.10443l30.43103 17.500732z" fill-rule="evenodd"/><path fill="#2cda9d" d="m1708.2733 839.38293l0.06738281 35.10077l-30.434814 17.48706l-0.06726074 -35.10077z" fill-rule="evenodd"/><path stroke="#2cda9d" stroke-width="4.0" stroke-linejoin="round" stroke-linecap="butt" d="m1708.2733 839.38293l0.06738281 35.10077l-30.434814 17.48706l-0.06726074 -35.10077z" fill-rule="evenodd"/><path fill="#2cda9d" d="m1708.5787 792.1262l0.06726074 35.10077l-30.434692 17.48706l-0.06738281 -35.10077z" fill-rule="evenodd"/><path stroke="#2cda9d" stroke-width="4.0" stroke-linejoin="round" stroke-linecap="butt" d="m1708.5787 792.1262l0.06726074 35.10077l-30.434692 17.48706l-0.06738281 -35.10077z" fill-rule="evenodd"/><path fill="#2cda9d" d="m1707.783 743.7437l0.06738281 35.10077l-30.434692 17.48706l-0.06738281 -35.10077z" fill-rule="evenodd"/><path stroke="#2cda9d" stroke-width="4.0" stroke-linejoin="round" stroke-linecap="butt" d="m1707.783 743.7437l0.06738281 35.10077l-30.434692 17.48706l-0.06738281 -35.10077z" fill-rule="evenodd"/><path fill="#2cda9d" d="m1665.2479 864.9126l0.06738281 35.10077l-30.434814 17.48706l-0.06726074 -35.10077z" fill-rule="evenodd"/><path stroke="#2cda9d" stroke-width="4.0" stroke-linejoin="round" stroke-linecap="butt" d="m1665.2479 864.9126l0.06738281 35.10077l-30.434814 17.48706l-0.06726074 -35.10077z" fill-rule="evenodd"/><path fill="#2cda9d" d="m1666.1765 815.31866l0.06738281 35.10083l-30.434814 17.48706l-0.06738281 -35.10083z" fill-rule="evenodd"/><path stroke="#2cda9d" stroke-width="4.0" stroke-linejoin="round" stroke-linecap="butt" d="m1666.1765 815.31866l0.06738281 35.10083l-30.434814 17.48706l-0.06738281 -35.10083z" fill-rule="evenodd"/><path fill="#2cda9d" d="m1665.3809 766.93616l0.06726074 35.10083l-30.434692 17.487l-0.06738281 -35.10077z" fill-rule="evenodd"/><path stroke="#2cda9d" stroke-width="4.0" stroke-linejoin="round" stroke-linecap="butt" d="m1665.3809 766.93616l0.06726074 35.10083l-30.434692 17.487l-0.06738281 -35.10077z" fill-rule="evenodd"/><path fill="#2cda9d" d="m1623.2444 889.14484l0.06738281 35.10083l-30.434692 17.48706l-0.06738281 -35.10083z" fill-rule="evenodd"/><path stroke="#2cda9d" stroke-width="4.0" stroke-linejoin="round" stroke-linecap="butt" d="m1623.2444 889.14484l0.06738281 35.10083l-30.434692 17.48706l-0.06738281 -35.10083z" fill-rule="evenodd"/><path fill="#2cda9d" d="m1623.5752 840.8482l0.06726074 35.10083l-30.434692 17.48706l-0.06738281 -35.10083z" fill-rule="evenodd"/><path stroke="#2cda9d" stroke-width="4.0" stroke-linejoin="round" stroke-linecap="butt" d="m1623.5752 840.8482l0.06726074 35.10083l-30.434692 17.48706l-0.06738281 -35.10083z" fill-rule="evenodd"/><path fill="#2cda9d" d="m1622.7794 792.4657l0.06738281 35.10083l-30.434692 17.487l-0.06738281 -35.10077z" fill-rule="evenodd"/><path stroke="#2cda9d" stroke-width="4.0" stroke-linejoin="round" stroke-linecap="butt" d="m1622.7794 792.4657l0.06738281 35.10083l-30.434692 17.487l-0.06738281 -35.10077z" fill-rule="evenodd"/><path fill="#000000" fill-opacity="0.0" d="m227.92914 235.80595l216.62991 0l0 112.976364l-216.62991 0z" fill-rule="evenodd"/><path fill="#d8d9ff" d="m317.58636 312.0879q-3.265625 0 -5.0 -1.765625q-1.71875 -1.765625 -1.71875 -5.015625q0 -3.25 1.71875 -4.984375q1.734375 -1.734375 5.0 -1.734375q3.25 0 4.984375 1.734375q1.734375 1.734375 1.734375 4.984375q0 3.25 -1.734375 5.015625q-1.734375 1.765625 -4.984375 1.765625zm38.23587 0.421875q-4.75 0 -8.296875 -2.109375q-3.546875 -2.109375 -5.4375 -5.96875q-1.890625 -3.875 -1.890625 -9.15625q0 -5.4375 1.9375 -9.34375q1.953125 -3.921875 5.515625 -6.078125q3.578125 -2.171875 8.4375 -2.171875q4.359375 0 7.578125 1.796875q3.234375 1.78125 5.09375 5.03125q1.875 3.25 2.046875 7.671875l-7.734375 0q-0.703125 -3.25 -2.515625 -5.03125q-1.8125 -1.78125 -4.53125 -1.78125q-3.515625 0 -5.515625 2.59375q-2.0 2.578125 -2.0 7.3125q0 4.546875 1.9375 7.046875q1.953125 2.5 5.375 2.5q2.390625 0 4.0625 -1.484375q1.6875 -1.5 2.484375 -4.21875l7.796875 0q-0.328125 4.109375 -2.21875 7.125q-1.890625 3.015625 -5.015625 4.640625q-3.109375 1.625 -7.109375 1.625z" fill-rule="nonzero"/><path fill="#000000" fill-opacity="0.0" d="m1500.7338 214.18999l0 0c0 -12.391312 10.045166 -22.436447 22.436401 -22.436447l122.606445 0c5.9505615 0 11.657349 2.3638306 15.86499 6.5714874c4.2076416 4.207657 6.571411 9.914444 6.571411 15.86496l0 117.89876c0 12.391327 -10.045044 22.436462 -22.436401 22.436462l-122.606445 0l0 0c-12.391235 0 -22.436401 -10.0451355 -22.436401 -22.436462z" fill-rule="evenodd"/><path stroke="#d8d9ff" stroke-width="12.0" stroke-linejoin="round" stroke-linecap="butt" d="m1500.7338 214.18999l0 0c0 -12.391312 10.045166 -22.436447 22.436401 -22.436447l122.606445 0c5.9505615 0 11.657349 2.3638306 15.86499 6.5714874c4.2076416 4.207657 6.571411 9.914444 6.571411 15.86496l0 117.89876c0 12.391327 -10.045044 22.436462 -22.436401 22.436462l-122.606445 0l0 0c-12.391235 0 -22.436401 -10.0451355 -22.436401 -22.436462z" fill-rule="evenodd"/><path fill="#d8d9ff" d="m1526.3948 221.57558l0 0c0 -2.2455902 1.8204346 -4.0660095 4.06604 -4.0660095l108.013794 0c1.0783691 0 2.112671 0.4283905 2.875122 1.190918c0.76257324 0.7625122 1.190918 1.7967224 1.190918 2.8750916l0 103.14357c0 2.2456055 -1.8204346 4.0660095 -4.06604 4.0660095l-108.013794 0c-2.2456055 0 -4.06604 -1.820404 -4.06604 -4.0660095z" fill-rule="evenodd"/><path stroke="#d8d9ff" stroke-width="12.0" stroke-linejoin="round" stroke-linecap="butt" d="m1526.3948 221.57558l0 0c0 -2.2455902 1.8204346 -4.0660095 4.06604 -4.0660095l108.013794 0c1.0783691 0 2.112671 0.4283905 2.875122 1.190918c0.76257324 0.7625122 1.190918 1.7967224 1.190918 2.8750916l0 103.14357c0 2.2456055 -1.8204346 4.0660095 -4.06604 4.0660095l-108.013794 0c-2.2456055 0 -4.06604 -1.820404 -4.06604 -4.0660095z" fill-rule="evenodd"/><path fill="#d8d9ff" d="m1462.523 211.05083l0 0c0 -0.09724426 0.07885742 -0.17608643 0.17614746 -0.17608643l37.848755 0c0.04663086 0 0.091430664 0.018554688 0.12451172 0.051574707c0.032958984 0.03302002 0.051513672 0.077804565 0.051513672 0.12451172l0 4.466736c0 0.09724426 -0.07885742 0.17608643 -0.17602539 0.17608643l-37.848755 0c-0.09729004 0 -0.17614746 -0.07884216 -0.17614746 -0.17608643z" fill-rule="evenodd"/><path stroke="#d8d9ff" stroke-width="12.0" stroke-linejoin="round" stroke-linecap="butt" d="m1462.523 211.05083l0 0c0 -0.09724426 0.07885742 -0.17608643 0.17614746 -0.17608643l37.848755 0c0.04663086 0 0.091430664 0.018554688 0.12451172 0.051574707c0.032958984 0.03302002 0.051513672 0.077804565 0.051513672 0.12451172l0 4.466736c0 0.09724426 -0.07885742 0.17608643 -0.17602539 0.17608643l-37.848755 0c-0.09729004 0 -0.17614746 -0.07884216 -0.17614746 -0.17608643z" fill-rule="evenodd"/><path fill="#d8d9ff" d="m1462.523 240.85036l0 0c0 -0.09724426 0.07885742 -0.17608643 0.17614746 -0.17608643l37.848755 0c0.04663086 0 0.091430664 0.018554688 0.12451172 0.051574707c0.032958984 0.03302002 0.051513672 0.077804565 0.051513672 0.12451172l0 4.466736c0 0.09724426 -0.07885742 0.17608643 -0.17602539 0.17608643l-37.848755 0c-0.09729004 0 -0.17614746 -0.07884216 -0.17614746 -0.17608643z" fill-rule="evenodd"/><path stroke="#d8d9ff" stroke-width="12.0" stroke-linejoin="round" stroke-linecap="butt" d="m1462.523 240.85036l0 0c0 -0.09724426 0.07885742 -0.17608643 0.17614746 -0.17608643l37.848755 0c0.04663086 0 0.091430664 0.018554688 0.12451172 0.051574707c0.032958984 0.03302002 0.051513672 0.077804565 0.051513672 0.12451172l0 4.466736c0 0.09724426 -0.07885742 0.17608643 -0.17602539 0.17608643l-37.848755 0c-0.09729004 0 -0.17614746 -0.07884216 -0.17614746 -0.17608643z" fill-rule="evenodd"/><path fill="#d8d9ff" d="m1462.523 270.6499l0 0c0 -0.09725952 0.07885742 -0.17608643 0.17614746 -0.17608643l37.848755 0c0.04663086 0 0.091430664 0.018554688 0.12451172 0.051574707c0.032958984 0.03302002 0.051513672 0.07778931 0.051513672 0.12451172l0 4.4667053c0 0.09725952 -0.07885742 0.17608643 -0.17602539 0.17608643l-37.848755 0c-0.09729004 0 -0.17614746 -0.078826904 -0.17614746 -0.17608643z" fill-rule="evenodd"/><path stroke="#d8d9ff" stroke-width="12.0" stroke-linejoin="round" stroke-linecap="butt" d="m1462.523 270.6499l0 0c0 -0.09725952 0.07885742 -0.17608643 0.17614746 -0.17608643l37.848755 0c0.04663086 0 0.091430664 0.018554688 0.12451172 0.051574707c0.032958984 0.03302002 0.051513672 0.07778931 0.051513672 0.12451172l0 4.4667053c0 0.09725952 -0.07885742 0.17608643 -0.17602539 0.17608643l-37.848755 0c-0.09729004 0 -0.17614746 -0.078826904 -0.17614746 -0.17608643z" fill-rule="evenodd"/><path fill="#d8d9ff" d="m1462.523 300.44943l0 0c0 -0.09725952 0.07885742 -0.17608643 0.17614746 -0.17608643l37.848755 0c0.04663086 0 0.091430664 0.018554688 0.12451172 0.051574707c0.032958984 0.03302002 0.051513672 0.07778931 0.051513672 0.12451172l0 4.4667053c0 0.09725952 -0.07885742 0.17608643 -0.17602539 0.17608643l-37.848755 0c-0.09729004 0 -0.17614746 -0.078826904 -0.17614746 -0.17608643z" fill-rule="evenodd"/><path stroke="#d8d9ff" stroke-width="12.0" stroke-linejoin="round" stroke-linecap="butt" d="m1462.523 300.44943l0 0c0 -0.09725952 0.07885742 -0.17608643 0.17614746 -0.17608643l37.848755 0c0.04663086 0 0.091430664 0.018554688 0.12451172 0.051574707c0.032958984 0.03302002 0.051513672 0.07778931 0.051513672 0.12451172l0 4.4667053c0 0.09725952 -0.07885742 0.17608643 -0.17602539 0.17608643l-37.848755 0c-0.09729004 0 -0.17614746 -0.078826904 -0.17614746 -0.17608643z" fill-rule="evenodd"/><path fill="#d8d9ff" d="m1462.523 330.24896l0 0c0 -0.09725952 0.07885742 -0.17608643 0.17614746 -0.17608643l37.848755 0c0.04663086 0 0.091430664 0.018554688 0.12451172 0.051574707c0.032958984 0.03302002 0.051513672 0.07778931 0.051513672 0.12451172l0 4.4667053c0 0.09725952 -0.07885742 0.17608643 -0.17602539 0.17608643l-37.848755 0c-0.09729004 0 -0.17614746 -0.078826904 -0.17614746 -0.17608643z" fill-rule="evenodd"/><path stroke="#d8d9ff" stroke-width="12.0" stroke-linejoin="round" stroke-linecap="butt" d="m1462.523 330.24896l0 0c0 -0.09725952 0.07885742 -0.17608643 0.17614746 -0.17608643l37.848755 0c0.04663086 0 0.091430664 0.018554688 0.12451172 0.051574707c0.032958984 0.03302002 0.051513672 0.07778931 0.051513672 0.12451172l0 4.4667053c0 0.09725952 -0.07885742 0.17608643 -0.17602539 0.17608643l-37.848755 0c-0.09729004 0 -0.17614746 -0.078826904 -0.17614746 -0.17608643z" fill-rule="evenodd"/><path fill="#d8d9ff" d="m1668.2135 211.05083l0 0c0 -0.09724426 0.07873535 -0.17608643 0.17602539 -0.17608643l37.848755 0c0.04663086 0 0.091430664 0.018554688 0.12451172 0.051574707c0.032958984 0.03302002 0.051513672 0.077804565 0.051513672 0.12451172l0 4.466736c0 0.09724426 -0.07873535 0.17608643 -0.17602539 0.17608643l-37.848755 0c-0.09729004 0 -0.17602539 -0.07884216 -0.17602539 -0.17608643z" fill-rule="evenodd"/><path stroke="#d8d9ff" stroke-width="12.0" stroke-linejoin="round" stroke-linecap="butt" d="m1668.2135 211.05083l0 0c0 -0.09724426 0.07873535 -0.17608643 0.17602539 -0.17608643l37.848755 0c0.04663086 0 0.091430664 0.018554688 0.12451172 0.051574707c0.032958984 0.03302002 0.051513672 0.077804565 0.051513672 0.12451172l0 4.466736c0 0.09724426 -0.07873535 0.17608643 -0.17602539 0.17608643l-37.848755 0c-0.09729004 0 -0.17602539 -0.07884216 -0.17602539 -0.17608643z" fill-rule="evenodd"/><path fill="#d8d9ff" d="m1668.2135 240.85036l0 0c0 -0.09724426 0.07873535 -0.17608643 0.17602539 -0.17608643l37.848755 0c0.04663086 0 0.091430664 0.018554688 0.12451172 0.051574707c0.032958984 0.03302002 0.051513672 0.077804565 0.051513672 0.12451172l0 4.466736c0 0.09724426 -0.07873535 0.17608643 -0.17602539 0.17608643l-37.848755 0c-0.09729004 0 -0.17602539 -0.07884216 -0.17602539 -0.17608643z" fill-rule="evenodd"/><path stroke="#d8d9ff" stroke-width="12.0" stroke-linejoin="round" stroke-linecap="butt" d="m1668.2135 240.85036l0 0c0 -0.09724426 0.07873535 -0.17608643 0.17602539 -0.17608643l37.848755 0c0.04663086 0 0.091430664 0.018554688 0.12451172 0.051574707c0.032958984 0.03302002 0.051513672 0.077804565 0.051513672 0.12451172l0 4.466736c0 0.09724426 -0.07873535 0.17608643 -0.17602539 0.17608643l-37.848755 0c-0.09729004 0 -0.17602539 -0.07884216 -0.17602539 -0.17608643z" fill-rule="evenodd"/><path fill="#d8d9ff" d="m1668.2135 270.6499l0 0c0 -0.09725952 0.07873535 -0.17608643 0.17602539 -0.17608643l37.848755 0c0.04663086 0 0.091430664 0.018554688 0.12451172 0.051574707c0.032958984 0.03302002 0.051513672 0.07778931 0.051513672 0.12451172l0 4.4667053c0 0.09725952 -0.07873535 0.17608643 -0.17602539 0.17608643l-37.848755 0c-0.09729004 0 -0.17602539 -0.078826904 -0.17602539 -0.17608643z" fill-rule="evenodd"/><path stroke="#d8d9ff" stroke-width="12.0" stroke-linejoin="round" stroke-linecap="butt" d="m1668.2135 270.6499l0 0c0 -0.09725952 0.07873535 -0.17608643 0.17602539 -0.17608643l37.848755 0c0.04663086 0 0.091430664 0.018554688 0.12451172 0.051574707c0.032958984 0.03302002 0.051513672 0.07778931 0.051513672 0.12451172l0 4.4667053c0 0.09725952 -0.07873535 0.17608643 -0.17602539 0.17608643l-37.848755 0c-0.09729004 0 -0.17602539 -0.078826904 -0.17602539 -0.17608643z" fill-rule="evenodd"/><path fill="#d8d9ff" d="m1668.2135 300.44943l0 0c0 -0.09725952 0.07873535 -0.17608643 0.17602539 -0.17608643l37.848755 0c0.04663086 0 0.091430664 0.018554688 0.12451172 0.051574707c0.032958984 0.03302002 0.051513672 0.07778931 0.051513672 0.12451172l0 4.4667053c0 0.09725952 -0.07873535 0.17608643 -0.17602539 0.17608643l-37.848755 0c-0.09729004 0 -0.17602539 -0.078826904 -0.17602539 -0.17608643z" fill-rule="evenodd"/><path stroke="#d8d9ff" stroke-width="12.0" stroke-linejoin="round" stroke-linecap="butt" d="m1668.2135 300.44943l0 0c0 -0.09725952 0.07873535 -0.17608643 0.17602539 -0.17608643l37.848755 0c0.04663086 0 0.091430664 0.018554688 0.12451172 0.051574707c0.032958984 0.03302002 0.051513672 0.07778931 0.051513672 0.12451172l0 4.4667053c0 0.09725952 -0.07873535 0.17608643 -0.17602539 0.17608643l-37.848755 0c-0.09729004 0 -0.17602539 -0.078826904 -0.17602539 -0.17608643z" fill-rule="evenodd"/><path fill="#d8d9ff" d="m1668.2135 330.24896l0 0c0 -0.09725952 0.07873535 -0.17608643 0.17602539 -0.17608643l37.848755 0c0.04663086 0 0.091430664 0.018554688 0.12451172 0.051574707c0.032958984 0.03302002 0.051513672 0.07778931 0.051513672 0.12451172l0 4.4667053c0 0.09725952 -0.07873535 0.17608643 -0.17602539 0.17608643l-37.848755 0c-0.09729004 0 -0.17602539 -0.078826904 -0.17602539 -0.17608643z" fill-rule="evenodd"/><path stroke="#d8d9ff" stroke-width="12.0" stroke-linejoin="round" stroke-linecap="butt" d="m1668.2135 330.24896l0 0c0 -0.09725952 0.07873535 -0.17608643 0.17602539 -0.17608643l37.848755 0c0.04663086 0 0.091430664 0.018554688 0.12451172 0.051574707c0.032958984 0.03302002 0.051513672 0.07778931 0.051513672 0.12451172l0 4.4667053c0 0.09725952 -0.07873535 0.17608643 -0.17602539 0.17608643l-37.848755 0c-0.09729004 0 -0.17602539 -0.078826904 -0.17602539 -0.17608643z" fill-rule="evenodd"/><path fill="#d8d9ff" d="m1522.6482 395.39746l0 0c-0.09729004 0 -0.17602539 -0.078826904 -0.17602539 -0.17605591l0 -37.8526c0 -0.046691895 0.018554688 -0.09146118 0.051513672 -0.1244812c0.033081055 -0.03302002 0.07775879 -0.051574707 0.12451172 -0.051574707l4.4663086 0c0.09716797 0 0.17602539 0.078826904 0.17602539 0.17605591l0 37.8526c0 0.097229004 -0.07885742 0.17605591 -0.17602539 0.17605591z" fill-rule="evenodd"/><path stroke="#d8d9ff" stroke-width="12.0" stroke-linejoin="round" stroke-linecap="butt" d="m1522.6482 395.39746l0 0c-0.09729004 0 -0.17602539 -0.078826904 -0.17602539 -0.17605591l0 -37.8526c0 -0.046691895 0.018554688 -0.09146118 0.051513672 -0.1244812c0.033081055 -0.03302002 0.07775879 -0.051574707 0.12451172 -0.051574707l4.4663086 0c0.09716797 0 0.17602539 0.078826904 0.17602539 0.17605591l0 37.8526c0 0.097229004 -0.07885742 0.17605591 -0.17602539 0.17605591z" fill-rule="evenodd"/><path fill="#d8d9ff" d="m1552.4447 395.39746l0 0c-0.09716797 0 -0.17602539 -0.078826904 -0.17602539 -0.17605591l0 -37.8526c0 -0.046691895 0.018554688 -0.09146118 0.051513672 -0.1244812c0.033081055 -0.03302002 0.07788086 -0.051574707 0.12451172 -0.051574707l4.4663086 0c0.09729004 0 0.17602539 0.078826904 0.17602539 0.17605591l0 37.8526c0 0.097229004 -0.07873535 0.17605591 -0.17602539 0.17605591z" fill-rule="evenodd"/><path stroke="#d8d9ff" stroke-width="12.0" stroke-linejoin="round" stroke-linecap="butt" d="m1552.4447 395.39746l0 0c-0.09716797 0 -0.17602539 -0.078826904 -0.17602539 -0.17605591l0 -37.8526c0 -0.046691895 0.018554688 -0.09146118 0.051513672 -0.1244812c0.033081055 -0.03302002 0.07788086 -0.051574707 0.12451172 -0.051574707l4.4663086 0c0.09729004 0 0.17602539 0.078826904 0.17602539 0.17605591l0 37.8526c0 0.097229004 -0.07873535 0.17605591 -0.17602539 0.17605591z" fill-rule="evenodd"/><path fill="#d8d9ff" d="m1582.2413 395.39746l0 0c-0.09729004 0 -0.17614746 -0.078826904 -0.17614746 -0.17605591l0 -37.8526c0 -0.046691895 0.018554688 -0.09146118 0.051635742 -0.1244812c0.032958984 -0.03302002 0.07775879 -0.051574707 0.12451172 -0.051574707l4.4661865 0c0.09729004 0 0.17614746 0.078826904 0.17614746 0.17605591l0 37.8526c0 0.097229004 -0.07885742 0.17605591 -0.17614746 0.17605591z" fill-rule="evenodd"/><path stroke="#d8d9ff" stroke-width="12.0" stroke-linejoin="round" stroke-linecap="butt" d="m1582.2413 395.39746l0 0c-0.09729004 0 -0.17614746 -0.078826904 -0.17614746 -0.17605591l0 -37.8526c0 -0.046691895 0.018554688 -0.09146118 0.051635742 -0.1244812c0.032958984 -0.03302002 0.07775879 -0.051574707 0.12451172 -0.051574707l4.4661865 0c0.09729004 0 0.17614746 0.078826904 0.17614746 0.17605591l0 37.8526c0 0.097229004 -0.07885742 0.17605591 -0.17614746 0.17605591z" fill-rule="evenodd"/><path fill="#d8d9ff" d="m1612.0378 395.39746l0 0c-0.09729004 0 -0.17602539 -0.078826904 -0.17602539 -0.17605591l0 -37.8526c0 -0.046691895 0.018554688 -0.09146118 0.051513672 -0.1244812c0.033081055 -0.03302002 0.07775879 -0.051574707 0.12451172 -0.051574707l4.4663086 0c0.09716797 0 0.17602539 0.078826904 0.17602539 0.17605591l0 37.8526c0 0.097229004 -0.07885742 0.17605591 -0.17602539 0.17605591z" fill-rule="evenodd"/><path stroke="#d8d9ff" stroke-width="12.0" stroke-linejoin="round" stroke-linecap="butt" d="m1612.0378 395.39746l0 0c-0.09729004 0 -0.17602539 -0.078826904 -0.17602539 -0.17605591l0 -37.8526c0 -0.046691895 0.018554688 -0.09146118 0.051513672 -0.1244812c0.033081055 -0.03302002 0.07775879 -0.051574707 0.12451172 -0.051574707l4.4663086 0c0.09716797 0 0.17602539 0.078826904 0.17602539 0.17605591l0 37.8526c0 0.097229004 -0.07885742 0.17605591 -0.17602539 0.17605591z" fill-rule="evenodd"/><path fill="#d8d9ff" d="m1641.8344 395.39746l0 0c-0.09716797 0 -0.17602539 -0.078826904 -0.17602539 -0.17605591l0 -37.8526c0 -0.046691895 0.018554688 -0.09146118 0.051513672 -0.1244812c0.033081055 -0.03302002 0.07788086 -0.051574707 0.12451172 -0.051574707l4.4663086 0c0.09729004 0 0.17602539 0.078826904 0.17602539 0.17605591l0 37.8526c0 0.097229004 -0.07873535 0.17605591 -0.17602539 0.17605591z" fill-rule="evenodd"/><path stroke="#d8d9ff" stroke-width="12.0" stroke-linejoin="round" stroke-linecap="butt" d="m1641.8344 395.39746l0 0c-0.09716797 0 -0.17602539 -0.078826904 -0.17602539 -0.17605591l0 -37.8526c0 -0.046691895 0.018554688 -0.09146118 0.051513672 -0.1244812c0.033081055 -0.03302002 0.07788086 -0.051574707 0.12451172 -0.051574707l4.4663086 0c0.09729004 0 0.17602539 0.078826904 0.17602539 0.17605591l0 37.8526c0 0.097229004 -0.07873535 0.17605591 -0.17602539 0.17605591z" fill-rule="evenodd"/><path fill="#d8d9ff" d="m1522.6482 191.7547l0 0c-0.09729004 0 -0.17602539 -0.078826904 -0.17602539 -0.17607117l0 -37.8526c0 -0.046691895 0.018554688 -0.09147644 0.051513672 -0.12449646c0.033081055 -0.03302002 0.07775879 -0.05155945 0.12451172 -0.05155945l4.4663086 0c0.09716797 0 0.17602539 0.078826904 0.17602539 0.17605591l0 37.8526c0 0.09724426 -0.07885742 0.17607117 -0.17602539 0.17607117z" fill-rule="evenodd"/><path stroke="#d8d9ff" stroke-width="12.0" stroke-linejoin="round" stroke-linecap="butt" d="m1522.6482 191.7547l0 0c-0.09729004 0 -0.17602539 -0.078826904 -0.17602539 -0.17607117l0 -37.8526c0 -0.046691895 0.018554688 -0.09147644 0.051513672 -0.12449646c0.033081055 -0.03302002 0.07775879 -0.05155945 0.12451172 -0.05155945l4.4663086 0c0.09716797 0 0.17602539 0.078826904 0.17602539 0.17605591l0 37.8526c0 0.09724426 -0.07885742 0.17607117 -0.17602539 0.17607117z" fill-rule="evenodd"/><path fill="#d8d9ff" d="m1552.4447 191.7547l0 0c-0.09716797 0 -0.17602539 -0.078826904 -0.17602539 -0.17607117l0 -37.8526c0 -0.046691895 0.018554688 -0.09147644 0.051513672 -0.12449646c0.033081055 -0.03302002 0.07788086 -0.05155945 0.12451172 -0.05155945l4.4663086 0c0.09729004 0 0.17602539 0.078826904 0.17602539 0.17605591l0 37.8526c0 0.09724426 -0.07873535 0.17607117 -0.17602539 0.17607117z" fill-rule="evenodd"/><path stroke="#d8d9ff" stroke-width="12.0" stroke-linejoin="round" stroke-linecap="butt" d="m1552.4447 191.7547l0 0c-0.09716797 0 -0.17602539 -0.078826904 -0.17602539 -0.17607117l0 -37.8526c0 -0.046691895 0.018554688 -0.09147644 0.051513672 -0.12449646c0.033081055 -0.03302002 0.07788086 -0.05155945 0.12451172 -0.05155945l4.4663086 0c0.09729004 0 0.17602539 0.078826904 0.17602539 0.17605591l0 37.8526c0 0.09724426 -0.07873535 0.17607117 -0.17602539 0.17607117z" fill-rule="evenodd"/><path fill="#d8d9ff" d="m1582.2413 191.7547l0 0c-0.09729004 0 -0.17614746 -0.078826904 -0.17614746 -0.17607117l0 -37.8526c0 -0.046691895 0.018554688 -0.09147644 0.051635742 -0.12449646c0.032958984 -0.03302002 0.07775879 -0.05155945 0.12451172 -0.05155945l4.4661865 0c0.09729004 0 0.17614746 0.078826904 0.17614746 0.17605591l0 37.8526c0 0.09724426 -0.07885742 0.17607117 -0.17614746 0.17607117z" fill-rule="evenodd"/><path stroke="#d8d9ff" stroke-width="12.0" stroke-linejoin="round" stroke-linecap="butt" d="m1582.2413 191.7547l0 0c-0.09729004 0 -0.17614746 -0.078826904 -0.17614746 -0.17607117l0 -37.8526c0 -0.046691895 0.018554688 -0.09147644 0.051635742 -0.12449646c0.032958984 -0.03302002 0.07775879 -0.05155945 0.12451172 -0.05155945l4.4661865 0c0.09729004 0 0.17614746 0.078826904 0.17614746 0.17605591l0 37.8526c0 0.09724426 -0.07885742 0.17607117 -0.17614746 0.17607117z" fill-rule="evenodd"/><path fill="#d8d9ff" d="m1612.0378 191.7547l0 0c-0.09729004 0 -0.17602539 -0.078826904 -0.17602539 -0.17607117l0 -37.8526c0 -0.046691895 0.018554688 -0.09147644 0.051513672 -0.12449646c0.033081055 -0.03302002 0.07775879 -0.05155945 0.12451172 -0.05155945l4.4663086 0c0.09716797 0 0.17602539 0.078826904 0.17602539 0.17605591l0 37.8526c0 0.09724426 -0.07885742 0.17607117 -0.17602539 0.17607117z" fill-rule="evenodd"/><path stroke="#d8d9ff" stroke-width="12.0" stroke-linejoin="round" stroke-linecap="butt" d="m1612.0378 191.7547l0 0c-0.09729004 0 -0.17602539 -0.078826904 -0.17602539 -0.17607117l0 -37.8526c0 -0.046691895 0.018554688 -0.09147644 0.051513672 -0.12449646c0.033081055 -0.03302002 0.07775879 -0.05155945 0.12451172 -0.05155945l4.4663086 0c0.09716797 0 0.17602539 0.078826904 0.17602539 0.17605591l0 37.8526c0 0.09724426 -0.07885742 0.17607117 -0.17602539 0.17607117z" fill-rule="evenodd"/><path fill="#d8d9ff" d="m1641.8344 191.7547l0 0c-0.09716797 0 -0.17602539 -0.078826904 -0.17602539 -0.17607117l0 -37.8526c0 -0.046691895 0.018554688 -0.09147644 0.051513672 -0.12449646c0.033081055 -0.03302002 0.07788086 -0.05155945 0.12451172 -0.05155945l4.4663086 0c0.09729004 0 0.17602539 0.078826904 0.17602539 0.17605591l0 37.8526c0 0.09724426 -0.07873535 0.17607117 -0.17602539 0.17607117z" fill-rule="evenodd"/><path stroke="#d8d9ff" stroke-width="12.0" stroke-linejoin="round" stroke-linecap="butt" d="m1641.8344 191.7547l0 0c-0.09716797 0 -0.17602539 -0.078826904 -0.17602539 -0.17607117l0 -37.8526c0 -0.046691895 0.018554688 -0.09147644 0.051513672 -0.12449646c0.033081055 -0.03302002 0.07788086 -0.05155945 0.12451172 -0.05155945l4.4663086 0c0.09729004 0 0.17602539 0.078826904 0.17602539 0.17605591l0 37.8526c0 0.09724426 -0.07873535 0.17607117 -0.17602539 0.17607117z" fill-rule="evenodd"/><path fill="#000000" fill-opacity="0.0" d="m516.32263 319.3481l258.48822 0" fill-rule="evenodd"/><path stroke="#d8d9ff" stroke-width="8.0" stroke-linejoin="round" stroke-linecap="butt" d="m516.32263 319.3481l210.48822 0" fill-rule="evenodd"/><path fill="#d8d9ff" stroke="#d8d9ff" stroke-width="8.0" stroke-linecap="butt" d="m726.81085 332.56198l36.30481 -13.213867l-36.30481 -13.213867z" fill-rule="evenodd"/><path fill="#000000" fill-opacity="0.0" d="m464.68466 156.76779l366.8976 0l0 112.97638l-366.8976 0z" fill-rule="evenodd"/><path fill="#d8d9ff" d="m612.6553 202.54848q-6.046875 0 -9.34375 -5.125q-3.28125 -5.140625 -3.28125 -14.890625q0 -9.9375 3.859375 -15.015625q3.875 -5.09375 11.359375 -5.09375q4.1875 0 7.203125 1.65625q3.03125 1.65625 4.75 4.78125q1.734375 3.109375 1.96875 7.53125l-7.53125 0q-0.671875 -3.265625 -2.265625 -4.921875q-1.578125 -1.65625 -4.125 -1.65625q-3.546875 0 -5.328125 3.15625q-1.765625 3.140625 -1.765625 9.5625q0 6.859375 1.75 10.0625q1.75 3.1875 5.546875 3.1875q1.765625 0 3.078125 -0.9375q1.328125 -0.9375 2.09375 -2.515625q0.765625 -1.578125 0.765625 -3.65625l-7.0 0l0 -7.140625l14.0625 0l0 20.203125l-7.0625 0l0 -3.171875l-1.765625 0q-0.71875 1.875 -2.546875 2.9375q-1.828125 1.046875 -4.421875 1.046875zm36.14691 0.09375q-7.203125 0 -10.953125 -5.078125q-3.734375 -5.09375 -3.734375 -15.03125q0 -9.9375 3.84375 -15.015625q3.84375 -5.09375 11.28125 -5.09375q4.171875 0 7.1875 1.734375q3.03125 1.71875 4.78125 5.03125q1.75 3.3125 2.0 8.015625l-7.390625 0q-0.71875 -3.6875 -2.328125 -5.53125q-1.609375 -1.859375 -4.25 -1.859375q-3.546875 0 -5.28125 3.15625q-1.734375 3.140625 -1.734375 9.5625q0 6.4375 1.625 9.578125q1.640625 3.140625 4.953125 3.140625q2.453125 0 4.015625 -1.71875q1.5625 -1.734375 2.28125 -5.140625l7.390625 0q-0.296875 4.515625 -2.03125 7.703125q-1.71875 3.1875 -4.671875 4.875q-2.953125 1.671875 -6.984375 1.671875zm33.600098 0q-7.203125 0 -10.953125 -5.078125q-3.734375 -5.09375 -3.734375 -15.03125q0 -9.9375 3.84375 -15.015625q3.84375 -5.09375 11.28125 -5.09375q4.171875 0 7.1875 1.734375q3.03125 1.71875 4.78125 5.03125q1.75 3.3125 2.0 8.015625l-7.390625 0q-0.71875 -3.6875 -2.328125 -5.53125q-1.609375 -1.859375 -4.25 -1.859375q-3.546875 0 -5.28125 3.15625q-1.734375 3.140625 -1.734375 9.5625q0 6.4375 1.625 9.578125q1.640625 3.140625 4.953125 3.140625q2.453125 0 4.015625 -1.71875q1.5625 -1.734375 2.28125 -5.140625l7.390625 0q-0.296875 4.515625 -2.03125 7.703125q-1.71875 3.1875 -4.671875 4.875q-2.953125 1.671875 -6.984375 1.671875z" fill-rule="nonzero"/><path fill="#d8d9ff" d="m531.20197 260.24225q-7.203125 0 -10.953125 -5.0781403q-3.734375 -5.09375 -3.734375 -15.03125q0 -9.9375 3.84375 -15.015625q3.84375 -5.09375 11.28125 -5.09375q4.171875 0 7.1875 1.734375q3.03125 1.71875 4.78125 5.03125q1.75 3.3125 2.0 8.015625l-7.390625 0q-0.71875 -3.6875 -2.328125 -5.53125q-1.609375 -1.859375 -4.25 -1.859375q-3.546875 0 -5.28125 3.15625q-1.734375 3.140625 -1.734375 9.5625q0 6.4375 1.625 9.578125q1.640625 3.140625 4.953125 3.140625q2.453125 0 4.015625 -1.71875q1.5625 -1.734375 2.28125 -5.140625l7.390625 0q-0.296875 4.515625 -2.03125 7.703125q-1.71875 3.1875153 -4.671875 4.8750153q-2.953125 1.671875 -6.984375 1.671875zm32.928223 0q-4.3125 0 -7.484375 -1.90625q-3.171875 -1.921875 -4.90625 -5.4218903q-1.71875 -3.515625 -1.71875 -8.3125q0 -4.84375 1.71875 -8.34375q1.734375 -3.515625 4.90625 -5.4375q3.171875 -1.921875 7.484375 -1.921875q4.328125 0 7.484375 1.921875q3.171875 1.921875 4.890625 5.4375q1.734375 3.5 1.734375 8.34375q0 4.796875 -1.734375 8.3125q-1.71875 3.5000153 -4.859375 5.4218903q-3.140625 1.90625 -7.515625 1.90625zm0 -6.9062653q3.171875 0 4.890625 -2.296875q1.734375 -2.3125 1.734375 -6.4375q0 -4.171875 -1.734375 -6.46875q-1.71875 -2.3125 -4.890625 -2.3125q-3.109375 0 -4.875 2.3125q-1.75 2.296875 -1.75 6.46875q0 4.125 1.75 6.4375q1.765625 2.296875 4.875 2.296875zm19.053162 -23.515625l7.453125 0l0 3.0625l4.359375 0l-3.078125 2.265625q0.109375 -3.03125 1.375 -4.640625q1.265625 -1.609375 3.484375 -1.609375q2.0625 0 3.28125 1.640625q1.234375 1.625 1.375 4.75l-2.640625 -2.3125l6.71875 0l-3.125 2.171875q0.09375 -3.03125 1.40625 -4.640625q1.328125 -1.609375 3.59375 -1.609375q2.390625 0 3.703125 2.046875q1.328125 2.03125 1.328125 5.78125l0 22.60939l-6.90625 0l0 -19.625015q0 -1.34375 -0.5625 -2.046875q-0.546875 -0.703125 -1.546875 -0.703125q-1.0625 0 -1.625 0.703125q-0.546875 0.703125 -0.546875 2.046875l0 19.625015l-6.859375 0l0 -19.625015q0 -1.34375 -0.546875 -2.046875q-0.546875 -0.703125 -1.609375 -0.703125q-1.015625 0 -1.5625 0.703125q-0.546875 0.703125 -0.546875 2.046875l0 19.625015l-6.921875 0l0 -29.51564zm35.240723 39.10939l0 -39.10939l7.765625 0l0 2.78125l1.78125 0q0.859375 -1.6875 2.640625 -2.609375q1.78125 -0.9375 3.9375 -0.9375q3.546875 0 6.1875 1.890625q2.640625 1.890625 4.078125 5.375q1.453125 3.484375 1.453125 8.234375q0 4.796875 -1.453125 8.28125q-1.4375 3.4687653 -4.078125 5.3750153q-2.640625 1.890625 -6.1875 1.890625q-2.15625 0 -3.9375 -0.953125q-1.78125 -0.96875 -2.640625 -2.59375l-1.78125 0l0 12.375l-7.765625 0zm13.828125 -15.73439q3.0625 0 4.78125 -2.28125q1.734375 -2.28125 1.734375 -6.359375q0 -4.078125 -1.734375 -6.328125q-1.71875 -2.265625 -4.78125 -2.265625q-3.125 0 -4.859375 2.28125q-1.71875 2.28125 -1.71875 6.359375q0 4.078125 1.71875 6.34375q1.734375 2.25 4.859375 2.25zm21.834412 -23.375l16.421875 0l0 22.609375l8.6875 0l0 6.9062653l-25.109375 0l0 -6.9062653l8.640625 0l0 -15.703125l-8.640625 0l0 -6.90625zm12.140625 -3.515625q-2.34375 0 -3.640625 -1.1875q-1.296875 -1.203125 -1.296875 -3.40625q0 -2.21875 1.296875 -3.40625q1.296875 -1.203125 3.640625 -1.203125q2.40625 0 3.671875 1.203125q1.28125 1.1875 1.28125 3.40625q0 2.203125 -1.28125 3.40625q-1.265625 1.1875 -3.671875 1.1875zm20.600098 -7.671875l16.453125 0l0 33.796875l8.640625 0l0 6.9062653l-25.09375 0l0 -6.9062653l8.6875 0l0 -26.890625l-8.6875 0l0 -6.90625zm38.05316 22.84375l16.375 0l-2.546875 2.890625q0 -4.375 -1.515625 -6.578125q-1.5 -2.21875 -4.578125 -2.21875q-3.125 0 -4.734375 2.328125q-1.609375 2.328125 -1.609375 6.515625q0 4.5 1.578125 6.828125q1.59375 2.328125 4.953125 2.328125q1.921875 0 3.375 -0.875q1.46875 -0.890625 2.53125 -2.53125l7.484375 0q-0.953125 3.21875 -2.875 5.484375q-1.921875 2.2500153 -4.640625 3.4218903q-2.703125 1.171875 -6.0625 1.171875q-4.328125 0 -7.421875 -1.859375q-3.09375 -1.875 -4.75 -5.4218903q-1.65625 -3.5625 -1.65625 -8.546875q0 -4.765625 1.703125 -8.234375q1.703125 -3.484375 4.828125 -5.375q3.125 -1.90625 7.296875 -1.90625q4.078125 0 6.953125 1.828125q2.890625 1.828125 4.4375 5.265625q1.5625 3.421875 1.5625 8.375q0 0.765625 -0.078125 1.4375q-0.0625 0.671875 -0.109375 1.25l-20.5 0l0 -5.578125zm27.803223 -11.65625l12.71875 0l0 2.6875l1.765625 0q0.828125 -1.6875 2.421875 -2.625q1.609375 -0.9375 3.625 -0.9375q3.515625 0 5.3125 2.671875q1.796875 2.65625 1.796875 7.84375l0 4.75l-7.921875 0l0 -3.734375q0 -4.03125 -2.96875 -4.03125q-1.921875 0 -2.84375 1.734375q-0.90625 1.71875 -0.90625 5.265625l0 8.984375l8.359375 0l0 6.9062653l-20.796875 0l0 -6.9062653l4.953125 0l0 -15.703125l-5.515625 0l0 -6.90625z" fill-rule="nonzero"/><path fill="#2f3052" d="m53.95013 83.27821l0 0c0 -24.952831 20.228268 -45.1811 45.181103 -45.1811l256.72443 0c11.982758 0 23.474762 4.7601357 31.947845 13.233238c8.473114 8.473099 13.233246 19.965088 13.233246 31.94786l0 0l0 0c0 24.952835 -20.228271 45.181107 -45.18109 45.181107l-256.72443 0l0 0c-24.952835 0 -45.181103 -20.228271 -45.181103 -45.181107z" fill-rule="evenodd"/><path stroke="#d8d9ff" stroke-width="8.0" stroke-linejoin="round" stroke-linecap="butt" d="m53.95013 83.27821l0 0c0 -24.952831 20.228268 -45.1811 45.181103 -45.1811l256.72443 0c11.982758 0 23.474762 4.7601357 31.947845 13.233238c8.473114 8.473099 13.233246 19.965088 13.233246 31.94786l0 0l0 0c0 24.952835 -20.228271 45.181107 -45.18109 45.181107l-256.72443 0l0 0c-24.952835 0 -45.181103 -20.228271 -45.181103 -45.181107z" fill-rule="evenodd"/><path fill="#d8d9ff" d="m110.56192 101.264465q-7.203125 0 -10.953125 -5.078125q-3.734375 -5.09375 -3.734375 -15.03125q0 -9.9375 3.84375 -15.015625q3.84375 -5.09375 11.28125 -5.09375q4.171875 0 7.1875 1.734375q3.03125 1.71875 4.78125 5.03125q1.75 3.3125 2.0 8.015625l-7.390625 0q-0.71875 -3.6875 -2.328125 -5.53125q-1.609375 -1.859375 -4.25 -1.859375q-3.546875 0 -5.28125 3.15625q-1.734375 3.140625 -1.734375 9.5625q0 6.4375 1.625 9.578125q1.640625 3.140625 4.953125 3.140625q2.453125 0 4.015625 -1.71875q1.5625 -1.734375 2.28125 -5.140625l7.390625 0q-0.296875 4.515625 -2.03125 7.703125q-1.71875 3.1875 -4.671875 4.875q-2.953125 1.671875 -6.984375 1.671875zm32.928192 0q-4.3125 0 -7.484375 -1.90625q-3.171875 -1.921875 -4.90625 -5.421875q-1.71875 -3.515625 -1.71875 -8.3125q0 -4.84375 1.71875 -8.34375q1.734375 -3.515625 4.90625 -5.4375q3.171875 -1.921875 7.484375 -1.921875q4.328125 0 7.484375 1.921875q3.171875 1.921875 4.890625 5.4375q1.734375 3.5 1.734375 8.34375q0 4.796875 -1.734375 8.3125q-1.71875 3.5 -4.859375 5.421875q-3.140625 1.90625 -7.515625 1.90625zm0 -6.90625q3.171875 0 4.890625 -2.296875q1.734375 -2.3125 1.734375 -6.4375q0 -4.171875 -1.734375 -6.46875q-1.71875 -2.3125 -4.890625 -2.3125q-3.109375 0 -4.875 2.3125q-1.75 2.296875 -1.75 6.46875q0 4.125 1.75 6.4375q1.765625 2.296875 4.875 2.296875zm19.053192 -23.515625l7.453125 0l0 3.0625l4.359375 0l-3.078125 2.265625q0.109375 -3.03125 1.375 -4.640625q1.265625 -1.609375 3.484375 -1.609375q2.0625 0 3.28125 1.640625q1.234375 1.625 1.375 4.75l-2.640625 -2.3125l6.71875 0l-3.125 2.171875q0.09375 -3.03125 1.40625 -4.640625q1.328125 -1.609375 3.59375 -1.609375q2.390625 0 3.703125 2.046875q1.328125 2.03125 1.328125 5.78125l0 22.609375l-6.90625 0l0 -19.625q0 -1.34375 -0.5625 -2.046875q-0.546875 -0.703125 -1.546875 -0.703125q-1.0625 0 -1.625 0.703125q-0.546875 0.703125 -0.546875 2.046875l0 19.625l-6.859375 0l0 -19.625q0 -1.34375 -0.546875 -2.046875q-0.546875 -0.703125 -1.609375 -0.703125q-1.015625 0 -1.5625 0.703125q-0.546875 0.703125 -0.546875 2.046875l0 19.625l-6.921875 0l0 -29.515625zm35.240692 39.109375l0 -39.109375l7.765625 0l0 2.78125l1.78125 0q0.859375 -1.6875 2.640625 -2.609375q1.78125 -0.9375 3.9375 -0.9375q3.546875 0 6.1875 1.890625q2.640625 1.890625 4.078125 5.375q1.453125 3.484375 1.453125 8.234375q0 4.796875 -1.453125 8.28125q-1.4375 3.46875 -4.078125 5.375q-2.640625 1.890625 -6.1875 1.890625q-2.15625 0 -3.9375 -0.953125q-1.78125 -0.96875 -2.640625 -2.59375l-1.78125 0l0 12.375l-7.765625 0zm13.828125 -15.734375q3.0625 0 4.78125 -2.28125q1.734375 -2.28125 1.734375 -6.359375q0 -4.078125 -1.734375 -6.328125q-1.71875 -2.265625 -4.78125 -2.265625q-3.125 0 -4.859375 2.28125q-1.71875 2.28125 -1.71875 6.359375q0 4.078125 1.71875 6.34375q1.734375 2.25 4.859375 2.25zm45.209442 -23.375l0 29.515625l-7.78125 0l0 -2.6875l-1.765625 0q-0.96875 1.734375 -2.703125 2.671875q-1.71875 0.921875 -3.96875 0.921875q-2.9375 0 -5.0 -1.390625q-2.0625 -1.390625 -3.171875 -4.0q-1.09375 -2.625 -1.09375 -6.3125l0 -18.71875l7.765625 0l0 16.84375q0 3.125 1.25 4.734375q1.25 1.59375 3.703125 1.59375q2.5 0 3.734375 -1.59375q1.25 -1.609375 1.25 -4.734375l0 -16.84375l7.78125 0zm20.881317 -7.640625l0 7.640625l12.90625 0l0 6.90625l-12.90625 0l0 12.34375q0 2.109375 0.765625 3.1875q0.765625 1.078125 2.25 1.078125q1.546875 0 2.5 -1.296875q0.96875 -1.296875 1.53125 -4.21875l6.875 0q-0.296875 6.046875 -3.15625 9.234375q-2.84375 3.1875 -7.9375 3.1875q-5.140625 0 -7.875 -2.875q-2.734375 -2.875 -2.734375 -8.25l0 -12.390625l-5.515625 0l0 -6.90625l5.515625 0l0 -7.640625l7.78125 0zm26.537567 19.296875l16.375 0l-2.546875 2.890625q0 -4.375 -1.515625 -6.578125q-1.5 -2.21875 -4.578125 -2.21875q-3.125 0 -4.734375 2.328125q-1.609375 2.328125 -1.609375 6.515625q0 4.5 1.578125 6.828125q1.59375 2.328125 4.953125 2.328125q1.921875 0 3.375 -0.875q1.46875 -0.890625 2.53125 -2.53125l7.484375 0q-0.953125 3.21875 -2.875 5.484375q-1.921875 2.25 -4.640625 3.421875q-2.703125 1.171875 -6.0625 1.171875q-4.328125 0 -7.421875 -1.859375q-3.09375 -1.875 -4.75 -5.421875q-1.65625 -3.5625 -1.65625 -8.546875q0 -4.765625 1.703125 -8.234375q1.703125 -3.484375 4.828125 -5.375q3.125 -1.90625 7.296875 -1.90625q4.078125 0 6.953125 1.828125q2.890625 1.828125 4.4375 5.265625q1.5625 3.421875 1.5625 8.375q0 0.765625 -0.078125 1.4375q-0.0625 0.671875 -0.109375 1.25l-20.5 0l0 -5.578125zm27.803192 -11.65625l12.71875 0l0 2.6875l1.765625 0q0.828125 -1.6875 2.421875 -2.625q1.609375 -0.9375 3.625 -0.9375q3.515625 0 5.3125 2.671875q1.796875 2.65625 1.796875 7.84375l0 4.75l-7.921875 0l0 -3.734375q0 -4.03125 -2.96875 -4.03125q-1.921875 0 -2.84375 1.734375q-0.90625 1.71875 -0.90625 5.265625l0 8.984375l8.359375 0l0 6.90625l-20.796875 0l0 -6.90625l4.953125 0l0 -15.703125l-5.515625 0l0 -6.90625z" fill-rule="nonzero"/><path fill="#2f3052" d="m53.95013 987.5381l0 0c0 -24.95288 20.228268 -45.181152 45.181103 -45.181152l166.36221 0l0 0c11.982788 0 23.474762 4.760132 31.947876 13.233276c8.4730835 8.4730835 13.233215 19.965088 13.233215 31.947876l0 0l0 0c0 24.95282 -20.228271 45.18103 -45.18109 45.18103l-166.36221 0c-24.952835 0 -45.181103 -20.22821 -45.181103 -45.18103z" fill-rule="evenodd"/><path stroke="#e1e485" stroke-width="8.0" stroke-linejoin="round" stroke-linecap="butt" d="m53.95013 987.5381l0 0c0 -24.95288 20.228268 -45.181152 45.181103 -45.181152l166.36221 0l0 0c11.982788 0 23.474762 4.760132 31.947876 13.233276c8.4730835 8.4730835 13.233215 19.965088 13.233215 31.947876l0 0l0 0c0 24.95282 -20.228271 45.18103 -45.18109 45.18103l-166.36221 0c-24.952835 0 -45.181103 -20.22821 -45.181103 -45.18103z" fill-rule="evenodd"/><path fill="#e1e485" d="m130.14345 1012.24304l0 -8.109375l3.546875 0l0 1.96875l11.609375 2.109375l0 6.921875l-15.15625 -2.890625zm1.765625 -6.71875q-7.4374924 0 -11.281242 -5.078125q-3.828125 -5.09375 -3.828125 -15.03125q0 -9.9375 3.828125 -15.015625q3.84375 -5.09375 11.281242 -5.09375q7.4375 0 11.28125 5.09375q3.84375 5.078125 3.84375 15.015625q0 9.9375 -3.84375 15.03125q-3.84375 5.078125 -11.28125 5.078125zm0 -7.390625q3.5625 0 5.28125 -3.140625q1.734375 -3.140625 1.734375 -9.578125q0 -6.421875 -1.734375 -9.5625q-1.71875 -3.15625 -5.28125 -3.15625q-3.546875 0 -5.2812424 3.15625q-1.71875 3.140625 -1.71875 9.5625q0 6.4375 1.71875 9.578125q1.7343674 3.140625 5.2812424 3.140625zm33.412567 -30.671875l0 7.640625l12.90625 0l0 6.90625l-12.90625 0l0 12.34375q0 2.109375 0.765625 3.1875q0.765625 1.078125 2.25 1.078125q1.546875 0 2.5 -1.296875q0.96875 -1.296875 1.53125 -4.21875l6.875 0q-0.296875 6.046875 -3.15625 9.234375q-2.84375 3.1875 -7.9375 3.1875q-5.140625 0 -7.875 -2.875q-2.734375 -2.875 -2.734375 -8.25l0 -12.390625l-5.515625 0l0 -6.90625l5.515625 0l0 -7.640625l7.78125 0zm26.537567 19.296875l16.375015 0l-2.546875 2.890625q0 -4.375 -1.515625 -6.578125q-1.5 -2.21875 -4.578125 -2.21875q-3.125 0 -4.7343903 2.328125q-1.609375 2.328125 -1.609375 6.515625q0 4.5 1.578125 6.828125q1.5937653 2.328125 4.9531403 2.328125q1.921875 0 3.375 -0.875q1.46875 -0.890625 2.53125 -2.53125l7.484375 0q-0.953125 3.21875 -2.875 5.484375q-1.921875 2.25 -4.640625 3.421875q-2.703125 1.171875 -6.0625 1.171875q-4.328125 0 -7.4218903 -1.859375q-3.09375 -1.875 -4.75 -5.421875q-1.65625 -3.5625 -1.65625 -8.546875q0 -4.765625 1.703125 -8.234375q1.703125 -3.484375 4.828125 -5.375q3.1250153 -1.90625 7.2968903 -1.90625q4.078125 0 6.953125 1.828125q2.890625 1.828125 4.4375 5.265625q1.5625 3.421875 1.5625 8.375q0 0.765625 -0.078125 1.4375q-0.0625 0.671875 -0.109375 1.25l-20.500015 0l0 -5.578125zm27.803207 -11.65625l12.71875 0l0 2.6875l1.765625 0q0.828125 -1.6875 2.421875 -2.625q1.609375 -0.9375 3.625 -0.9375q3.515625 0 5.3125 2.671875q1.796875 2.65625 1.796875 7.84375l0 4.75l-7.921875 0l0 -3.734375q0 -4.03125 -2.96875 -4.03125q-1.921875 0 -2.84375 1.734375q-0.90625 1.71875 -0.90625 5.265625l0 8.984375l8.359375 0l0 6.90625l-20.796875 0l0 -6.90625l4.953125 0l0 -15.703125l-5.515625 0l0 -6.90625z" fill-rule="nonzero"/><path fill="#000000" fill-opacity="0.0" d="m237.70094 666.24l0 241.55304l193.79329 -0.3109131l-0.40567017 -171.22272l-69.041595 -70.174866z" fill-rule="evenodd"/><path stroke="#e1e485" stroke-width="16.0" stroke-linejoin="round" stroke-linecap="butt" d="m237.70094 666.24l0 241.55304l193.79329 -0.3109131l-0.40567017 -171.22272l-69.041595 -70.174866z" fill-rule="evenodd"/><path fill="#424374" d="m361.28934 737.0548l0 -71.10553l70.19269 71.10553z" fill-rule="evenodd"/><path stroke="#e1e485" stroke-width="16.0" stroke-linejoin="round" stroke-linecap="butt" d="m361.28934 737.0548l0 -71.10553l70.19269 71.10553z" fill-rule="evenodd"/><path fill="#000000" fill-opacity="0.0" d="m227.91339 747.2402l216.6614 0l0 112.97638l-216.6614 0z" fill-rule="evenodd"/><path fill="#e1e485" d="m280.25674 823.5221q-3.265625 0 -5.0 -1.765625q-1.71875 -1.765625 -1.71875 -5.015625q0 -3.25 1.71875 -4.984375q1.734375 -1.734375 5.0 -1.734375q3.25 0 4.984375 1.734375q1.734375 1.734375 1.734375 4.984375q0 3.25 -1.734375 5.015625q-1.734375 1.765625 -4.984375 1.765625zm43.032745 10.078125l0 -13.765625l-1.984375 0q-0.953125 1.8125 -2.9375 2.890625q-1.96875 1.0625 -4.359375 1.0625q-3.953125 0 -6.890625 -2.109375q-2.921875 -2.109375 -4.53125 -5.96875q-1.59375 -3.875 -1.59375 -9.15625q0 -5.328125 1.59375 -9.1875q1.609375 -3.875 4.53125 -5.984375q2.9375 -2.109375 6.890625 -2.109375q2.390625 0 4.359375 1.046875q1.984375 1.046875 2.9375 2.90625l1.984375 0l0 -3.09375l8.640625 0l0 43.46875l-8.640625 0zm-6.71875 -17.5q3.46875 0 5.375 -2.53125q1.921875 -2.53125 1.921875 -7.0625q0 -4.53125 -1.921875 -7.03125q-1.90625 -2.515625 -5.375 -2.515625q-3.421875 0 -5.34375 2.53125q-1.90625 2.53125 -1.90625 7.0625q0 4.53125 1.90625 7.046875q1.921875 2.5 5.34375 2.5zm44.251495 -13.921875l0 6.453125l-7.828125 1.171875q-1.71875 0.265625 -2.65625 1.203125q-0.921875 0.9375 -0.921875 2.328125q0 1.484375 0.984375 2.375q0.984375 0.875 2.859375 0.875q1.96875 0 3.53125 -0.84375q1.578125 -0.859375 2.515625 -2.265625q0.9375 -1.421875 0.9375 -3.125l0 -8.21875q0 -2.71875 -1.421875 -4.125q-1.40625 -1.421875 -4.28125 -1.421875q-1.921875 0 -3.421875 0.640625q-1.484375 0.640625 -2.390625 1.84375q-0.90625 1.1875 -1.234375 2.90625l-8.3125 0q0.375 -4.0 2.34375 -6.875q1.96875 -2.890625 5.296875 -4.4375q3.34375 -1.546875 7.765625 -1.546875q6.828125 0 10.453125 3.171875q3.625 3.171875 3.625 9.203125l0 21.4375l-8.421875 0l0 -3.25l-1.96875 0q-0.96875 1.96875 -2.78125 3.015625q-1.8125 1.03125 -4.6875 1.03125q-2.984375 0 -5.28125 -1.1875q-2.296875 -1.203125 -3.578125 -3.359375q-1.28125 -2.171875 -1.28125 -5.0q0 -4.3125 2.6875 -6.96875q2.703125 -2.671875 7.765625 -3.484375l9.703125 -1.546875zm31.20462 -20.53125l0 8.484375l14.34375 0l0 7.671875l-14.34375 0l0 13.71875q0 2.34375 0.84375 3.546875q0.859375 1.1875 2.515625 1.1875q1.703125 0 2.765625 -1.4375q1.078125 -1.4375 1.71875 -4.6875l7.625 0q-0.328125 6.71875 -3.5 10.265625q-3.171875 3.546875 -8.828125 3.546875q-5.703125 0 -8.75 -3.203125q-3.03125 -3.203125 -3.03125 -9.171875l0 -13.765625l-6.140625 0l0 -7.671875l6.140625 0l0 -8.484375l8.640625 0z" fill-rule="nonzero"/><path fill="#000000" fill-opacity="0.0" d="m862.57495 163.66257l0 241.55301l193.79333 -0.31088257l-0.40576172 -171.22272l-69.041565 -70.174866z" fill-rule="evenodd"/><path stroke="#d8d9ff" stroke-width="16.0" stroke-linejoin="round" stroke-linecap="butt" d="m862.57495 163.66257l0 241.55301l193.79333 -0.31088257l-0.40576172 -171.22272l-69.041565 -70.174866z" fill-rule="evenodd"/><path fill="#424374" d="m986.1633 234.47742l0 -71.105576l70.19275 71.105576z" fill-rule="evenodd"/><path stroke="#d8d9ff" stroke-width="16.0" stroke-linejoin="round" stroke-linecap="butt" d="m986.1633 234.47742l0 -71.105576l70.19275 71.105576z" fill-rule="evenodd"/><path fill="#000000" fill-opacity="0.0" d="m852.80316 235.80595l216.62994 0l0 112.976364l-216.62994 0z" fill-rule="evenodd"/><path fill="#d8d9ff" d="m905.13074 312.0879q-3.265625 0 -5.0 -1.765625q-1.71875 -1.765625 -1.71875 -5.015625q0 -3.25 1.71875 -4.984375q1.734375 -1.734375 5.0 -1.734375q3.25 0 4.984375 1.734375q1.734375 1.734375 1.734375 4.984375q0 3.25 -1.734375 5.015625q-1.734375 1.765625 -4.984375 1.765625zm29.26715 -20.4375l18.1875 0l-2.828125 3.203125q0 -4.84375 -1.6875 -7.296875q-1.671875 -2.453125 -5.078125 -2.453125q-3.46875 0 -5.265625 2.59375q-1.78125 2.578125 -1.78125 7.21875q0 5.0 1.75 7.59375q1.765625 2.578125 5.5 2.578125q2.140625 0 3.765625 -0.984375q1.625 -0.984375 2.796875 -2.796875l8.328125 0q-1.078125 3.578125 -3.21875 6.09375q-2.125 2.5 -5.140625 3.8125q-3.0 1.296875 -6.734375 1.296875q-4.796875 0 -8.25 -2.078125q-3.4375 -2.078125 -5.28125 -6.015625q-1.828125 -3.953125 -1.828125 -9.5q0 -5.28125 1.890625 -9.140625q1.890625 -3.875 5.359375 -5.984375q3.46875 -2.109375 8.109375 -2.109375q4.53125 0 7.71875 2.03125q3.203125 2.03125 4.9375 5.84375q1.734375 3.8125 1.734375 9.296875q0 0.859375 -0.078125 1.609375q-0.078125 0.734375 -0.125 1.375l-22.78125 0l0 -6.1875zm29.86084 19.84375l8.59375 -15.734375l-9.234375 -17.0625l9.34375 0l5.96875 11.09375l0.578125 2.125l0.921875 0l0.53125 -2.125l6.1875 -11.09375l8.796875 0l-9.28125 16.640625l8.640625 16.15625l-9.5 0l-5.28125 -9.8125l-0.53125 -2.140625l-0.90625 0l-0.53125 2.140625l-5.328125 9.8125l-8.96875 0zm44.7984 -19.84375l18.1875 0l-2.828125 3.203125q0 -4.84375 -1.6875 -7.296875q-1.671875 -2.453125 -5.078125 -2.453125q-3.46875 0 -5.265625 2.59375q-1.78125 2.578125 -1.78125 7.21875q0 5.0 1.75 7.59375q1.765625 2.578125 5.5 2.578125q2.140625 0 3.765625 -0.984375q1.625 -0.984375 2.796875 -2.796875l8.328125 0q-1.078125 3.578125 -3.21875 6.09375q-2.125 2.5 -5.140625 3.8125q-3.0 1.296875 -6.734375 1.296875q-4.796875 0 -8.25 -2.078125q-3.4375 -2.078125 -5.28125 -6.015625q-1.828125 -3.953125 -1.828125 -9.5q0 -5.28125 1.890625 -9.140625q1.890625 -3.875 5.359375 -5.984375q3.46875 -2.109375 8.109375 -2.109375q4.53125 0 7.71875 2.03125q3.203125 2.03125 4.9375 5.84375q1.734375 3.8125 1.734375 9.296875q0 0.859375 -0.078125 1.609375q-0.078125 0.734375 -0.125 1.375l-22.78125 0l0 -6.1875z" fill-rule="nonzero"/><path fill="#000000" fill-opacity="0.0" d="m862.57495 675.09827l0 241.55304l193.79333 -0.3109131l-0.40576172 -171.22272l-69.041565 -70.174866z" fill-rule="evenodd"/><path stroke="#e1e485" stroke-width="16.0" stroke-linejoin="round" stroke-linecap="butt" d="m862.57495 675.09827l0 241.55304l193.79333 -0.3109131l-0.40576172 -171.22272l-69.041565 -70.174866z" fill-rule="evenodd"/><path fill="#424374" d="m986.1633 745.9131l0 -71.10553l70.19275 71.10553z" fill-rule="evenodd"/><path stroke="#e1e485" stroke-width="16.0" stroke-linejoin="round" stroke-linecap="butt" d="m986.1633 745.9131l0 -71.10553l70.19275 71.10553z" fill-rule="evenodd"/><path fill="#000000" fill-opacity="0.0" d="m852.7874 756.09845l216.66144 0l0 112.97638l-216.66144 0z" fill-rule="evenodd"/><path fill="#e1e485" d="m942.4604 832.3804q-3.265625 0 -5.0 -1.765625q-1.71875 -1.765625 -1.71875 -5.015625q0 -3.25 1.71875 -4.984375q1.734375 -1.734375 5.0 -1.734375q3.25 0 4.984375 1.734375q1.734375 1.734375 1.734375 4.984375q0 3.25 -1.734375 5.015625q-1.734375 1.765625 -4.984375 1.765625zm43.032715 10.078125l0 -13.765625l-1.984375 0q-0.953125 1.8125 -2.9375 2.890625q-1.96875 1.0625 -4.359375 1.0625q-3.953125 0 -6.890625 -2.109375q-2.921875 -2.109375 -4.53125 -5.96875q-1.59375 -3.875 -1.59375 -9.15625q0 -5.328125 1.59375 -9.1875q1.609375 -3.875 4.53125 -5.984375q2.9375 -2.109375 6.890625 -2.109375q2.390625 0 4.359375 1.046875q1.984375 1.046875 2.9375 2.90625l1.984375 0l0 -3.09375l8.640625 0l0 43.46875l-8.640625 0zm-6.71875 -17.5q3.46875 0 5.375 -2.53125q1.921875 -2.53125 1.921875 -7.0625q0 -4.53125 -1.921875 -7.03125q-1.90625 -2.515625 -5.375 -2.515625q-3.421875 0 -5.34375 2.53125q-1.90625 2.53125 -1.90625 7.0625q0 4.53125 1.90625 7.046875q1.921875 2.5 5.34375 2.5z" fill-rule="nonzero"/><path fill="#000000" fill-opacity="0.0" d="m1127.635 325.95178l258.48816 0" fill-rule="evenodd"/><path stroke="#d8d9ff" stroke-width="8.0" stroke-linejoin="round" stroke-linecap="butt" d="m1127.635 325.95178l210.48816 0" fill-rule="evenodd"/><path fill="#d8d9ff" stroke="#d8d9ff" stroke-width="8.0" stroke-linecap="butt" d="m1338.1232 339.16565l36.30481 -13.213867l-36.30481 -13.213837z" fill-rule="evenodd"/><path fill="#000000" fill-opacity="0.0" d="m1075.997 179.37148l366.8977 0l0 112.976364l-366.8977 0z" fill-rule="evenodd"/><path fill="#d8d9ff" d="m1147.0331 253.13966l0 -38.40625l25.09375 0l0 7.015625l-16.984375 0l0 8.828125l14.59375 0l0 6.8125l-14.59375 0l0 8.734375l16.515625 0l0 7.015625l-24.625 0zm31.240723 0l7.734375 -14.15625l-8.3125 -15.359375l8.40625 0l5.375 9.984375l0.53125 1.921875l0.8125 0l0.484375 -1.921875l5.5625 -9.984375l7.921875 0l-8.359375 14.96875l7.78125 14.546875l-8.546875 0l-4.75 -8.828125l-0.484375 -1.921875l-0.8125 0l-0.46875 1.921875l-4.8125 8.828125l-8.0625 0zm40.318848 -17.859375l16.375 0l-2.546875 2.890625q0 -4.375 -1.515625 -6.578125q-1.5 -2.21875 -4.578125 -2.21875q-3.125 0 -4.734375 2.328125q-1.609375 2.328125 -1.609375 6.515625q0 4.5 1.578125 6.828125q1.59375 2.328125 4.953125 2.328125q1.921875 0 3.375 -0.875q1.46875 -0.890625 2.53125 -2.53125l7.484375 0q-0.953125 3.21875 -2.875 5.484375q-1.921875 2.25 -4.640625 3.421875q-2.703125 1.171875 -6.0625 1.171875q-4.328125 0 -7.421875 -1.859375q-3.09375 -1.875 -4.75 -5.421875q-1.65625 -3.5625 -1.65625 -8.546875q0 -4.765625 1.703125 -8.234375q1.703125 -3.484375 4.828125 -5.375q3.125 -1.90625 7.296875 -1.90625q4.078125 0 6.953125 1.828125q2.890625 1.828125 4.4375 5.265625q1.5625 3.421875 1.5625 8.375q0 0.765625 -0.078125 1.4375q-0.0625 0.671875 -0.109375 1.25l-20.5 0l0 -5.578125zm41.662476 18.765625q-4.265625 0 -7.46875 -1.890625q-3.1875 -1.890625 -4.890625 -5.375q-1.703125 -3.484375 -1.703125 -8.234375q0 -4.890625 1.75 -8.421875q1.765625 -3.53125 4.96875 -5.46875q3.21875 -1.953125 7.59375 -1.953125q3.9375 0 6.828125 1.609375q2.90625 1.609375 4.578125 4.546875q1.6875 2.921875 1.84375 6.90625l-6.96875 0q-0.625 -2.921875 -2.265625 -4.53125q-1.625 -1.609375 -4.0625 -1.609375q-3.171875 0 -4.96875 2.328125q-1.796875 2.328125 -1.796875 6.59375q0 4.078125 1.75 6.34375q1.75 2.25 4.8125 2.25q2.171875 0 3.671875 -1.34375q1.515625 -1.34375 2.234375 -3.796875l7.015625 0q-0.296875 3.703125 -2.0 6.421875q-1.703125 2.703125 -4.515625 4.171875q-2.796875 1.453125 -6.40625 1.453125zm45.318848 -30.421875l0 29.515625l-7.78125 0l0 -2.6875l-1.765625 0q-0.96875 1.734375 -2.703125 2.671875q-1.71875 0.921875 -3.96875 0.921875q-2.9375 0 -5.0 -1.390625q-2.0625 -1.390625 -3.171875 -4.0q-1.09375 -2.625 -1.09375 -6.3125l0 -18.71875l7.765625 0l0 16.84375q0 3.125 1.25 4.734375q1.25 1.59375 3.703125 1.59375q2.5 0 3.734375 -1.59375q1.25 -1.609375 1.25 -4.734375l0 -16.84375l7.78125 0zm20.881348 -7.640625l0 7.640625l12.90625 0l0 6.90625l-12.90625 0l0 12.34375q0 2.109375 0.765625 3.1875q0.765625 1.078125 2.25 1.078125q1.546875 0 2.5 -1.296875q0.96875 -1.296875 1.53125 -4.21875l6.875 0q-0.296875 6.046875 -3.15625 9.234375q-2.84375 3.1875 -7.9375 3.1875q-5.140625 0 -7.875 -2.875q-2.734375 -2.875 -2.734375 -8.25l0 -12.390625l-5.515625 0l0 -6.90625l5.515625 0l0 -7.640625l7.78125 0zm26.537476 19.296875l16.375 0l-2.546875 2.890625q0 -4.375 -1.515625 -6.578125q-1.5 -2.21875 -4.578125 -2.21875q-3.125 0 -4.734375 2.328125q-1.609375 2.328125 -1.609375 6.515625q0 4.5 1.578125 6.828125q1.59375 2.328125 4.953125 2.328125q1.921875 0 3.375 -0.875q1.46875 -0.890625 2.53125 -2.53125l7.484375 0q-0.953125 3.21875 -2.875 5.484375q-1.921875 2.25 -4.640625 3.421875q-2.703125 1.171875 -6.0625 1.171875q-4.328125 0 -7.421875 -1.859375q-3.09375 -1.875 -4.75 -5.421875q-1.65625 -3.5625 -1.65625 -8.546875q0 -4.765625 1.703125 -8.234375q1.703125 -3.484375 4.828125 -5.375q3.125 -1.90625 7.296875 -1.90625q4.078125 0 6.953125 1.828125q2.890625 1.828125 4.4375 5.265625q1.5625 3.421875 1.5625 8.375q0 0.765625 -0.078125 1.4375q-0.0625 0.671875 -0.109375 1.25l-20.5 0l0 -5.578125z" fill-rule="nonzero"/><path fill="#000000" fill-opacity="0.0" d="m516.8712 860.2182l258.48816 0" fill-rule="evenodd"/><path stroke="#e1e485" stroke-width="8.0" stroke-linejoin="round" stroke-linecap="butt" d="m516.8712 860.2182l210.48822 0" fill-rule="evenodd"/><path fill="#e1e485" stroke="#e1e485" stroke-width="8.0" stroke-linecap="butt" d="m727.35944 873.432l36.30475 -13.213806l-36.30475 -13.213867z" fill-rule="evenodd"/><path fill="#000000" fill-opacity="0.0" d="m465.23322 697.6379l366.89764 0l0 112.97638l-366.89764 0z" fill-rule="evenodd"/><path fill="#e1e485" d="m613.3132 750.2311l0 -8.109375l3.546875 0l0 1.96875l11.609375 2.109375l0 6.921875l-15.15625 -2.890625zm1.765625 -6.71875q-7.4375 0 -11.28125 -5.078125q-3.828125 -5.09375 -3.828125 -15.03125q0 -9.9375 3.828125 -15.015625q3.84375 -5.09375 11.28125 -5.09375q7.4375 0 11.28125 5.09375q3.84375 5.078125 3.84375 15.015625q0 9.9375 -3.84375 15.03125q-3.84375 5.078125 -11.28125 5.078125zm0 -7.390625q3.5625 0 5.28125 -3.140625q1.734375 -3.140625 1.734375 -9.578125q0 -6.421875 -1.734375 -9.5625q-1.71875 -3.15625 -5.28125 -3.15625q-3.546875 0 -5.28125 3.15625q-1.71875 3.140625 -1.71875 9.5625q0 6.4375 1.71875 9.578125q1.734375 3.140625 5.28125 3.140625zm18.193848 6.484375l8.640625 -38.40625l13.53125 0l8.640625 38.40625l-8.15625 0l-7.0625 -32.5l-0.8125 0l-7.140625 32.5l-7.640625 0zm6.390625 -11.234375l0 -7.671875l18.046875 0l0 7.671875l-18.046875 0zm38.58441 11.234375l0 -30.71875l-10.890625 0l0 -7.6875l29.859375 0l0 7.6875l-10.90625 0l0 30.71875l-8.0625 0z" fill-rule="nonzero"/><path fill="#e1e485" d="m531.75055 801.1123q-7.203125 0 -10.953125 -5.078125q-3.734375 -5.09375 -3.734375 -15.03125q0 -9.9375 3.84375 -15.015625q3.84375 -5.09375 11.28125 -5.09375q4.171875 0 7.1875 1.734375q3.03125 1.71875 4.78125 5.03125q1.75 3.3125 2.0 8.015625l-7.390625 0q-0.71875 -3.6875 -2.328125 -5.53125q-1.609375 -1.859375 -4.25 -1.859375q-3.546875 0 -5.28125 3.15625q-1.734375 3.140625 -1.734375 9.5625q0 6.4375 1.625 9.578125q1.640625 3.140625 4.953125 3.140625q2.453125 0 4.015625 -1.71875q1.5625 -1.734375 2.28125 -5.140625l7.390625 0q-0.296875 4.515625 -2.03125 7.703125q-1.71875 3.1875 -4.671875 4.875q-2.953125 1.671875 -6.984375 1.671875zm32.92816 0q-4.3125 0 -7.484375 -1.90625q-3.171875 -1.921875 -4.90625 -5.421875q-1.71875 -3.515625 -1.71875 -8.3125q0 -4.84375 1.71875 -8.34375q1.734375 -3.515625 4.90625 -5.4375q3.171875 -1.921875 7.484375 -1.921875q4.328125 0 7.484375 1.921875q3.171875 1.921875 4.890625 5.4375q1.734375 3.5 1.734375 8.34375q0 4.796875 -1.734375 8.3125q-1.71875 3.5 -4.859375 5.421875q-3.140625 1.90625 -7.515625 1.90625zm0 -6.90625q3.171875 0 4.890625 -2.296875q1.734375 -2.3125 1.734375 -6.4375q0 -4.171875 -1.734375 -6.46875q-1.71875 -2.3125 -4.890625 -2.3125q-3.109375 0 -4.875 2.3125q-1.75 2.296875 -1.75 6.46875q0 4.125 1.75 6.4375q1.765625 2.296875 4.875 2.296875zm19.053223 -23.515625l7.453125 0l0 3.0625l4.359375 0l-3.078125 2.265625q0.109375 -3.03125 1.375 -4.640625q1.265625 -1.609375 3.484375 -1.609375q2.0625 0 3.28125 1.640625q1.234375 1.625 1.375 4.75l-2.640625 -2.3125l6.71875 0l-3.125 2.171875q0.09375 -3.03125 1.40625 -4.640625q1.328125 -1.609375 3.59375 -1.609375q2.390625 0 3.703125 2.046875q1.328125 2.03125 1.328125 5.78125l0 22.609375l-6.90625 0l0 -19.625q0 -1.34375 -0.5625 -2.046875q-0.546875 -0.703125 -1.546875 -0.703125q-1.0625 0 -1.625 0.703125q-0.546875 0.703125 -0.546875 2.046875l0 19.625l-6.859375 0l0 -19.625q0 -1.34375 -0.546875 -2.046875q-0.546875 -0.703125 -1.609375 -0.703125q-1.015625 0 -1.5625 0.703125q-0.546875 0.703125 -0.546875 2.046875l0 19.625l-6.921875 0l0 -29.515625zm35.24066 39.109375l0 -39.109375l7.765625 0l0 2.78125l1.78125 0q0.859375 -1.6875 2.640625 -2.609375q1.78125 -0.9375 3.9375 -0.9375q3.546875 0 6.1875 1.890625q2.640625 1.890625 4.078125 5.375q1.453125 3.484375 1.453125 8.234375q0 4.796875 -1.453125 8.28125q-1.4375 3.46875 -4.078125 5.375q-2.640625 1.890625 -6.1875 1.890625q-2.15625 0 -3.9375 -0.953125q-1.78125 -0.96875 -2.640625 -2.59375l-1.78125 0l0 12.375l-7.765625 0zm13.828125 -15.734375q3.0625 0 4.78125 -2.28125q1.734375 -2.28125 1.734375 -6.359375q0 -4.078125 -1.734375 -6.328125q-1.71875 -2.265625 -4.78125 -2.265625q-3.125 0 -4.859375 2.28125q-1.71875 2.28125 -1.71875 6.359375q0 4.078125 1.71875 6.34375q1.734375 2.25 4.859375 2.25zm21.834473 -23.375l16.421875 0l0 22.609375l8.6875 0l0 6.90625l-25.109375 0l0 -6.90625l8.640625 0l0 -15.703125l-8.640625 0l0 -6.90625zm12.140625 -3.515625q-2.34375 0 -3.640625 -1.1875q-1.296875 -1.203125 -1.296875 -3.40625q0 -2.21875 1.296875 -3.40625q1.296875 -1.203125 3.640625 -1.203125q2.40625 0 3.671875 1.203125q1.28125 1.1875 1.28125 3.40625q0 2.203125 -1.28125 3.40625q-1.265625 1.1875 -3.671875 1.1875zm20.600037 -7.671875l16.453125 0l0 33.796875l8.640625 0l0 6.90625l-25.09375 0l0 -6.90625l8.6875 0l0 -26.890625l-8.6875 0l0 -6.90625zm38.053223 22.84375l16.375 0l-2.546875 2.890625q0 -4.375 -1.515625 -6.578125q-1.5 -2.21875 -4.578125 -2.21875q-3.125 0 -4.734375 2.328125q-1.609375 2.328125 -1.609375 6.515625q0 4.5 1.578125 6.828125q1.59375 2.328125 4.953125 2.328125q1.921875 0 3.375 -0.875q1.46875 -0.890625 2.53125 -2.53125l7.484375 0q-0.953125 3.21875 -2.875 5.484375q-1.921875 2.25 -4.640625 3.421875q-2.703125 1.171875 -6.0625 1.171875q-4.328125 0 -7.421875 -1.859375q-3.09375 -1.875 -4.75 -5.421875q-1.65625 -3.5625 -1.65625 -8.546875q0 -4.765625 1.703125 -8.234375q1.703125 -3.484375 4.828125 -5.375q3.125 -1.90625 7.296875 -1.90625q4.078125 0 6.953125 1.828125q2.890625 1.828125 4.4375 5.265625q1.5625 3.421875 1.5625 8.375q0 0.765625 -0.078125 1.4375q-0.0625 0.671875 -0.109375 1.25l-20.5 0l0 -5.578125zm27.803162 -11.65625l12.71875 0l0 2.6875l1.765625 0q0.828125 -1.6875 2.421875 -2.625q1.609375 -0.9375 3.625 -0.9375q3.515625 0 5.3125 2.671875q1.796875 2.65625 1.796875 7.84375l0 4.75l-7.921875 0l0 -3.734375q0 -4.03125 -2.96875 -4.03125q-1.921875 0 -2.84375 1.734375q-0.90625 1.71875 -0.90625 5.265625l0 8.984375l8.359375 0l0 6.90625l-20.796875 0l0 -6.90625l4.953125 0l0 -15.703125l-5.515625 0l0 -6.90625z" fill-rule="nonzero"/><path fill="#000000" fill-opacity="0.0" d="m1125.068 868.16174l258.48828 0" fill-rule="evenodd"/><path stroke="#e1e485" stroke-width="8.0" stroke-linejoin="round" stroke-linecap="butt" d="m1125.0681 868.16174l210.48816 0" fill-rule="evenodd"/><path fill="#e1e485" stroke="#e1e485" stroke-width="8.0" stroke-linecap="butt" d="m1335.5563 881.3756l36.30481 -13.213867l-36.30481 -13.213867z" fill-rule="evenodd"/><path fill="#000000" fill-opacity="0.0" d="m1073.43 721.5814l366.8977 0l0 112.97638l-366.8977 0z" fill-rule="evenodd"/><path fill="#e1e485" d="m1176.1913 795.3496l0 -38.40625l8.109375 0l0 15.46875l10.75 0l0 -15.46875l8.109375 0l0 38.40625l-8.109375 0l0 -15.265625l-10.75 0l0 15.265625l-8.109375 0zm59.6156 -29.515625l0 29.515625l-7.78125 0l0 -2.6875l-1.765625 0q-0.96875 1.734375 -2.703125 2.671875q-1.71875 0.921875 -3.96875 0.921875q-2.9375 0 -5.0 -1.390625q-2.0625 -1.390625 -3.171875 -4.0q-1.09375 -2.625 -1.09375 -6.3125l0 -18.71875l7.765625 0l0 16.84375q0 3.125 1.25 4.734375q1.25 1.59375 3.703125 1.59375q2.5 0 3.734375 -1.59375q1.25 -1.609375 1.25 -4.734375l0 -16.84375l7.78125 0zm6.5219727 0l7.453125 0l0 3.0625l4.359375 0l-3.078125 2.265625q0.109375 -3.03125 1.375 -4.640625q1.265625 -1.609375 3.484375 -1.609375q2.0625 0 3.28125 1.640625q1.234375 1.625 1.375 4.75l-2.640625 -2.3125l6.71875 0l-3.125 2.171875q0.09375 -3.03125 1.40625 -4.640625q1.328125 -1.609375 3.59375 -1.609375q2.390625 0 3.703125 2.046875q1.328125 2.03125 1.328125 5.78125l0 22.609375l-6.90625 0l0 -19.625q0 -1.34375 -0.5625 -2.046875q-0.546875 -0.703125 -1.546875 -0.703125q-1.0625 0 -1.625 0.703125q-0.546875 0.703125 -0.546875 2.046875l0 19.625l-6.859375 0l0 -19.625q0 -1.34375 -0.546875 -2.046875q-0.546875 -0.703125 -1.609375 -0.703125q-1.015625 0 -1.5625 0.703125q-0.546875 0.703125 -0.546875 2.046875l0 19.625l-6.921875 0l0 -29.515625zm53.475098 10.84375l0 5.8125l-7.046875 1.046875q-1.546875 0.25 -2.390625 1.09375q-0.828125 0.828125 -0.828125 2.078125q0 1.34375 0.875 2.140625q0.890625 0.78125 2.578125 0.78125q1.78125 0 3.1875 -0.765625q1.421875 -0.765625 2.25 -2.03125q0.84375 -1.28125 0.84375 -2.8125l0 -7.390625q0 -2.453125 -1.265625 -3.71875q-1.265625 -1.28125 -3.859375 -1.28125q-1.734375 0 -3.078125 0.578125q-1.34375 0.578125 -2.15625 1.65625q-0.8125 1.078125 -1.109375 2.625l-7.484375 0q0.328125 -3.609375 2.109375 -6.1875q1.78125 -2.59375 4.78125 -3.984375q3.0 -1.40625 6.984375 -1.40625q6.140625 0 9.40625 2.859375q3.265625 2.859375 3.265625 8.28125l0 19.296875l-7.59375 0l0 -2.921875l-1.765625 0q-0.875 1.765625 -2.5 2.703125q-1.625 0.9375 -4.21875 0.9375q-2.6875 0 -4.765625 -1.078125q-2.0625 -1.078125 -3.21875 -3.015625q-1.140625 -1.953125 -1.140625 -4.5q0 -3.890625 2.421875 -6.28125q2.421875 -2.40625 6.984375 -3.125l8.734375 -1.390625zm15.740723 18.671875l0 -29.515625l7.78125 0l0 2.6875l1.78125 0q0.953125 -1.6875 2.671875 -2.640625q1.734375 -0.96875 4.0 -0.96875q2.921875 0 4.984375 1.40625q2.0625 1.390625 3.171875 4.0q1.109375 2.609375 1.109375 6.3125l0 18.71875l-7.78125 0l0 -16.796875q0 -3.171875 -1.25 -4.78125q-1.25 -1.609375 -3.6875 -1.609375q-2.5 0 -3.75 1.609375q-1.25 1.609375 -1.25 4.78125l0 16.796875l-7.78125 0z" fill-rule="nonzero"/><path fill="#2f3052" d="m179.30446 462.46457l1559.874 0l0 132.7244l-1559.874 0z" fill-rule="evenodd"/><path fill="#424374" d="m1655.5564 533.14954l0 0c0 -14.050598 11.390259 -25.440887 25.440918 -25.440887l109.055176 0l0 0c6.7474365 0 13.218384 2.6803894 17.989502 7.4515076c4.771118 4.771057 7.451416 11.242065 7.451416 17.98938l0 4.9292603l0 0c0 14.050598 -11.390259 25.440918 -25.440918 25.440918l-109.055176 0c-14.050659 0 -25.440918 -11.39032 -25.440918 -25.440918z" fill-rule="evenodd"/><path stroke="#424374" stroke-width="12.0" stroke-linejoin="round" stroke-linecap="butt" d="m1655.5564 533.14954l0 0c0 -14.050598 11.390259 -25.440887 25.440918 -25.440887l109.055176 0l0 0c6.7474365 0 13.218384 2.6803894 17.989502 7.4515076c4.771118 4.771057 7.451416 11.242065 7.451416 17.98938l0 4.9292603l0 0c0 14.050598 -11.390259 25.440918 -25.440918 25.440918l-109.055176 0c-14.050659 0 -25.440918 -11.39032 -25.440918 -25.440918z" fill-rule="evenodd"/><path fill="#424374" d="m117.10499 533.0984l0 0c0 -14.050659 11.390282 -25.440918 25.440895 -25.440918l81.1812 0l0 0c6.747345 0 13.218338 2.6803894 17.989426 7.451477c4.771103 4.771118 7.451477 11.242065 7.451477 17.98944l0 4.929199l0 0c0 14.050659 -11.390289 25.440918 -25.440903 25.440918l-81.1812 0c-14.050613 0 -25.440895 -11.390259 -25.440895 -25.440918z" fill-rule="evenodd"/><path stroke="#424374" stroke-width="12.0" stroke-linejoin="round" stroke-linecap="butt" d="m117.10499 533.0984l0 0c0 -14.050659 11.390282 -25.440918 25.440895 -25.440918l81.1812 0l0 0c6.747345 0 13.218338 2.6803894 17.989426 7.451477c4.771103 4.771118 7.451477 11.242065 7.451477 17.98944l0 4.929199l0 0c0 14.050659 -11.390289 25.440918 -25.440903 25.440918l-81.1812 0c-14.050613 0 -25.440895 -11.390259 -25.440895 -25.440918z" fill-rule="evenodd"/><path fill="#424374" d="m401.03674 533.09705l0 0c0 -14.050598 11.390289 -25.440887 25.440887 -25.440887l436.96072 0c6.7473755 0 13.218323 2.6803894 17.98944 7.4514465c4.771118 4.771118 7.451477 11.242126 7.451477 17.98944l0 4.9292603l0 0c0 14.050598 -11.390259 25.440857 -25.440918 25.440857l-436.96072 0c-14.050598 0 -25.440887 -11.390259 -25.440887 -25.440857z" fill-rule="evenodd"/><path stroke="#424374" stroke-width="12.0" stroke-linejoin="round" stroke-linecap="butt" d="m401.03674 533.09705l0 0c0 -14.050598 11.390289 -25.440887 25.440887 -25.440887l436.96072 0c6.7473755 0 13.218323 2.6803894 17.98944 7.4514465c4.771118 4.771118 7.451477 11.242126 7.451477 17.98944l0 4.9292603l0 0c0 14.050598 -11.390259 25.440857 -25.440918 25.440857l-436.96072 0c-14.050598 0 -25.440887 -11.390259 -25.440887 -25.440857z" fill-rule="evenodd"/><path fill="#424374" d="m1030.5564 533.0997l0 0c0 -14.050598 11.390259 -25.440887 25.440918 -25.440887l421.93713 0c6.7473145 0 13.218262 2.6803894 17.98938 7.4514465c4.771118 4.771118 7.451538 11.242126 7.451538 17.98944l0 4.9292603l0 0c0 14.050598 -11.390259 25.440857 -25.440918 25.440857l-421.93713 0c-14.050659 0 -25.440918 -11.390259 -25.440918 -25.440857z" fill-rule="evenodd"/><path stroke="#424374" stroke-width="12.0" stroke-linejoin="round" stroke-linecap="butt" d="m1030.5564 533.0997l0 0c0 -14.050598 11.390259 -25.440887 25.440918 -25.440887l421.93713 0c6.7473145 0 13.218262 2.6803894 17.98938 7.4514465c4.771118 4.771118 7.451538 11.242126 7.451538 17.98944l0 4.9292603l0 0c0 14.050598 -11.390259 25.440857 -25.440918 25.440857l-421.93713 0c-14.050659 0 -25.440918 -11.390259 -25.440918 -25.440857z" fill-rule="evenodd"/></g></svg>