<svg version="1.1" viewBox="0.0 0.0 720.0 1080.0" fill="none" stroke="none" stroke-linecap="square" stroke-miterlimit="10" xmlns:xlink="http://www.w3.org/1999/xlink" xmlns="http://www.w3.org/2000/svg"><clipPath id="p.0"><path d="m0 0l720.0 0l0 1080.0l-720.0 0l0 -1080.0z" clip-rule="nonzero"/></clipPath><g clip-path="url(#p.0)"><path fill="#000000" fill-opacity="0.0" d="m0 0l720.0 0l0 1080.0l-720.0 0z" fill-rule="evenodd"/><path fill="#424374" d="m-6.115485E-5 0.30971128l720.0 0l0 1080.0l-720.0 0z" fill-rule="evenodd"/><path fill="#2f3052" d="m286.2321 39.515747l0 0c28.081573 0 50.84616 22.764603 50.84616 50.84616l0 898.6542c0 13.4852295 -5.356964 26.418152 -14.892487 35.953674c-9.535492 9.535522 -22.468414 14.892456 -35.953674 14.892456l-203.37854 0c-28.081558 0 -50.84616 -22.764587 -50.84616 -50.84613l0 -898.6542c0 -28.081558 22.764603 -50.84616 50.84616 -50.84616z" fill-rule="evenodd"/><path fill="#2f3052" d="m637.14594 40.137653l0 0c28.081604 0 50.84619 22.764603 50.84619 50.846165l0 898.6541c0 13.4852295 -5.3569946 26.418152 -14.892517 35.953735c-9.535461 9.5354 -22.468384 14.892456 -35.953674 14.892456l-203.37851 0c-28.081573 0 -50.84616 -22.764648 -50.84616 -50.84619l0 -898.6541c0 -28.081562 22.764587 -50.846165 50.84616 -50.846165z" fill-rule="evenodd"/><path fill="#000000" fill-opacity="0.0" d="m118.6086 185.27017l0 151.426l131.86801 -0.19491577l-0.27604675 -107.33696l-46.979843 -43.991577z" fill-rule="evenodd"/><path stroke="#d8d9ff" stroke-width="8.0" stroke-linejoin="round" stroke-linecap="butt" d="m118.6086 185.27017l0 151.426l131.86801 -0.19491577l-0.27604675 -107.33696l-46.979843 -43.991577z" fill-rule="evenodd"/><path fill="#424374" d="m202.70518 229.66295l0 -44.575027l47.763107 44.575027z" fill-rule="evenodd"/><path stroke="#d8d9ff" stroke-width="8.0" stroke-linejoin="round" stroke-linecap="butt" d="m202.70518 229.66295l0 -44.575027l47.763107 44.575027z" fill-rule="evenodd"/><path fill="#e1e485" d="m517.7597 833.9774l17.922363 -10.563232l17.922363 10.563232l-17.922363 10.563232z" fill-rule="evenodd"/><path stroke="#e1e485" stroke-width="3.0" stroke-linejoin="round" stroke-linecap="butt" d="m517.7597 833.9774l17.922363 -10.563232l17.922363 10.563232l-17.922363 10.563232z" fill-rule="evenodd"/><path fill="#e1e485" d="m493.51364 847.99316l17.922394 -10.563232l17.922363 10.563232l-17.922363 10.563232z" fill-rule="evenodd"/><path stroke="#e1e485" stroke-width="3.0" stroke-linejoin="round" stroke-linecap="butt" d="m493.51364 847.99316l17.922394 -10.563232l17.922363 10.563232l-17.922363 10.563232z" fill-rule="evenodd"/><path fill="#e1e485" d="m469.01712 862.91846l17.922394 -10.563232l17.922363 10.563232l-17.922363 10.563232z" fill-rule="evenodd"/><path stroke="#e1e485" stroke-width="3.0" stroke-linejoin="round" stroke-linecap="butt" d="m469.01712 862.91846l17.922394 -10.563232l17.922363 10.563232l-17.922363 10.563232z" fill-rule="evenodd"/><path fill="#e1e485" d="m543.50964 848.66815l17.922363 -10.563232l17.922363 10.563232l-17.922363 10.563232z" fill-rule="evenodd"/><path stroke="#e1e485" stroke-width="3.0" stroke-linejoin="round" stroke-linecap="butt" d="m543.50964 848.66815l17.922363 -10.563232l17.922363 10.563232l-17.922363 10.563232z" fill-rule="evenodd"/><path fill="#e1e485" d="m517.88495 863.0612l17.922363 -10.563232l17.922363 10.563232l-17.922363 10.563232z" fill-rule="evenodd"/><path stroke="#e1e485" stroke-width="3.0" stroke-linejoin="round" stroke-linecap="butt" d="m517.88495 863.0612l17.922363 -10.563232l17.922363 10.563232l-17.922363 10.563232z" fill-rule="evenodd"/><path fill="#e1e485" d="m493.38843 877.9865l17.922363 -10.563232l17.922363 10.563232l-17.922363 10.563232z" fill-rule="evenodd"/><path stroke="#e1e485" stroke-width="3.0" stroke-linejoin="round" stroke-linecap="butt" d="m493.38843 877.9865l17.922363 -10.563232l17.922363 10.563232l-17.922363 10.563232z" fill-rule="evenodd"/><path fill="#e1e485" d="m568.29474 863.2172l17.922363 -10.563232l17.922424 10.563232l-17.922424 10.563232z" fill-rule="evenodd"/><path stroke="#e1e485" stroke-width="3.0" stroke-linejoin="round" stroke-linecap="butt" d="m568.29474 863.2172l17.922363 -10.563232l17.922424 10.563232l-17.922424 10.563232z" fill-rule="evenodd"/><path fill="#e1e485" d="m543.50964 877.5317l17.922363 -10.563232l17.922363 10.563232l-17.922363 10.563293z" fill-rule="evenodd"/><path stroke="#e1e485" stroke-width="3.0" stroke-linejoin="round" stroke-linecap="butt" d="m543.50964 877.5317l17.922363 -10.563232l17.922363 10.563232l-17.922363 10.563293z" fill-rule="evenodd"/><path fill="#e1e485" d="m519.0131 892.45703l17.922363 -10.563232l17.922363 10.563232l-17.922363 10.563232z" fill-rule="evenodd"/><path stroke="#e1e485" stroke-width="3.0" stroke-linejoin="round" stroke-linecap="butt" d="m519.0131 892.45703l17.922363 -10.563232l17.922363 10.563232l-17.922363 10.563232z" fill-rule="evenodd"/><path fill="#d86f9a" d="m482.39462 961.9171l-17.962006 -10.498901l0.052612305 -21.052063l17.962006 10.49884z" fill-rule="evenodd"/><path stroke="#d86f9a" stroke-width="3.0" stroke-linejoin="round" stroke-linecap="butt" d="m482.39462 961.9171l-17.962006 -10.498901l0.052612305 -21.052063l17.962006 10.49884z" fill-rule="evenodd"/><path fill="#d86f9a" d="m506.46014 976.25757l-17.962006 -10.498901l0.052581787 -21.052063l17.962036 10.498901z" fill-rule="evenodd"/><path stroke="#d86f9a" stroke-width="3.0" stroke-linejoin="round" stroke-linecap="butt" d="m506.46014 976.25757l-17.962006 -10.498901l0.052581787 -21.052063l17.962036 10.498901z" fill-rule="evenodd"/><path fill="#d86f9a" d="m531.4264 990.36414l-17.961975 -10.498901l0.052612305 -21.052063l17.961975 10.498901z" fill-rule="evenodd"/><path stroke="#d86f9a" stroke-width="3.0" stroke-linejoin="round" stroke-linecap="butt" d="m531.4264 990.36414l-17.961975 -10.498901l0.052612305 -21.052063l17.961975 10.498901z" fill-rule="evenodd"/><path fill="#d86f9a" d="m482.05582 931.9133l-17.962036 -10.498901l0.052612305 -21.052063l17.962006 10.49884z" fill-rule="evenodd"/><path stroke="#d86f9a" stroke-width="3.0" stroke-linejoin="round" stroke-linecap="butt" d="m482.05582 931.9133l-17.962036 -10.498901l0.052612305 -21.052063l17.962006 10.49884z" fill-rule="evenodd"/><path fill="#d86f9a" d="m507.1319 947.2788l-17.962006 -10.498901l0.052581787 -21.052063l17.962036 10.49884z" fill-rule="evenodd"/><path stroke="#d86f9a" stroke-width="3.0" stroke-linejoin="round" stroke-linecap="butt" d="m507.1319 947.2788l-17.962006 -10.498901l0.052581787 -21.052063l17.962036 10.49884z" fill-rule="evenodd"/><path fill="#d86f9a" d="m532.09814 961.3854l-17.961975 -10.498901l0.052612305 -21.052063l17.961975 10.49884z" fill-rule="evenodd"/><path stroke="#d86f9a" stroke-width="3.0" stroke-linejoin="round" stroke-linecap="butt" d="m532.09814 961.3854l-17.961975 -10.498901l0.052612305 -21.052063l17.961975 10.49884z" fill-rule="evenodd"/><path fill="#d86f9a" d="m482.07828 902.8295l-17.962036 -10.498901l0.052612305 -21.052063l17.962006 10.498901z" fill-rule="evenodd"/><path stroke="#d86f9a" stroke-width="3.0" stroke-linejoin="round" stroke-linecap="butt" d="m482.07828 902.8295l-17.962036 -10.498901l0.052612305 -21.052063l17.962006 10.498901z" fill-rule="evenodd"/><path fill="#d86f9a" d="m506.66788 917.49524l-17.962036 -10.498901l0.052612305 -21.052063l17.962036 10.49884z" fill-rule="evenodd"/><path stroke="#d86f9a" stroke-width="3.0" stroke-linejoin="round" stroke-linecap="butt" d="m506.66788 917.49524l-17.962036 -10.498901l0.052612305 -21.052063l17.962036 10.49884z" fill-rule="evenodd"/><path fill="#d86f9a" d="m531.63416 931.6018l-17.962036 -10.498901l0.052612305 -21.052063l17.962036 10.49884z" fill-rule="evenodd"/><path stroke="#d86f9a" stroke-width="3.0" stroke-linejoin="round" stroke-linecap="butt" d="m531.63416 931.6018l-17.962036 -10.498901l0.052612305 -21.052063l17.962036 10.49884z" fill-rule="evenodd"/><path fill="#2cda9d" d="m609.43964 928.97064l0.034606934 21.052063l-17.96997 10.498901l-0.034606934 -21.052063z" fill-rule="evenodd"/><path stroke="#2cda9d" stroke-width="3.0" stroke-linejoin="round" stroke-linecap="butt" d="m609.43964 928.97064l0.034606934 21.052063l-17.96997 10.498901l-0.034606934 -21.052063z" fill-rule="evenodd"/><path fill="#2cda9d" d="m609.62683 900.62775l0.034606934 21.052124l-17.96997 10.49884l-0.034606934 -21.052063z" fill-rule="evenodd"/><path stroke="#2cda9d" stroke-width="3.0" stroke-linejoin="round" stroke-linecap="butt" d="m609.62683 900.62775l0.034606934 21.052124l-17.96997 10.49884l-0.034606934 -21.052063z" fill-rule="evenodd"/><path fill="#2cda9d" d="m609.1641 871.61005l0.03466797 21.052124l-17.96997 10.49884l-0.03466797 -21.052063z" fill-rule="evenodd"/><path stroke="#2cda9d" stroke-width="3.0" stroke-linejoin="round" stroke-linecap="butt" d="m609.1641 871.61005l0.03466797 21.052124l-17.96997 10.49884l-0.03466797 -21.052063z" fill-rule="evenodd"/><path fill="#2cda9d" d="m584.03546 944.29767l0.03466797 21.052063l-17.96997 10.498901l-0.03466797 -21.052124z" fill-rule="evenodd"/><path stroke="#2cda9d" stroke-width="3.0" stroke-linejoin="round" stroke-linecap="butt" d="m584.03546 944.29767l0.03466797 21.052063l-17.96997 10.498901l-0.03466797 -21.052124z" fill-rule="evenodd"/><path fill="#2cda9d" d="m584.5909 914.5528l0.03466797 21.052063l-17.96997 10.498901l-0.03466797 -21.052063z" fill-rule="evenodd"/><path stroke="#2cda9d" stroke-width="3.0" stroke-linejoin="round" stroke-linecap="butt" d="m584.5909 914.5528l0.03466797 21.052063l-17.96997 10.498901l-0.03466797 -21.052063z" fill-rule="evenodd"/><path fill="#2cda9d" d="m584.12823 885.5351l0.03466797 21.052063l-17.96997 10.498901l-0.03466797 -21.052124z" fill-rule="evenodd"/><path stroke="#2cda9d" stroke-width="3.0" stroke-linejoin="round" stroke-linecap="butt" d="m584.12823 885.5351l0.03466797 21.052063l-17.96997 10.498901l-0.03466797 -21.052124z" fill-rule="evenodd"/><path fill="#2cda9d" d="m559.2348 958.8462l0.03466797 21.052063l-17.96997 10.498901l-0.03466797 -21.052124z" fill-rule="evenodd"/><path stroke="#2cda9d" stroke-width="3.0" stroke-linejoin="round" stroke-linecap="butt" d="m559.2348 958.8462l0.03466797 21.052063l-17.96997 10.498901l-0.03466797 -21.052124z" fill-rule="evenodd"/><path fill="#2cda9d" d="m559.4371 929.8796l0.03466797 21.052063l-17.96997 10.498901l-0.03466797 -21.052063z" fill-rule="evenodd"/><path stroke="#2cda9d" stroke-width="3.0" stroke-linejoin="round" stroke-linecap="butt" d="m559.4371 929.8796l0.03466797 21.052063l-17.96997 10.498901l-0.03466797 -21.052063z" fill-rule="evenodd"/><path fill="#2cda9d" d="m558.9744 900.8619l0.03466797 21.052063l-17.96997 10.498901l-0.03466797 -21.052124z" fill-rule="evenodd"/><path stroke="#2cda9d" stroke-width="3.0" stroke-linejoin="round" stroke-linecap="butt" d="m558.9744 900.8619l0.03466797 21.052063l-17.96997 10.498901l-0.03466797 -21.052124z" fill-rule="evenodd"/><path fill="#000000" fill-opacity="0.0" d="m110.84248 233.44699l147.40157 0l0 70.897644l-147.40157 0z" fill-rule="evenodd"/><path fill="#d8d9ff" d="m173.34636 280.77518q-1.953125 0 -3.0 -1.0625q-1.03125 -1.0625 -1.03125 -3.015625q0 -1.9375 1.03125 -2.984375q1.046875 -1.046875 3.0 -1.046875q1.953125 0 2.984375 1.046875q1.046875 1.046875 1.046875 2.984375q0 1.953125 -1.046875 3.015625q-1.03125 1.0625 -2.984375 1.0625zm22.946915 0.25q-2.859375 0 -4.984375 -1.265625q-2.125 -1.265625 -3.265625 -3.578125q-1.125 -2.328125 -1.125 -5.5q0 -3.25 1.15625 -5.609375q1.171875 -2.359375 3.3125 -3.640625q2.140625 -1.296875 5.0625 -1.296875q2.625 0 4.5625 1.078125q1.9375 1.0625 3.046875 3.015625q1.125 1.953125 1.21875 4.609375l-4.640625 0q-0.40625 -1.953125 -1.5 -3.03125q-1.09375 -1.078125 -2.71875 -1.078125q-2.109375 0 -3.3125 1.5625q-1.203125 1.546875 -1.203125 4.390625q0 2.71875 1.171875 4.234375q1.171875 1.5 3.21875 1.5q1.4375 0 2.4375 -0.890625q1.015625 -0.90625 1.5 -2.53125l4.671875 0q-0.203125 2.46875 -1.34375 4.28125q-1.125 1.796875 -3.0 2.78125q-1.875 0.96875 -4.265625 0.96875z" fill-rule="nonzero"/><path fill="#000000" fill-opacity="0.0" d="m129.33693 862.1747l0 0c0 -8.312073 6.7382812 -15.050354 15.050369 -15.050354l82.67436 0c3.9916077 0 7.8197327 1.5856934 10.642227 4.408142c2.8224945 2.8225098 4.408142 6.650635 4.408142 10.642212l0 79.08649c0 8.312134 -6.7382812 15.050415 -15.050369 15.050415l-82.67436 0l0 0c-8.312088 0 -15.050369 -6.7382812 -15.050369 -15.050415z" fill-rule="evenodd"/><path stroke="#d8d9ff" stroke-width="8.0" stroke-linejoin="round" stroke-linecap="butt" d="m129.33693 862.1747l0 0c0 -8.312073 6.7382812 -15.050354 15.050369 -15.050354l82.67436 0c3.9916077 0 7.8197327 1.5856934 10.642227 4.408142c2.8224945 2.8225098 4.408142 6.650635 4.408142 10.642212l0 79.08649c0 8.312134 -6.7382812 15.050415 -15.050369 15.050415l-82.67436 0l0 0c-8.312088 0 -15.050369 -6.7382812 -15.050369 -15.050415z" fill-rule="evenodd"/><path fill="#d8d9ff" d="m146.61626 867.12897l0 0c0 -1.5063477 1.2211304 -2.727478 2.727478 -2.727478l72.75386 0c0.7233734 0 1.4171295 0.28735352 1.9286194 0.7988281c0.5115051 0.51153564 0.7988739 1.2052612 0.7988739 1.9286499l0 69.18872c0 1.5063477 -1.2211456 2.727478 -2.7274933 2.727478l-72.75386 0c-1.5063477 0 -2.727478 -1.2211304 -2.727478 -2.727478z" fill-rule="evenodd"/><path stroke="#d8d9ff" stroke-width="8.0" stroke-linejoin="round" stroke-linecap="butt" d="m146.61626 867.12897l0 0c0 -1.5063477 1.2211304 -2.727478 2.727478 -2.727478l72.75386 0c0.7233734 0 1.4171295 0.28735352 1.9286194 0.7988281c0.5115051 0.51153564 0.7988739 1.2052612 0.7988739 1.9286499l0 69.18872c0 1.5063477 -1.2211456 2.727478 -2.7274933 2.727478l-72.75386 0c-1.5063477 0 -2.727478 -1.2211304 -2.727478 -2.727478z" fill-rule="evenodd"/><path fill="#d8d9ff" d="m103.60706 860.069l0 0c0 -0.06524658 0.052886963 -0.11816406 0.118118286 -0.11816406l25.487007 0c0.031326294 0 0.06137085 0.012451172 0.08352661 0.034606934c0.022140503 0.022155762 0.034591675 0.05218506 0.034591675 0.08355713l0 2.9962769c0 0.06524658 -0.052886963 0.11810303 -0.118118286 0.11810303l-25.487007 0c-0.06523132 0 -0.118118286 -0.052856445 -0.118118286 -0.11810303z" fill-rule="evenodd"/><path stroke="#d8d9ff" stroke-width="8.0" stroke-linejoin="round" stroke-linecap="butt" d="m103.60706 860.069l0 0c0 -0.06524658 0.052886963 -0.11816406 0.118118286 -0.11816406l25.487007 0c0.031326294 0 0.06137085 0.012451172 0.08352661 0.034606934c0.022140503 0.022155762 0.034591675 0.05218506 0.034591675 0.08355713l0 2.9962769c0 0.06524658 -0.052886963 0.11810303 -0.118118286 0.11810303l-25.487007 0c-0.06523132 0 -0.118118286 -0.052856445 -0.118118286 -0.11810303z" fill-rule="evenodd"/><path fill="#d8d9ff" d="m103.60706 880.0585l0 0c0 -0.06524658 0.052886963 -0.11810303 0.118118286 -0.11810303l25.487007 0c0.031326294 0 0.06137085 0.012451172 0.08352661 0.034606934c0.022140503 0.022155762 0.034591675 0.05218506 0.034591675 0.083496094l0 2.9962769c0 0.06524658 -0.052886963 0.11810303 -0.118118286 0.11810303l-25.487007 0c-0.06523132 0 -0.118118286 -0.052856445 -0.118118286 -0.11810303z" fill-rule="evenodd"/><path stroke="#d8d9ff" stroke-width="8.0" stroke-linejoin="round" stroke-linecap="butt" d="m103.60706 880.0585l0 0c0 -0.06524658 0.052886963 -0.11810303 0.118118286 -0.11810303l25.487007 0c0.031326294 0 0.06137085 0.012451172 0.08352661 0.034606934c0.022140503 0.022155762 0.034591675 0.05218506 0.034591675 0.083496094l0 2.9962769c0 0.06524658 -0.052886963 0.11810303 -0.118118286 0.11810303l-25.487007 0c-0.06523132 0 -0.118118286 -0.052856445 -0.118118286 -0.11810303z" fill-rule="evenodd"/><path fill="#d8d9ff" d="m103.60706 900.048l0 0c0 -0.06518555 0.052886963 -0.11810303 0.118118286 -0.11810303l25.487007 0c0.031326294 0 0.06137085 0.012451172 0.08352661 0.034606934c0.022140503 0.022155762 0.034591675 0.05218506 0.034591675 0.083496094l0 2.996338c0 0.06518555 -0.052886963 0.11810303 -0.118118286 0.11810303l-25.487007 0c-0.06523132 0 -0.118118286 -0.05291748 -0.118118286 -0.11810303z" fill-rule="evenodd"/><path stroke="#d8d9ff" stroke-width="8.0" stroke-linejoin="round" stroke-linecap="butt" d="m103.60706 900.048l0 0c0 -0.06518555 0.052886963 -0.11810303 0.118118286 -0.11810303l25.487007 0c0.031326294 0 0.06137085 0.012451172 0.08352661 0.034606934c0.022140503 0.022155762 0.034591675 0.05218506 0.034591675 0.083496094l0 2.996338c0 0.06518555 -0.052886963 0.11810303 -0.118118286 0.11810303l-25.487007 0c-0.06523132 0 -0.118118286 -0.05291748 -0.118118286 -0.11810303z" fill-rule="evenodd"/><path fill="#d8d9ff" d="m103.60706 920.03754l0 0c0 -0.06524658 0.052886963 -0.11810303 0.118118286 -0.11810303l25.487007 0c0.031326294 0 0.06137085 0.012390137 0.08352661 0.0345459c0.022140503 0.022155762 0.034591675 0.052246094 0.034591675 0.08355713l0 2.9962769c0 0.06524658 -0.052886963 0.11810303 -0.118118286 0.11810303l-25.487007 0c-0.06523132 0 -0.118118286 -0.052856445 -0.118118286 -0.11810303z" fill-rule="evenodd"/><path stroke="#d8d9ff" stroke-width="8.0" stroke-linejoin="round" stroke-linecap="butt" d="m103.60706 920.03754l0 0c0 -0.06524658 0.052886963 -0.11810303 0.118118286 -0.11810303l25.487007 0c0.031326294 0 0.06137085 0.012390137 0.08352661 0.0345459c0.022140503 0.022155762 0.034591675 0.052246094 0.034591675 0.08355713l0 2.9962769c0 0.06524658 -0.052886963 0.11810303 -0.118118286 0.11810303l-25.487007 0c-0.06523132 0 -0.118118286 -0.052856445 -0.118118286 -0.11810303z" fill-rule="evenodd"/><path fill="#d8d9ff" d="m103.60706 940.02704l0 0c0 -0.06524658 0.052886963 -0.11810303 0.118118286 -0.11810303l25.487007 0c0.031326294 0 0.06137085 0.012451172 0.08352661 0.034606934c0.022140503 0.022155762 0.034591675 0.05218506 0.034591675 0.083496094l0 2.9962769c0 0.06524658 -0.052886963 0.11816406 -0.118118286 0.11816406l-25.487007 0c-0.06523132 0 -0.118118286 -0.05291748 -0.118118286 -0.11816406z" fill-rule="evenodd"/><path stroke="#d8d9ff" stroke-width="8.0" stroke-linejoin="round" stroke-linecap="butt" d="m103.60706 940.02704l0 0c0 -0.06524658 0.052886963 -0.11810303 0.118118286 -0.11810303l25.487007 0c0.031326294 0 0.06137085 0.012451172 0.08352661 0.034606934c0.022140503 0.022155762 0.034591675 0.05218506 0.034591675 0.083496094l0 2.9962769c0 0.06524658 -0.052886963 0.11816406 -0.118118286 0.11816406l-25.487007 0c-0.06523132 0 -0.118118286 -0.05291748 -0.118118286 -0.11816406z" fill-rule="evenodd"/><path fill="#d8d9ff" d="m242.11229 860.069l0 0c0 -0.06524658 0.052886963 -0.11816406 0.118118286 -0.11816406l25.487 0c0.031341553 0 0.06137085 0.012451172 0.08352661 0.034606934c0.022155762 0.022155762 0.034606934 0.05218506 0.034606934 0.08355713l0 2.9962769c0 0.06524658 -0.052886963 0.11810303 -0.118133545 0.11810303l-25.487 0c-0.06523132 0 -0.118118286 -0.052856445 -0.118118286 -0.11810303z" fill-rule="evenodd"/><path stroke="#d8d9ff" stroke-width="8.0" stroke-linejoin="round" stroke-linecap="butt" d="m242.11229 860.069l0 0c0 -0.06524658 0.052886963 -0.11816406 0.118118286 -0.11816406l25.487 0c0.031341553 0 0.06137085 0.012451172 0.08352661 0.034606934c0.022155762 0.022155762 0.034606934 0.05218506 0.034606934 0.08355713l0 2.9962769c0 0.06524658 -0.052886963 0.11810303 -0.118133545 0.11810303l-25.487 0c-0.06523132 0 -0.118118286 -0.052856445 -0.118118286 -0.11810303z" fill-rule="evenodd"/><path fill="#d8d9ff" d="m242.11229 880.0585l0 0c0 -0.06524658 0.052886963 -0.11810303 0.118118286 -0.11810303l25.487 0c0.031341553 0 0.06137085 0.012451172 0.08352661 0.034606934c0.022155762 0.022155762 0.034606934 0.05218506 0.034606934 0.083496094l0 2.9962769c0 0.06524658 -0.052886963 0.11810303 -0.118133545 0.11810303l-25.487 0c-0.06523132 0 -0.118118286 -0.052856445 -0.118118286 -0.11810303z" fill-rule="evenodd"/><path stroke="#d8d9ff" stroke-width="8.0" stroke-linejoin="round" stroke-linecap="butt" d="m242.11229 880.0585l0 0c0 -0.06524658 0.052886963 -0.11810303 0.118118286 -0.11810303l25.487 0c0.031341553 0 0.06137085 0.012451172 0.08352661 0.034606934c0.022155762 0.022155762 0.034606934 0.05218506 0.034606934 0.083496094l0 2.9962769c0 0.06524658 -0.052886963 0.11810303 -0.118133545 0.11810303l-25.487 0c-0.06523132 0 -0.118118286 -0.052856445 -0.118118286 -0.11810303z" fill-rule="evenodd"/><path fill="#d8d9ff" d="m242.11229 900.048l0 0c0 -0.06518555 0.052886963 -0.11810303 0.118118286 -0.11810303l25.487 0c0.031341553 0 0.06137085 0.012451172 0.08352661 0.034606934c0.022155762 0.022155762 0.034606934 0.05218506 0.034606934 0.083496094l0 2.996338c0 0.06518555 -0.052886963 0.11810303 -0.118133545 0.11810303l-25.487 0c-0.06523132 0 -0.118118286 -0.05291748 -0.118118286 -0.11810303z" fill-rule="evenodd"/><path stroke="#d8d9ff" stroke-width="8.0" stroke-linejoin="round" stroke-linecap="butt" d="m242.11229 900.048l0 0c0 -0.06518555 0.052886963 -0.11810303 0.118118286 -0.11810303l25.487 0c0.031341553 0 0.06137085 0.012451172 0.08352661 0.034606934c0.022155762 0.022155762 0.034606934 0.05218506 0.034606934 0.083496094l0 2.996338c0 0.06518555 -0.052886963 0.11810303 -0.118133545 0.11810303l-25.487 0c-0.06523132 0 -0.118118286 -0.05291748 -0.118118286 -0.11810303z" fill-rule="evenodd"/><path fill="#d8d9ff" d="m242.11229 920.03754l0 0c0 -0.06524658 0.052886963 -0.11810303 0.118118286 -0.11810303l25.487 0c0.031341553 0 0.06137085 0.012390137 0.08352661 0.0345459c0.022155762 0.022155762 0.034606934 0.052246094 0.034606934 0.08355713l0 2.9962769c0 0.06524658 -0.052886963 0.11810303 -0.118133545 0.11810303l-25.487 0c-0.06523132 0 -0.118118286 -0.052856445 -0.118118286 -0.11810303z" fill-rule="evenodd"/><path stroke="#d8d9ff" stroke-width="8.0" stroke-linejoin="round" stroke-linecap="butt" d="m242.11229 920.03754l0 0c0 -0.06524658 0.052886963 -0.11810303 0.118118286 -0.11810303l25.487 0c0.031341553 0 0.06137085 0.012390137 0.08352661 0.0345459c0.022155762 0.022155762 0.034606934 0.052246094 0.034606934 0.08355713l0 2.9962769c0 0.06524658 -0.052886963 0.11810303 -0.118133545 0.11810303l-25.487 0c-0.06523132 0 -0.118118286 -0.052856445 -0.118118286 -0.11810303z" fill-rule="evenodd"/><path fill="#d8d9ff" d="m242.11229 940.02704l0 0c0 -0.06524658 0.052886963 -0.11810303 0.118118286 -0.11810303l25.487 0c0.031341553 0 0.06137085 0.012451172 0.08352661 0.034606934c0.022155762 0.022155762 0.034606934 0.05218506 0.034606934 0.083496094l0 2.9962769c0 0.06524658 -0.052886963 0.11816406 -0.118133545 0.11816406l-25.487 0c-0.06523132 0 -0.118118286 -0.05291748 -0.118118286 -0.11816406z" fill-rule="evenodd"/><path stroke="#d8d9ff" stroke-width="8.0" stroke-linejoin="round" stroke-linecap="butt" d="m242.11229 940.02704l0 0c0 -0.06524658 0.052886963 -0.11810303 0.118118286 -0.11810303l25.487 0c0.031341553 0 0.06137085 0.012451172 0.08352661 0.034606934c0.022155762 0.022155762 0.034606934 0.05218506 0.034606934 0.083496094l0 2.9962769c0 0.06524658 -0.052886963 0.11816406 -0.118133545 0.11816406l-25.487 0c-0.06523132 0 -0.118118286 -0.05291748 -0.118118286 -0.11816406z" fill-rule="evenodd"/><path fill="#d8d9ff" d="m144.0934 983.7287l0 0c-0.065475464 0 -0.11856079 -0.053100586 -0.11856079 -0.11859131l0 -25.390625c0 -0.031433105 0.012496948 -0.061584473 0.034729004 -0.08380127c0.022232056 -0.022216797 0.052383423 -0.034729004 0.08383179 -0.034729004l3.0074463 0c0.065475464 0 0.11856079 0.053100586 0.11856079 0.11853027l0 25.390625c0 0.06549072 -0.053085327 0.11859131 -0.11856079 0.11859131z" fill-rule="evenodd"/><path stroke="#d8d9ff" stroke-width="8.0" stroke-linejoin="round" stroke-linecap="butt" d="m144.0934 983.7287l0 0c-0.065475464 0 -0.11856079 -0.053100586 -0.11856079 -0.11859131l0 -25.390625c0 -0.031433105 0.012496948 -0.061584473 0.034729004 -0.08380127c0.022232056 -0.022216797 0.052383423 -0.034729004 0.08383179 -0.034729004l3.0074463 0c0.065475464 0 0.11856079 0.053100586 0.11856079 0.11853027l0 25.390625c0 0.06549072 -0.053085327 0.11859131 -0.11856079 0.11859131z" fill-rule="evenodd"/><path fill="#d8d9ff" d="m164.15742 983.7287l0 0c-0.065475464 0 -0.11856079 -0.053100586 -0.11856079 -0.11859131l0 -25.390625c0 -0.031433105 0.012496948 -0.061584473 0.034729004 -0.08380127c0.022232056 -0.022216797 0.052383423 -0.034729004 0.08383179 -0.034729004l3.0074463 0c0.065475464 0 0.11856079 0.053100586 0.11856079 0.11853027l0 25.390625c0 0.06549072 -0.053085327 0.11859131 -0.11856079 0.11859131z" fill-rule="evenodd"/><path stroke="#d8d9ff" stroke-width="8.0" stroke-linejoin="round" stroke-linecap="butt" d="m164.15742 983.7287l0 0c-0.065475464 0 -0.11856079 -0.053100586 -0.11856079 -0.11859131l0 -25.390625c0 -0.031433105 0.012496948 -0.061584473 0.034729004 -0.08380127c0.022232056 -0.022216797 0.052383423 -0.034729004 0.08383179 -0.034729004l3.0074463 0c0.065475464 0 0.11856079 0.053100586 0.11856079 0.11853027l0 25.390625c0 0.06549072 -0.053085327 0.11859131 -0.11856079 0.11859131z" fill-rule="evenodd"/><path fill="#d8d9ff" d="m184.22145 983.7287l0 0c-0.065475464 0 -0.11856079 -0.053100586 -0.11856079 -0.11859131l0 -25.390625c0 -0.031433105 0.012496948 -0.061584473 0.034729004 -0.08380127c0.022232056 -0.022216797 0.052383423 -0.034729004 0.08383179 -0.034729004l3.0074463 0c0.065475464 0 0.11856079 0.053100586 0.11856079 0.11853027l0 25.390625c0 0.06549072 -0.053085327 0.11859131 -0.11856079 0.11859131z" fill-rule="evenodd"/><path stroke="#d8d9ff" stroke-width="8.0" stroke-linejoin="round" stroke-linecap="butt" d="m184.22145 983.7287l0 0c-0.065475464 0 -0.11856079 -0.053100586 -0.11856079 -0.11859131l0 -25.390625c0 -0.031433105 0.012496948 -0.061584473 0.034729004 -0.08380127c0.022232056 -0.022216797 0.052383423 -0.034729004 0.08383179 -0.034729004l3.0074463 0c0.065475464 0 0.11856079 0.053100586 0.11856079 0.11853027l0 25.390625c0 0.06549072 -0.053085327 0.11859131 -0.11856079 0.11859131z" fill-rule="evenodd"/><path fill="#d8d9ff" d="m204.28548 983.7287l0 0c-0.065475464 0 -0.11856079 -0.053100586 -0.11856079 -0.11859131l0 -25.390625c0 -0.031433105 0.012496948 -0.061584473 0.034729004 -0.08380127c0.022232056 -0.022216797 0.052383423 -0.034729004 0.08383179 -0.034729004l3.0074463 0c0.065475464 0 0.11856079 0.053100586 0.11856079 0.11853027l0 25.390625c0 0.06549072 -0.053085327 0.11859131 -0.11856079 0.11859131z" fill-rule="evenodd"/><path stroke="#d8d9ff" stroke-width="8.0" stroke-linejoin="round" stroke-linecap="butt" d="m204.28548 983.7287l0 0c-0.065475464 0 -0.11856079 -0.053100586 -0.11856079 -0.11859131l0 -25.390625c0 -0.031433105 0.012496948 -0.061584473 0.034729004 -0.08380127c0.022232056 -0.022216797 0.052383423 -0.034729004 0.08383179 -0.034729004l3.0074463 0c0.065475464 0 0.11856079 0.053100586 0.11856079 0.11853027l0 25.390625c0 0.06549072 -0.053085327 0.11859131 -0.11856079 0.11859131z" fill-rule="evenodd"/><path fill="#d8d9ff" d="m224.3495 983.7287l0 0c-0.06549072 0 -0.11856079 -0.053100586 -0.11856079 -0.11859131l0 -25.390625c0 -0.031433105 0.012481689 -0.061584473 0.034713745 -0.08380127c0.022247314 -0.022216797 0.05239868 -0.034729004 0.083847046 -0.034729004l3.0074463 0c0.065475464 0 0.11856079 0.053100586 0.11856079 0.11853027l0 25.390625c0 0.06549072 -0.053085327 0.11859131 -0.11856079 0.11859131z" fill-rule="evenodd"/><path stroke="#d8d9ff" stroke-width="8.0" stroke-linejoin="round" stroke-linecap="butt" d="m224.3495 983.7287l0 0c-0.06549072 0 -0.11856079 -0.053100586 -0.11856079 -0.11859131l0 -25.390625c0 -0.031433105 0.012481689 -0.061584473 0.034713745 -0.08380127c0.022247314 -0.022216797 0.05239868 -0.034729004 0.083847046 -0.034729004l3.0074463 0c0.065475464 0 0.11856079 0.053100586 0.11856079 0.11853027l0 25.390625c0 0.06549072 -0.053085327 0.11859131 -0.11856079 0.11859131z" fill-rule="evenodd"/><path fill="#d8d9ff" d="m144.0934 847.1251l0 0c-0.065475464 0 -0.11856079 -0.053100586 -0.11856079 -0.11859131l0 -25.390625c0 -0.031433105 0.012496948 -0.061584473 0.034729004 -0.08380127c0.022232056 -0.022216797 0.052383423 -0.034729004 0.08383179 -0.034729004l3.0074463 0c0.065475464 0 0.11856079 0.053100586 0.11856079 0.11853027l0 25.390625c0 0.06549072 -0.053085327 0.11859131 -0.11856079 0.11859131z" fill-rule="evenodd"/><path stroke="#d8d9ff" stroke-width="8.0" stroke-linejoin="round" stroke-linecap="butt" d="m144.0934 847.1251l0 0c-0.065475464 0 -0.11856079 -0.053100586 -0.11856079 -0.11859131l0 -25.390625c0 -0.031433105 0.012496948 -0.061584473 0.034729004 -0.08380127c0.022232056 -0.022216797 0.052383423 -0.034729004 0.08383179 -0.034729004l3.0074463 0c0.065475464 0 0.11856079 0.053100586 0.11856079 0.11853027l0 25.390625c0 0.06549072 -0.053085327 0.11859131 -0.11856079 0.11859131z" fill-rule="evenodd"/><path fill="#d8d9ff" d="m164.15742 847.1251l0 0c-0.065475464 0 -0.11856079 -0.053100586 -0.11856079 -0.11859131l0 -25.390625c0 -0.031433105 0.012496948 -0.061584473 0.034729004 -0.08380127c0.022232056 -0.022216797 0.052383423 -0.034729004 0.08383179 -0.034729004l3.0074463 0c0.065475464 0 0.11856079 0.053100586 0.11856079 0.11853027l0 25.390625c0 0.06549072 -0.053085327 0.11859131 -0.11856079 0.11859131z" fill-rule="evenodd"/><path stroke="#d8d9ff" stroke-width="8.0" stroke-linejoin="round" stroke-linecap="butt" d="m164.15742 847.1251l0 0c-0.065475464 0 -0.11856079 -0.053100586 -0.11856079 -0.11859131l0 -25.390625c0 -0.031433105 0.012496948 -0.061584473 0.034729004 -0.08380127c0.022232056 -0.022216797 0.052383423 -0.034729004 0.08383179 -0.034729004l3.0074463 0c0.065475464 0 0.11856079 0.053100586 0.11856079 0.11853027l0 25.390625c0 0.06549072 -0.053085327 0.11859131 -0.11856079 0.11859131z" fill-rule="evenodd"/><path fill="#d8d9ff" d="m184.22145 847.1251l0 0c-0.065475464 0 -0.11856079 -0.053100586 -0.11856079 -0.11859131l0 -25.390625c0 -0.031433105 0.012496948 -0.061584473 0.034729004 -0.08380127c0.022232056 -0.022216797 0.052383423 -0.034729004 0.08383179 -0.034729004l3.0074463 0c0.065475464 0 0.11856079 0.053100586 0.11856079 0.11853027l0 25.390625c0 0.06549072 -0.053085327 0.11859131 -0.11856079 0.11859131z" fill-rule="evenodd"/><path stroke="#d8d9ff" stroke-width="8.0" stroke-linejoin="round" stroke-linecap="butt" d="m184.22145 847.1251l0 0c-0.065475464 0 -0.11856079 -0.053100586 -0.11856079 -0.11859131l0 -25.390625c0 -0.031433105 0.012496948 -0.061584473 0.034729004 -0.08380127c0.022232056 -0.022216797 0.052383423 -0.034729004 0.08383179 -0.034729004l3.0074463 0c0.065475464 0 0.11856079 0.053100586 0.11856079 0.11853027l0 25.390625c0 0.06549072 -0.053085327 0.11859131 -0.11856079 0.11859131z" fill-rule="evenodd"/><path fill="#d8d9ff" d="m204.28548 847.1251l0 0c-0.065475464 0 -0.11856079 -0.053100586 -0.11856079 -0.11859131l0 -25.390625c0 -0.031433105 0.012496948 -0.061584473 0.034729004 -0.08380127c0.022232056 -0.022216797 0.052383423 -0.034729004 0.08383179 -0.034729004l3.0074463 0c0.065475464 0 0.11856079 0.053100586 0.11856079 0.11853027l0 25.390625c0 0.06549072 -0.053085327 0.11859131 -0.11856079 0.11859131z" fill-rule="evenodd"/><path stroke="#d8d9ff" stroke-width="8.0" stroke-linejoin="round" stroke-linecap="butt" d="m204.28548 847.1251l0 0c-0.065475464 0 -0.11856079 -0.053100586 -0.11856079 -0.11859131l0 -25.390625c0 -0.031433105 0.012496948 -0.061584473 0.034729004 -0.08380127c0.022232056 -0.022216797 0.052383423 -0.034729004 0.08383179 -0.034729004l3.0074463 0c0.065475464 0 0.11856079 0.053100586 0.11856079 0.11853027l0 25.390625c0 0.06549072 -0.053085327 0.11859131 -0.11856079 0.11859131z" fill-rule="evenodd"/><path fill="#d8d9ff" d="m224.3495 847.1251l0 0c-0.06549072 0 -0.11856079 -0.053100586 -0.11856079 -0.11859131l0 -25.390625c0 -0.031433105 0.012481689 -0.061584473 0.034713745 -0.08380127c0.022247314 -0.022216797 0.05239868 -0.034729004 0.083847046 -0.034729004l3.0074463 0c0.065475464 0 0.11856079 0.053100586 0.11856079 0.11853027l0 25.390625c0 0.06549072 -0.053085327 0.11859131 -0.11856079 0.11859131z" fill-rule="evenodd"/><path stroke="#d8d9ff" stroke-width="8.0" stroke-linejoin="round" stroke-linecap="butt" d="m224.3495 847.1251l0 0c-0.06549072 0 -0.11856079 -0.053100586 -0.11856079 -0.11859131l0 -25.390625c0 -0.031433105 0.012481689 -0.061584473 0.034713745 -0.08380127c0.022247314 -0.022216797 0.05239868 -0.034729004 0.083847046 -0.034729004l3.0074463 0c0.065475464 0 0.11856079 0.053100586 0.11856079 0.11853027l0 25.390625c0 0.06549072 -0.053085327 0.11859131 -0.11856079 0.11859131z" fill-rule="evenodd"/><path fill="#000000" fill-opacity="0.0" d="m195.26962 372.20978l0.1889801 124.59842" fill-rule="evenodd"/><path stroke="#d8d9ff" stroke-width="4.0" stroke-linejoin="round" stroke-linecap="butt" d="m195.26962 372.20978l0.15258789 100.59845" fill-rule="evenodd"/><path fill="#d8d9ff" stroke="#d8d9ff" stroke-width="4.0" stroke-linecap="butt" d="m188.81528 472.81824l6.6344604 18.142365l6.5793915 -18.162415z" fill-rule="evenodd"/><defs><radialGradient id="p.1" gradientUnits="userSpaceOnUse" gradientTransform="matrix(9.366970533479094 0.0 0.0 9.366970533479094 0.0 0.0)" spreadMethod="pad" cx="21.69711324980059" cy="46.33357687980611" fx="21.69711324980059" fy="46.33357687980611" r="9.36697006225586"><stop offset="0.0" stop-color="#2f3052"/><stop offset="0.5" stop-color="#2f3052" stop-opacity="0.0"/><stop offset="0.50000006" stop-color="#ffffff" stop-opacity="0.0"/><stop offset="1.0" stop-color="#ffffff" stop-opacity="0.0"/></radialGradient></defs><path fill="url(#p.1)" d="m134.71654 434.00525l0 0c0 -30.266937 30.677307 -54.80316 68.519684 -54.80316l0 0c37.842377 0 68.5197 24.536224 68.5197 54.80316l0 0c0 30.266937 -30.677322 54.80316 -68.5197 54.80316l0 0c-37.842377 0 -68.519684 -24.536224 -68.519684 -54.80316z" fill-rule="evenodd"/><path fill="#2f3052" d="m32.007874 83.46982l0 0c0 -24.274437 19.678318 -43.95276 43.95275 -43.95276l217.16534 0c11.657013 0 22.836548 4.630726 31.079285 12.8734665c8.242767 8.242741 12.873474 19.422295 12.873474 31.079292l0 0l0 0c0 24.274437 -19.678314 43.95275 -43.95276 43.95275l-217.16534 0c-24.274433 0 -43.95275 -19.678314 -43.95275 -43.95275z" fill-rule="evenodd"/><path stroke="#d8d9ff" stroke-width="8.0" stroke-linejoin="round" stroke-linecap="butt" d="m32.007874 83.46982l0 0c0 -24.274437 19.678318 -43.95276 43.95275 -43.95276l217.16534 0c11.657013 0 22.836548 4.630726 31.079285 12.8734665c8.242767 8.242741 12.873474 19.422295 12.873474 31.079292l0 0l0 0c0 24.274437 -19.678314 43.95275 -43.95276 43.95275l-217.16534 0c-24.274433 0 -43.95275 -19.678314 -43.95275 -43.95275z" fill-rule="evenodd"/><path fill="#d8d9ff" d="m106.58377 95.79919q-4.796875 0 -7.296875 -3.390625q-2.484375 -3.390625 -2.484375 -10.015625q0 -6.625 2.546875 -10.015625q2.5625 -3.390625 7.53125 -3.390625q2.78125 0 4.796875 1.15625q2.015625 1.140625 3.1875 3.359375q1.171875 2.203125 1.328125 5.328125l-4.9375 0q-0.46875 -2.453125 -1.546875 -3.6875q-1.0625 -1.234375 -2.828125 -1.234375q-2.375 0 -3.53125 2.09375q-1.140625 2.09375 -1.140625 6.390625q0 4.28125 1.078125 6.390625q1.09375 2.09375 3.296875 2.09375q1.640625 0 2.671875 -1.15625q1.046875 -1.15625 1.53125 -3.421875l4.921875 0q-0.1875 3.0 -1.34375 5.140625q-1.15625 2.125 -3.125 3.25q-1.953125 1.109375 -4.65625 1.109375zm21.96254 0q-2.890625 0 -5.0 -1.28125q-2.109375 -1.28125 -3.265625 -3.609375q-1.140625 -2.34375 -1.140625 -5.546875q0 -3.234375 1.140625 -5.5625q1.15625 -2.34375 3.265625 -3.609375q2.109375 -1.28125 5.0 -1.28125q2.875 0 4.984375 1.28125q2.109375 1.265625 3.265625 3.609375q1.15625 2.328125 1.15625 5.5625q0 3.203125 -1.15625 5.546875q-1.15625 2.328125 -3.25 3.609375q-2.09375 1.28125 -5.0 1.28125zm0 -4.609375q2.109375 0 3.25 -1.53125q1.15625 -1.546875 1.15625 -4.296875q0 -2.78125 -1.15625 -4.3125q-1.140625 -1.546875 -3.25 -1.546875q-2.078125 0 -3.25 1.546875q-1.171875 1.53125 -1.171875 4.3125q0 2.75 1.171875 4.296875q1.171875 1.53125 3.25 1.53125zm12.696915 -15.6875l4.96875 0l0 2.0625l2.90625 0l-2.046875 1.5q0.0625 -2.015625 0.90625 -3.078125q0.859375 -1.078125 2.328125 -1.078125q1.375 0 2.1875 1.09375q0.8125 1.078125 0.90625 3.15625l-1.75 -1.53125l4.484375 0l-2.09375 1.4375q0.078125 -2.015625 0.953125 -3.078125q0.875 -1.078125 2.375 -1.078125q1.609375 0 2.484375 1.359375q0.875 1.359375 0.875 3.84375l0 15.078125l-4.59375 0l0 -13.09375q0 -0.890625 -0.375 -1.34375q-0.375 -0.46875 -1.046875 -0.46875q-0.703125 0 -1.078125 0.46875q-0.359375 0.453125 -0.359375 1.34375l0 13.09375l-4.578125 0l0 -13.09375q0 -0.890625 -0.375 -1.34375q-0.359375 -0.46875 -1.0625 -0.46875q-0.671875 0 -1.046875 0.46875q-0.359375 0.453125 -0.359375 1.34375l0 13.09375l-4.609375 0l0 -19.6875zm23.49379 26.09375l0 -26.09375l5.1875 0l0 1.859375l1.171875 0q0.578125 -1.109375 1.765625 -1.734375q1.1875 -0.625 2.625 -0.625q2.375 0 4.125 1.265625q1.765625 1.265625 2.71875 3.578125q0.96875 2.3125 0.96875 5.484375q0 3.203125 -0.96875 5.53125q-0.953125 2.3125 -2.71875 3.578125q-1.75 1.265625 -4.125 1.265625q-1.4375 0 -2.625 -0.640625q-1.1875 -0.640625 -1.765625 -1.734375l-1.171875 0l0 8.265625l-5.1875 0zm9.21875 -10.5q2.046875 0 3.1875 -1.515625q1.15625 -1.53125 1.15625 -4.25q0 -2.71875 -1.15625 -4.21875q-1.140625 -1.5 -3.1875 -1.5q-2.078125 0 -3.234375 1.515625q-1.15625 1.515625 -1.15625 4.234375q0 2.71875 1.15625 4.234375q1.15625 1.5 3.234375 1.5zm30.134415 -15.59375l0 19.6875l-5.171875 0l0 -1.796875l-1.1875 0q-0.640625 1.15625 -1.796875 1.78125q-1.15625 0.625 -2.65625 0.625q-1.953125 0 -3.328125 -0.921875q-1.375 -0.9375 -2.109375 -2.671875q-0.734375 -1.75 -0.734375 -4.21875l0 -12.484375l5.1875 0l0 11.234375q0 2.078125 0.828125 3.15625q0.828125 1.078125 2.46875 1.078125q1.65625 0 2.484375 -1.078125q0.84375 -1.078125 0.84375 -3.15625l0 -11.234375l5.171875 0zm13.93129 -5.078125l0 5.078125l8.609375 0l0 4.609375l-8.609375 0l0 8.234375q0 1.40625 0.5 2.125q0.515625 0.71875 1.515625 0.71875q1.015625 0 1.65625 -0.859375q0.640625 -0.875 1.03125 -2.828125l4.578125 0q-0.203125 4.046875 -2.109375 6.171875q-1.890625 2.125 -5.296875 2.125q-3.421875 0 -5.25 -1.921875q-1.8125 -1.921875 -1.8125 -5.5l0 -8.265625l-3.6875 0l0 -4.609375l3.6875 0l0 -5.078125l5.1875 0zm17.696915 12.859375l10.90625 0l-1.703125 1.921875q0 -2.90625 -1.015625 -4.375q-1.0 -1.484375 -3.046875 -1.484375q-2.078125 0 -3.15625 1.5625q-1.0625 1.546875 -1.0625 4.328125q0 3.015625 1.046875 4.5625q1.0625 1.546875 3.296875 1.546875q1.28125 0 2.25 -0.59375q0.984375 -0.59375 1.6875 -1.671875l5.0 0q-0.640625 2.140625 -1.921875 3.65625q-1.28125 1.5 -3.09375 2.28125q-1.796875 0.78125 -4.046875 0.78125q-2.875 0 -4.9375 -1.25q-2.0625 -1.25 -3.171875 -3.609375q-1.109375 -2.375 -1.109375 -5.703125q0 -3.171875 1.140625 -5.484375q1.140625 -2.328125 3.21875 -3.578125q2.078125 -1.265625 4.859375 -1.265625q2.71875 0 4.640625 1.21875q1.921875 1.203125 2.953125 3.5q1.046875 2.28125 1.046875 5.578125q0 0.515625 -0.046875 0.96875q-0.046875 0.4375 -0.078125 0.828125l-13.65625 0l0 -3.71875zm18.52504 -7.78125l8.468765 0l0 1.796875l1.1875 0q0.546875 -1.125 1.609375 -1.734375q1.078125 -0.625 2.421875 -0.625q2.34375 0 3.53125 1.78125q1.203125 1.765625 1.203125 5.21875l0 3.171875l-5.28125 0l0 -2.5q0 -2.6875 -1.984375 -2.6875q-1.265625 0 -1.875 1.15625q-0.609375 1.15625 -0.609375 3.515625l0 5.984375l5.5625 0l0 4.609375l-13.85939 0l0 -4.609375l3.2968903 0l0 -10.46875l-3.6718903 0l0 -4.609375z" fill-rule="nonzero"/><path fill="#2f3052" d="m386.59055 83.46982l0 0c0 -22.317524 18.091919 -40.40945 40.409454 -40.40945l216.91339 0c10.717224 0 20.995544 4.257412 28.573792 11.835655c7.578247 7.5782394 11.835632 17.85654 11.835632 28.573795l0 0l0 0c0 22.31752 -18.091919 40.409447 -40.409424 40.409447l-216.91339 0l0 0c-22.317535 0 -40.409454 -18.091927 -40.409454 -40.409447z" fill-rule="evenodd"/><path stroke="#e1e485" stroke-width="8.0" stroke-linejoin="round" stroke-linecap="butt" d="m386.59055 83.46982l0 0c0 -22.317524 18.091919 -40.40945 40.409454 -40.40945l216.91339 0c10.717224 0 20.995544 4.257412 28.573792 11.835655c7.578247 7.5782394 11.835632 17.85654 11.835632 28.573795l0 0l0 0c0 22.31752 -18.091919 40.409447 -40.409424 40.409447l-216.91339 0l0 0c-22.317535 0 -40.409454 -18.091927 -40.409454 -40.409447z" fill-rule="evenodd"/><path fill="#e1e485" d="m500.67224 100.28356l0 -5.40625l2.375 0l0 1.296875l7.734375 1.421875l0 4.609375l-10.109375 -1.921875zm1.1875 -4.484375q-4.96875 0 -7.53125 -3.390625q-2.546875 -3.390625 -2.546875 -10.015625q0 -6.625 2.546875 -10.015625q2.5625 -3.390625 7.53125 -3.390625q4.953125 0 7.515625 3.390625q2.5625 3.390625 2.5625 10.015625q0 6.625 -2.5625 10.015625q-2.5625 3.390625 -7.515625 3.390625zm0 -4.921875q2.359375 0 3.515625 -2.09375q1.15625 -2.109375 1.15625 -6.390625q0 -4.296875 -1.15625 -6.390625q-1.15625 -2.09375 -3.515625 -2.09375q-2.375 0 -3.53125 2.09375q-1.140625 2.09375 -1.140625 6.390625q0 4.28125 1.140625 6.390625q1.15625 2.09375 3.53125 2.09375zm22.275024 -20.453125l0 5.078125l8.609375 0l0 4.609375l-8.609375 0l0 8.234375q0 1.40625 0.5 2.125q0.515625 0.71875 1.515625 0.71875q1.015625 0 1.65625 -0.859375q0.640625 -0.875 1.03125 -2.828125l4.578125 0q-0.203125 4.046875 -2.109375 6.171875q-1.890625 2.125 -5.296875 2.125q-3.421875 0 -5.25 -1.921875q-1.8125 -1.921875 -1.8125 -5.5l0 -8.265625l-3.6875 0l0 -4.609375l3.6875 0l0 -5.078125l5.1875 0zm17.69696 12.859375l10.90625 0l-1.703125 1.921875q0 -2.90625 -1.015625 -4.375q-1.0 -1.484375 -3.046875 -1.484375q-2.078125 0 -3.15625 1.5625q-1.0625 1.546875 -1.0625 4.328125q0 3.015625 1.046875 4.5625q1.0625 1.546875 3.296875 1.546875q1.28125 0 2.25 -0.59375q0.984375 -0.59375 1.6875 -1.671875l5.0 0q-0.640625 2.140625 -1.921875 3.65625q-1.28125 1.5 -3.09375 2.28125q-1.796875 0.78125 -4.046875 0.78125q-2.875 0 -4.9375 -1.25q-2.0625 -1.25 -3.171875 -3.609375q-1.109375 -2.375 -1.109375 -5.703125q0 -3.171875 1.140625 -5.484375q1.140625 -2.328125 3.21875 -3.578125q2.078125 -1.265625 4.859375 -1.265625q2.71875 0 4.640625 1.21875q1.921875 1.203125 2.953125 3.5q1.046875 2.28125 1.046875 5.578125q0 0.515625 -0.046875 0.96875q-0.046875 0.4375 -0.078125 0.828125l-13.65625 0l0 -3.71875zm18.525024 -7.78125l8.46875 0l0 1.796875l1.1875 0q0.546875 -1.125 1.609375 -1.734375q1.078125 -0.625 2.421875 -0.625q2.34375 0 3.53125 1.78125q1.203125 1.765625 1.203125 5.21875l0 3.171875l-5.28125 0l0 -2.5q0 -2.6875 -1.984375 -2.6875q-1.265625 0 -1.875 1.15625q-0.609375 1.15625 -0.609375 3.515625l0 5.984375l5.5625 0l0 4.609375l-13.859375 0l0 -4.609375l3.296875 0l0 -10.46875l-3.671875 0l0 -4.609375z" fill-rule="nonzero"/><path fill="#000000" fill-opacity="0.0" d="m118.60963 532.50574l0 151.42603l131.86801 -0.19494629l-0.27604675 -107.336975l-46.979843 -43.991577z" fill-rule="evenodd"/><path stroke="#d8d9ff" stroke-width="8.0" stroke-linejoin="round" stroke-linecap="butt" d="m118.60963 532.50574l0 151.42603l131.86801 -0.19494629l-0.27604675 -107.336975l-46.979843 -43.991577z" fill-rule="evenodd"/><path fill="#424374" d="m202.70622 576.8985l0 -44.575012l47.763107 44.575012z" fill-rule="evenodd"/><path stroke="#d8d9ff" stroke-width="8.0" stroke-linejoin="round" stroke-linecap="butt" d="m202.70622 576.8985l0 -44.575012l47.763107 44.575012z" fill-rule="evenodd"/><path fill="#000000" fill-opacity="0.0" d="m121.4302 579.4883l123.46458 0l0 70.897644l-123.46458 0z" fill-rule="evenodd"/><path fill="#d8d9ff" d="m149.56554 626.81647q-1.953125 0 -3.0 -1.0625q-1.03125 -1.0625 -1.03125 -3.015625q0 -1.9375 1.03125 -2.984375q1.046875 -1.046875 3.0 -1.046875q1.953125 0 2.984375 1.046875q1.046875 1.046875 1.046875 2.984375q0 1.953125 -1.046875 3.015625q-1.03125 1.0625 -2.984375 1.0625zm17.571915 -12.265625l10.90625 0l-1.703125 1.921875q0 -2.90625 -1.015625 -4.375q-1.0 -1.484375 -3.046875 -1.484375q-2.078125 0 -3.15625 1.5625q-1.0625 1.546875 -1.0625 4.328125q0 3.015625 1.046875 4.5625q1.0625 1.546875 3.296875 1.546875q1.28125 0 2.25 -0.59375q0.984375 -0.59375 1.6875 -1.671875l5.0 0q-0.640625 2.140625 -1.921875 3.65625q-1.28125 1.5 -3.09375 2.28125q-1.796875 0.78125 -4.046875 0.78125q-2.875 0 -4.9375 -1.25q-2.0625 -1.25 -3.171875 -3.609375q-1.109375 -2.375 -1.109375 -5.703125q0 -3.171875 1.140625 -5.484375q1.140625 -2.328125 3.21875 -3.578125q2.078125 -1.265625 4.859375 -1.265625q2.71875 0 4.640625 1.21875q1.921875 1.203125 2.953125 3.5q1.046875 2.28125 1.046875 5.578125q0 0.515625 -0.046875 0.96875q-0.046875 0.4375 -0.078125 0.828125l-13.65625 0l0 -3.71875zm17.915665 11.90625l5.15625 -9.4375l-5.546875 -10.25l5.609375 0l3.578125 6.65625l0.359375 1.28125l0.53125 0l0.328125 -1.28125l3.703125 -6.65625l5.28125 0l-5.5625 9.984375l5.1875 9.703125l-5.703125 0l-3.171875 -5.890625l-0.3125 -1.28125l-0.546875 0l-0.3125 1.28125l-3.203125 5.890625l-5.375 0zm26.884415 -11.90625l10.90625 0l-1.703125 1.921875q0 -2.90625 -1.015625 -4.375q-1.0 -1.484375 -3.046875 -1.484375q-2.078125 0 -3.15625 1.5625q-1.0625 1.546875 -1.0625 4.328125q0 3.015625 1.046875 4.5625q1.0625 1.546875 3.296875 1.546875q1.28125 0 2.25 -0.59375q0.984375 -0.59375 1.6875 -1.671875l5.0 0q-0.640625 2.140625 -1.921875 3.65625q-1.28125 1.5 -3.09375 2.28125q-1.796875 0.78125 -4.046875 0.78125q-2.875 0 -4.9375 -1.25q-2.0625 -1.25 -3.171875 -3.609375q-1.109375 -2.375 -1.109375 -5.703125q0 -3.171875 1.140625 -5.484375q1.140625 -2.328125 3.21875 -3.578125q2.078125 -1.265625 4.859375 -1.265625q2.71875 0 4.640625 1.21875q1.921875 1.203125 2.953125 3.5q1.046875 2.28125 1.046875 5.578125q0 0.515625 -0.046875 0.96875q-0.046875 0.4375 -0.078125 0.828125l-13.65625 0l0 -3.71875z" fill-rule="nonzero"/><defs><linearGradient id="p.2" gradientUnits="userSpaceOnUse" gradientTransform="matrix(10.469294874602152 0.0 0.0 10.469294874602152 0.0 0.0)" spreadMethod="pad" x1="90.26167102821974" y1="45.73341707076551" x2="90.26163185605085" y2="56.20271194529438"><stop offset="0.0" stop-color="#d8d9ff"/><stop offset="1.0" stop-color="#e1e485"/></linearGradient></defs><path fill="url(#p.2)" d="m944.976 493.8261l8.563477 -15.029419l8.563477 15.029419l-5.8444824 0l0 79.5473l5.8444824 0l-8.563477 15.029358l-8.563477 -15.029358l5.8444824 0l0 -79.5473z" fill-rule="evenodd"/><path fill="#2f3052" d="m948.15216 499.98944l9.712402 0l0 7.896698l-9.712402 0z" fill-rule="evenodd"/><path fill="#2f3052" d="m948.6832 559.85376l9.712463 0l0 7.8967285l-9.712463 0z" fill-rule="evenodd"/><path fill="#424374" d="m948.6832 514.9109l9.712463 0l0 7.8967285l-9.712463 0z" fill-rule="evenodd"/><path fill="#424374" d="m948.6832 544.8986l9.712463 0l0 7.8966675l-9.712463 0z" fill-rule="evenodd"/><path fill="#424374" d="m948.6832 530.4164l9.712463 0l0 7.8967285l-9.712463 0z" fill-rule="evenodd"/><defs><linearGradient id="p.3" gradientUnits="userSpaceOnUse" gradientTransform="matrix(10.469294874602152 0.0 0.0 10.469294874602152 0.0 0.0)" spreadMethod="pad" x1="123.90468827033247" y1="45.7334209879824" x2="123.90464909816359" y2="56.20271586251127"><stop offset="0.0" stop-color="#d8d9ff"/><stop offset="1.0" stop-color="#e1e485"/></linearGradient></defs><path fill="url(#p.3)" d="m1297.1947 493.8261l8.563477 -15.029419l8.563477 15.029419l-5.8444824 0l0 79.5473l5.8444824 0l-8.563477 15.029358l-8.563477 -15.029358l5.8444824 0l0 -79.5473z" fill-rule="evenodd"/><path fill="#2f3052" d="m1300.3708 499.98944l9.712402 0l0 7.896698l-9.712402 0z" fill-rule="evenodd"/><path fill="#2f3052" d="m1300.902 559.85376l9.712402 0l0 7.8967285l-9.712402 0z" fill-rule="evenodd"/><path fill="#424374" d="m1300.902 514.9109l9.712402 0l0 7.8967285l-9.712402 0z" fill-rule="evenodd"/><path fill="#424374" d="m1300.902 544.8986l9.712402 0l0 7.8966675l-9.712402 0z" fill-rule="evenodd"/><path fill="#424374" d="m1300.902 530.4164l9.712402 0l0 7.8967285l-9.712402 0z" fill-rule="evenodd"/><defs><linearGradient id="p.4" gradientUnits="userSpaceOnUse" gradientTransform="matrix(11.179307272352322 0.0 0.0 11.179307272352322 0.0 0.0)" spreadMethod="pad" x1="128.11898458191456" y1="42.74156712611608" x2="128.1189552344799" y2="53.92087439842988"><stop offset="0.0" stop-color="#d8d9ff"/><stop offset="1.0" stop-color="#e1e485"/></linearGradient></defs><path fill="url(#p.4)" d="m1432.2815 496.73715l10.777954 -18.915955l10.777954 18.915955l-7.355835 0l0 87.14493l7.355835 0l-10.777954 18.915955l-10.777954 -18.915955l7.355835 0l0 -87.14493z" fill-rule="evenodd"/><path fill="#2f3052" d="m1436.279 501.98593l12.223999 0l0 9.004089l-12.223999 0z" fill-rule="evenodd"/><path fill="#2f3052" d="m1436.9474 570.2454l12.224121 0l0 9.004089l-12.224121 0z" fill-rule="evenodd"/><path fill="#424374" d="m1436.9474 518.99994l12.224121 0l0 9.004089l-12.224121 0z" fill-rule="evenodd"/><path fill="#424374" d="m1436.9474 553.193l12.224121 0l0 9.004089l-12.224121 0z" fill-rule="evenodd"/><path fill="#424374" d="m1436.9474 536.6798l12.224121 0l0 9.00415l-12.224121 0z" fill-rule="evenodd"/><defs><radialGradient id="p.5" gradientUnits="userSpaceOnUse" gradientTransform="matrix(9.366970533479094 0.0 0.0 9.366970533479094 0.0 0.0)" spreadMethod="pad" cx="20.84304843008042" cy="46.33357687980611" fx="20.84304843008042" fy="46.33357687980611" r="9.36697006225586"><stop offset="0.0" stop-color="#2f3052"/><stop offset="0.5" stop-color="#2f3052" stop-opacity="0.0"/><stop offset="0.50000006" stop-color="#ffffff" stop-opacity="0.0"/><stop offset="1.0" stop-color="#ffffff" stop-opacity="0.0"/></radialGradient></defs><path fill="url(#p.5)" d="m126.71654 434.00525l0 0c0 -30.266937 30.677307 -54.80316 68.519684 -54.80316l0 0c37.842377 0 68.5197 24.536224 68.5197 54.80316l0 0c0 30.266937 -30.677322 54.80316 -68.5197 54.80316l0 0c-37.842377 0 -68.519684 -24.536224 -68.519684 -54.80316z" fill-rule="evenodd"/><path fill="#000000" fill-opacity="0.0" d="m34.765438 378.88327l209.19684 0l0 70.897644l-209.19684 0z" fill-rule="evenodd"/><path fill="#d8d9ff" d="m121.632675 408.97833q-3.03125 0 -4.671875 -2.5625q-1.640625 -2.578125 -1.640625 -7.4375q0 -4.96875 1.921875 -7.515625q1.9375 -2.546875 5.6875 -2.546875q2.078125 0 3.59375 0.828125q1.515625 0.828125 2.375 2.390625q0.859375 1.5625 0.984375 3.765625l-3.765625 0q-0.34375 -1.625 -1.140625 -2.453125q-0.78125 -0.828125 -2.046875 -0.828125q-1.78125 0 -2.671875 1.578125q-0.890625 1.5625 -0.890625 4.78125q0 3.421875 0.875 5.03125q0.875 1.59375 2.78125 1.59375q0.890625 0 1.546875 -0.46875q0.65625 -0.46875 1.03125 -1.265625q0.390625 -0.796875 0.390625 -1.828125l-3.5 0l0 -3.578125l7.03125 0l0 10.109375l-3.53125 0l0 -1.578125l-0.890625 0q-0.359375 0.9375 -1.265625 1.46875q-0.90625 0.515625 -2.203125 0.515625zm18.065582 0.046875q-3.59375 0 -5.46875 -2.53125q-1.875 -2.546875 -1.875 -7.515625q0 -4.96875 1.921875 -7.515625q1.921875 -2.546875 5.640625 -2.546875q2.09375 0 3.59375 0.875q1.515625 0.859375 2.390625 2.515625q0.875 1.65625 1.0 4.0l-3.703125 0q-0.359375 -1.84375 -1.171875 -2.765625q-0.796875 -0.921875 -2.109375 -0.921875q-1.78125 0 -2.640625 1.578125q-0.859375 1.5625 -0.859375 4.78125q0 3.203125 0.8125 4.78125q0.8125 1.578125 2.46875 1.578125q1.21875 0 2.0 -0.859375q0.78125 -0.875 1.140625 -2.578125l3.703125 0q-0.140625 2.25 -1.015625 3.859375q-0.859375 1.59375 -2.34375 2.4375q-1.46875 0.828125 -3.484375 0.828125zm16.799957 0q-3.59375 0 -5.46875 -2.53125q-1.875 -2.546875 -1.875 -7.515625q0 -4.96875 1.921875 -7.515625q1.921875 -2.546875 5.640625 -2.546875q2.09375 0 3.59375 0.875q1.515625 0.859375 2.390625 2.515625q0.87501526 1.65625 1.0000153 4.0l-3.7031403 0q-0.359375 -1.84375 -1.171875 -2.765625q-0.796875 -0.921875 -2.109375 -0.921875q-1.78125 0 -2.640625 1.578125q-0.859375 1.5625 -0.859375 4.78125q0 3.203125 0.8125 4.78125q0.8125 1.578125 2.46875 1.578125q1.21875 0 2.0 -0.859375q0.78125 -0.875 1.140625 -2.578125l3.7031403 0q-0.140625 2.25 -1.0156403 3.859375q-0.859375 1.59375 -2.34375 2.4375q-1.46875 0.828125 -3.484375 0.828125z" fill-rule="nonzero"/><path fill="#d8d9ff" d="m80.89841 437.8252q-3.59375 0 -5.46875 -2.53125q-1.875 -2.546875 -1.875 -7.515625q0 -4.96875 1.921875 -7.515625q1.921875 -2.546875 5.640625 -2.546875q2.09375 0 3.59375 0.875q1.515625 0.859375 2.390625 2.515625q0.875 1.65625 1.0 4.0l-3.703125 0q-0.359375 -1.84375 -1.171875 -2.765625q-0.796875 -0.921875 -2.109375 -0.921875q-1.78125 0 -2.640625 1.578125q-0.859375 1.5625 -0.859375 4.78125q0 3.203125 0.8125 4.78125q0.8125 1.578125 2.46875 1.578125q1.21875 0 2.0 -0.859375q0.78125 -0.875 1.140625 -2.578125l3.703125 0q-0.140625 2.25 -1.015625 3.859375q-0.859375 1.59375 -2.34375 2.4375q-1.46875 0.828125 -3.484375 0.828125zm16.471832 0q-2.171875 0 -3.75 -0.953125q-1.578125 -0.96875 -2.453125 -2.71875q-0.859375 -1.75 -0.859375 -4.15625q0 -2.421875 0.859375 -4.171875q0.875 -1.75 2.453125 -2.703125q1.578125 -0.96875 3.75 -0.96875q2.15625 0 3.734375 0.96875q1.59375 0.953125 2.453125 2.703125q0.859375 1.75 0.859375 4.171875q0 2.40625 -0.859375 4.15625q-0.859375 1.75 -2.4375 2.71875q-1.578125 0.953125 -3.75 0.953125zm0 -3.453125q1.578125 0 2.4375 -1.140625q0.875 -1.15625 0.875 -3.234375q0 -2.078125 -0.875 -3.234375q-0.859375 -1.15625 -2.4375 -1.15625q-1.5625 0 -2.4375 1.15625q-0.875 1.15625 -0.875 3.234375q0 2.078125 0.875 3.234375q0.875 1.140625 2.4375 1.140625zm9.518707 -11.765625l3.71875 0l0 1.546875l2.1875 0l-1.53125 1.125q0.046875 -1.515625 0.671875 -2.3125q0.640625 -0.8125 1.75 -0.8125q1.03125 0 1.640625 0.828125q0.609375 0.8125 0.6875 2.359375l-1.328125 -1.140625l3.359375 0l-1.546875 1.078125q0.046875 -1.515625 0.703125 -2.3125q0.65625 -0.8125 1.78125 -0.8125q1.203125 0 1.859375 1.03125q0.671875 1.015625 0.671875 2.890625l0 11.296875l-3.46875 0l0 -9.8125q0 -0.671875 -0.28125 -1.015625q-0.265625 -0.359375 -0.765625 -0.359375q-0.53125 0 -0.8125 0.359375q-0.265625 0.34375 -0.265625 1.015625l0 9.8125l-3.4375 0l0 -9.8125q0 -0.671875 -0.28125 -1.015625q-0.265625 -0.359375 -0.796875 -0.359375q-0.5 0 -0.78125 0.359375q-0.28125 0.34375 -0.28125 1.015625l0 9.8125l-3.453125 0l0 -14.765625zm17.612457 19.5625l0 -19.5625l3.890625 0l0 1.390625l0.890625 0q0.4375 -0.828125 1.3125 -1.296875q0.890625 -0.46875 1.984375 -0.46875q1.765625 0 3.078125 0.953125q1.328125 0.9375 2.046875 2.6875q0.71875 1.734375 0.71875 4.109375q0 2.40625 -0.71875 4.140625q-0.71875 1.734375 -2.046875 2.6875q-1.3125 0.953125 -3.078125 0.953125q-1.09375 0 -1.984375 -0.484375q-0.875 -0.484375 -1.3125 -1.296875l-0.890625 0l0 6.1875l-3.890625 0zm6.921875 -7.875q1.53125 0 2.390625 -1.140625q0.875 -1.140625 0.875 -3.171875q0 -2.046875 -0.875 -3.171875q-0.859375 -1.125 -2.390625 -1.125q-1.5625 0 -2.4375 1.140625q-0.859375 1.140625 -0.859375 3.171875q0 2.046875 0.859375 3.171875q0.875 1.125 2.4375 1.125zm10.909332 -11.6875l8.21875 0l0 11.3125l4.34375 0l0 3.453125l-12.5625 0l0 -3.453125l4.328125 0l0 -7.84375l-4.328125 0l0 -3.46875zm6.078125 -1.75q-1.1875 0 -1.84375 -0.59375q-0.640625 -0.609375 -0.640625 -1.703125q0 -1.109375 0.640625 -1.703125q0.65625 -0.609375 1.84375 -0.609375q1.1875 0 1.828125 0.609375q0.640625 0.59375 0.640625 1.703125q0 1.09375 -0.640625 1.703125q-0.640625 0.59375 -1.828125 0.59375zm10.299957 -3.84375l8.234375 0l0 16.90625l4.3125 0l0 3.453125l-12.546875 0l0 -3.453125l4.34375 0l0 -13.4375l-4.34375 0l0 -3.46875zm19.034332 11.4375l8.171875 0l-1.265625 1.4375q0 -2.1875 -0.765625 -3.28125q-0.75 -1.109375 -2.28125 -1.109375q-1.5625 0 -2.375 1.171875q-0.796875 1.15625 -0.796875 3.234375q0 2.265625 0.796875 3.4375q0.796875 1.15625 2.46875 1.15625q0.96875 0 1.6875 -0.4375q0.734375 -0.453125 1.265625 -1.265625l3.75 0q-0.484375 1.609375 -1.453125 2.734375q-0.953125 1.125 -2.3125 1.71875q-1.359375 0.578125 -3.03125 0.578125q-2.15625 0 -3.703125 -0.9375q-1.546875 -0.9375 -2.375 -2.703125q-0.828125 -1.78125 -0.828125 -4.28125q0 -2.375 0.84375 -4.109375q0.859375 -1.734375 2.40625 -2.6875q1.5625 -0.953125 3.65625 -0.953125q2.046875 0 3.484375 0.921875q1.4375 0.90625 2.21875 2.625q0.78125 1.71875 0.78125 4.1875q0 0.375 -0.046875 0.71875q-0.03125 0.328125 -0.046875 0.625l-10.25 0l0 -2.78125zm13.893707 -5.84375l6.359375 0l0 1.34375l0.890625 0q0.40625 -0.828125 1.203125 -1.296875q0.8125 -0.46875 1.8125 -0.46875q1.75 0 2.65625 1.328125q0.90625 1.328125 0.90625 3.921875l0 2.375l-3.96875 0l0 -1.875q0 -2.015625 -1.484375 -2.015625q-0.96875 0 -1.421875 0.875q-0.453125 0.859375 -0.453125 2.640625l0 4.484375l4.171875 0l0 3.453125l-10.390625 0l0 -3.453125l2.46875 0l0 -7.84375l-2.75 0l0 -3.46875z" fill-rule="nonzero"/><defs><linearGradient id="p.6" gradientUnits="userSpaceOnUse" gradientTransform="matrix(14.142153023049445 0.0 0.0 14.142153023049445 0.0 0.0)" spreadMethod="pad" x1="20.610745371342233" y1="11.376668299888667" x2="20.610693173563355" y2="25.518821322841784"><stop offset="0.0" stop-color="#2f3052" stop-opacity="0.0"/><stop offset="0.5" stop-color="#2f3052"/><stop offset="0.99999994" stop-color="#2f3052" stop-opacity="0.0"/><stop offset="1.0" stop-color="#ffffff" stop-opacity="0.0"/></linearGradient></defs><path fill="url(#p.6)" d="m291.48032 160.89108l137.03937 0l0 200.0l-137.03937 0z" fill-rule="evenodd"/><defs><linearGradient id="p.7" gradientUnits="userSpaceOnUse" gradientTransform="matrix(14.142153023046808 0.0 0.0 14.142153023046808 0.0 0.0)" spreadMethod="pad" x1="20.610745371346077" y1="35.91843999816324" x2="20.6106946235055" y2="50.06059302111899"><stop offset="0.0" stop-color="#2f3052" stop-opacity="0.0"/><stop offset="0.5" stop-color="#2f3052"/><stop offset="0.99999994" stop-color="#2f3052" stop-opacity="0.0"/><stop offset="1.0" stop-color="#ffffff" stop-opacity="0.0"/></linearGradient></defs><path fill="url(#p.7)" d="m291.48032 507.96457l137.03937 0l0 199.99997l-137.03937 0z" fill-rule="evenodd"/><path fill="#000000" fill-opacity="0.0" d="m476.02066 184.76624l0 151.426l131.86801 -0.19491577l-0.276062 -107.33696l-46.979797 -43.991577z" fill-rule="evenodd"/><path stroke="#e1e485" stroke-width="8.0" stroke-linejoin="round" stroke-linecap="butt" d="m476.02066 184.76624l0 151.426l131.86801 -0.19491577l-0.276062 -107.33696l-46.979797 -43.991577z" fill-rule="evenodd"/><path fill="#424374" d="m560.11725 229.159l0 -44.575012l47.763123 44.575012z" fill-rule="evenodd"/><path stroke="#e1e485" stroke-width="8.0" stroke-linejoin="round" stroke-linecap="butt" d="m560.11725 229.159l0 -44.575012l47.763123 44.575012z" fill-rule="evenodd"/><path fill="#000000" fill-opacity="0.0" d="m468.25455 232.94305l147.40158 0l0 70.897644l-147.40158 0z" fill-rule="evenodd"/><path fill="#e1e485" d="m508.3584 280.27124q-1.953125 0 -3.0 -1.0625q-1.03125 -1.0625 -1.03125 -3.015625q0 -1.9375 1.03125 -2.984375q1.046875 -1.046875 3.0 -1.046875q1.953125 0 2.984375 1.046875q1.046875 1.046875 1.046875 2.984375q0 1.953125 -1.046875 3.015625q-1.03125 1.0625 -2.984375 1.0625zm25.8219 6.046875l0 -8.265625l-1.1875 0q-0.578125 1.09375 -1.765625 1.734375q-1.171875 0.640625 -2.609375 0.640625q-2.375 0 -4.140625 -1.265625q-1.75 -1.265625 -2.71875 -3.578125q-0.953125 -2.328125 -0.953125 -5.5q0 -3.203125 0.953125 -5.515625q0.96875 -2.3125 2.71875 -3.578125q1.765625 -1.265625 4.140625 -1.265625q1.4375 0 2.609375 0.625q1.1875 0.625 1.765625 1.734375l1.1875 0l0 -1.859375l5.1875 0l0 26.09375l-5.1875 0zm-4.03125 -10.5q2.078125 0 3.21875 -1.515625q1.15625 -1.53125 1.15625 -4.25q0 -2.71875 -1.15625 -4.21875q-1.140625 -1.5 -3.21875 -1.5q-2.046875 0 -3.203125 1.515625q-1.15625 1.515625 -1.15625 4.234375q0 2.71875 1.15625 4.234375q1.15625 1.5 3.203125 1.5zm26.556274 -8.359375l0 3.875l-4.703125 0.703125q-1.015625 0.15625 -1.578125 0.71875q-0.5625 0.5625 -0.5625 1.390625q0 0.90625 0.59375 1.4375q0.59375 0.515625 1.703125 0.515625q1.1875 0 2.125 -0.5q0.953125 -0.515625 1.515625 -1.359375q0.5625 -0.859375 0.5625 -1.875l0 -4.9375q0 -1.625 -0.859375 -2.46875q-0.84375 -0.859375 -2.578125 -0.859375q-1.140625 0 -2.046875 0.390625q-0.890625 0.375 -1.4375 1.109375q-0.546875 0.71875 -0.734375 1.734375l-4.984375 0q0.21875 -2.390625 1.40625 -4.125q1.1875 -1.734375 3.1875 -2.65625q2.0 -0.921875 4.65625 -0.921875q4.09375 0 6.265625 1.90625q2.171875 1.890625 2.171875 5.515625l0 12.859375l-5.046875 0l0 -1.953125l-1.1875 0q-0.578125 1.1875 -1.671875 1.8125q-1.078125 0.625 -2.8125 0.625q-1.796875 0 -3.171875 -0.71875q-1.375 -0.71875 -2.140625 -2.015625q-0.765625 -1.296875 -0.765625 -3.0q0 -2.59375 1.609375 -4.1875q1.625 -1.609375 4.65625 -2.078125l5.828125 -0.9375zm18.72821 -12.3125l0 5.078125l8.609375 0l0 4.609375l-8.609375 0l0 8.234375q0 1.40625 0.5 2.125q0.515625 0.71875 1.515625 0.71875q1.015625 0 1.65625 -0.859375q0.640625 -0.875 1.03125 -2.828125l4.578125 0q-0.203125 4.046875 -2.109375 6.171875q-1.890625 2.125 -5.296875 2.125q-3.421875 0 -5.25 -1.921875q-1.8125 -1.921875 -1.8125 -5.5l0 -8.265625l-3.6875 0l0 -4.609375l3.6875 0l0 -5.078125l5.1875 0z" fill-rule="nonzero"/><path fill="#000000" fill-opacity="0.0" d="m476.0217 532.00183l0 151.42596l131.86801 -0.19488525l-0.276062 -107.336975l-46.97986 -43.991577z" fill-rule="evenodd"/><path stroke="#e1e485" stroke-width="8.0" stroke-linejoin="round" stroke-linecap="butt" d="m476.0217 532.00183l0 151.42596l131.86801 -0.19488525l-0.276062 -107.336975l-46.97986 -43.991577z" fill-rule="evenodd"/><path fill="#424374" d="m560.1183 576.3946l0 -44.575012l47.763123 44.575012z" fill-rule="evenodd"/><path stroke="#e1e485" stroke-width="8.0" stroke-linejoin="round" stroke-linecap="butt" d="m560.1183 576.3946l0 -44.575012l47.763123 44.575012z" fill-rule="evenodd"/><path fill="#000000" fill-opacity="0.0" d="m478.8423 578.9843l123.46454 0l0 70.897644l-123.46454 0z" fill-rule="evenodd"/><path fill="#e1e485" d="m529.3776 626.3125q-1.953125 0 -3.0 -1.0625q-1.03125 -1.0625 -1.03125 -3.015625q0 -1.9375 1.03125 -2.984375q1.046875 -1.046875 3.0 -1.046875q1.953125 0 2.984375 1.046875q1.046875 1.046875 1.046875 2.984375q0 1.953125 -1.046875 3.015625q-1.03125 1.0625 -2.984375 1.0625zm25.82196 6.046875l0 -8.265625l-1.1875 0q-0.578125 1.09375 -1.765625 1.734375q-1.171875 0.640625 -2.609375 0.640625q-2.375 0 -4.140625 -1.265625q-1.75 -1.265625 -2.71875 -3.578125q-0.953125 -2.328125 -0.953125 -5.5q0 -3.203125 0.953125 -5.515625q0.96875 -2.3125 2.71875 -3.578125q1.765625 -1.265625 4.140625 -1.265625q1.4375 0 2.609375 0.625q1.1875 0.625 1.765625 1.734375l1.1875 0l0 -1.859375l5.1875 0l0 26.09375l-5.1875 0zm-4.03125 -10.5q2.078125 0 3.21875 -1.515625q1.15625 -1.53125 1.15625 -4.25q0 -2.71875 -1.15625 -4.21875q-1.140625 -1.5 -3.21875 -1.5q-2.046875 0 -3.203125 1.515625q-1.15625 1.515625 -1.15625 4.234375q0 2.71875 1.15625 4.234375q1.15625 1.5 3.203125 1.5z" fill-rule="nonzero"/><path fill="#000000" fill-opacity="0.0" d="m555.2447 371.70584l0.18896484 124.59842" fill-rule="evenodd"/><path stroke="#e1e485" stroke-width="4.0" stroke-linejoin="round" stroke-linecap="butt" d="m555.2447 371.70584l0.15252686 100.59845" fill-rule="evenodd"/><path fill="#e1e485" stroke="#e1e485" stroke-width="4.0" stroke-linecap="butt" d="m548.79034 472.3143l6.6344604 18.142365l6.5793457 -18.162415z" fill-rule="evenodd"/><defs><radialGradient id="p.8" gradientUnits="userSpaceOnUse" gradientTransform="matrix(9.366970533479094 0.0 0.0 9.366970533479094 0.0 0.0)" spreadMethod="pad" cx="60.12736818977161" cy="46.27977752108358" fx="60.12736818977161" fy="46.27977752108358" r="9.36697006225586"><stop offset="0.0" stop-color="#2f3052"/><stop offset="0.5" stop-color="#2f3052" stop-opacity="0.0"/><stop offset="0.50000006" stop-color="#ffffff" stop-opacity="0.0"/><stop offset="1.0" stop-color="#ffffff" stop-opacity="0.0"/></radialGradient></defs><path fill="url(#p.8)" d="m494.6916 433.5013l0 0c0 -30.266937 30.677307 -54.80316 68.519714 -54.80316l0 0c37.842346 0 68.51965 24.536224 68.51965 54.80316l0 0c0 30.266937 -30.677307 54.80316 -68.51965 54.80316l0 0c-37.842407 0 -68.519714 -24.536224 -68.519714 -54.80316z" fill-rule="evenodd"/><defs><radialGradient id="p.9" gradientUnits="userSpaceOnUse" gradientTransform="matrix(9.366970533479094 0.0 0.0 9.366970533479094 0.0 0.0)" spreadMethod="pad" cx="59.27330337005144" cy="46.27977752108358" fx="59.27330337005144" fy="46.27977752108358" r="9.36697006225586"><stop offset="0.0" stop-color="#2f3052"/><stop offset="0.5" stop-color="#2f3052" stop-opacity="0.0"/><stop offset="0.50000006" stop-color="#ffffff" stop-opacity="0.0"/><stop offset="1.0" stop-color="#ffffff" stop-opacity="0.0"/></radialGradient></defs><path fill="url(#p.9)" d="m486.6916 433.5013l0 0c0 -30.266937 30.677307 -54.80316 68.519714 -54.80316l0 0c37.842346 0 68.51965 24.536224 68.51965 54.80316l0 0c0 30.266937 -30.677307 54.80316 -68.51965 54.80316l0 0c-37.842407 0 -68.519714 -24.536224 -68.519714 -54.80316z" fill-rule="evenodd"/><path fill="#000000" fill-opacity="0.0" d="m394.7405 378.37933l209.19687 0l0 70.897644l-209.19687 0z" fill-rule="evenodd"/><path fill="#e1e485" d="m481.65463 411.88065l0 -4.046875l1.765625 0l0 0.984375l5.8125 1.046875l0 3.453125l-7.578125 -1.4375zm0.890625 -3.359375q-3.71875 0 -5.640625 -2.53125q-1.921875 -2.546875 -1.921875 -7.515625q0 -4.96875 1.921875 -7.515625q1.921875 -2.546875 5.640625 -2.546875q3.71875 0 5.625 2.546875q1.921875 2.546875 1.921875 7.515625q0 4.96875 -1.921875 7.515625q-1.90625 2.53125 -5.625 2.53125zm0 -3.6875q1.765625 0 2.625 -1.578125q0.875 -1.578125 0.875 -4.78125q0 -3.21875 -0.875 -4.78125q-0.859375 -1.578125 -2.625 -1.578125q-1.78125 0 -2.65625 1.578125q-0.859375 1.5625 -0.859375 4.78125q0 3.203125 0.859375 4.78125q0.875 1.578125 2.65625 1.578125zm9.096832 3.234375l4.3125 -19.203125l6.765625 0l4.328125 19.203125l-4.078125 0l-3.53125 -16.25l-0.40625 0l-3.578125 16.25l-3.8125 0zm3.1875 -5.609375l0 -3.84375l9.015625 0l0 3.84375l-9.015625 0zm19.299927 5.609375l0 -15.359375l-5.4530945 0l0 -3.84375l14.9218445 0l0 3.84375l-5.4375 0l0 15.359375l-4.03125 0z" fill-rule="nonzero"/><path fill="#e1e485" d="m440.87347 437.32126q-3.59375 0 -5.46875 -2.53125q-1.875 -2.546875 -1.875 -7.515625q0 -4.96875 1.921875 -7.515625q1.921875 -2.546875 5.640625 -2.546875q2.09375 0 3.59375 0.875q1.515625 0.859375 2.390625 2.515625q0.875 1.65625 1.0 4.0l-3.703125 0q-0.359375 -1.84375 -1.171875 -2.765625q-0.796875 -0.921875 -2.109375 -0.921875q-1.78125 0 -2.640625 1.578125q-0.859375 1.5625 -0.859375 4.78125q0 3.203125 0.8125 4.78125q0.8125 1.578125 2.46875 1.578125q1.21875 0 2.0 -0.859375q0.78125 -0.875 1.140625 -2.578125l3.703125 0q-0.140625 2.25 -1.015625 3.859375q-0.859375 1.59375 -2.34375 2.4375q-1.46875 0.828125 -3.484375 0.828125zm16.471832 0q-2.171875 0 -3.75 -0.953125q-1.578125 -0.96875 -2.453125 -2.71875q-0.859375 -1.75 -0.859375 -4.15625q0 -2.421875 0.859375 -4.171875q0.875 -1.75 2.453125 -2.703125q1.578125 -0.96875 3.75 -0.96875q2.15625 0 3.734375 0.96875q1.59375 0.953125 2.453125 2.703125q0.859375 1.75 0.859375 4.171875q0 2.40625 -0.859375 4.15625q-0.859375 1.75 -2.4375 2.71875q-1.578125 0.953125 -3.75 0.953125zm0 -3.453125q1.578125 0 2.4375 -1.140625q0.875 -1.15625 0.875 -3.234375q0 -2.078125 -0.875 -3.234375q-0.859375 -1.15625 -2.4375 -1.15625q-1.5625 0 -2.4375 1.15625q-0.875 1.15625 -0.875 3.234375q0 2.078125 0.875 3.234375q0.875 1.140625 2.4375 1.140625zm9.518707 -11.765625l3.71875 0l0 1.546875l2.1875 0l-1.53125 1.125q0.046875 -1.515625 0.671875 -2.3125q0.640625 -0.8125 1.75 -0.8125q1.03125 0 1.640625 0.828125q0.609375 0.8125 0.6875 2.359375l-1.328125 -1.140625l3.359375 0l-1.546875 1.078125q0.046875 -1.515625 0.703125 -2.3125q0.65625 -0.8125 1.78125 -0.8125q1.203125 0 1.859375 1.03125q0.671875 1.015625 0.671875 2.890625l0 11.296875l-3.46875 0l0 -9.8125q0 -0.671875 -0.28125 -1.015625q-0.265625 -0.359375 -0.765625 -0.359375q-0.53125 0 -0.8125 0.359375q-0.265625 0.34375 -0.265625 1.015625l0 9.8125l-3.4375 0l0 -9.8125q0 -0.671875 -0.28125 -1.015625q-0.265625 -0.359375 -0.796875 -0.359375q-0.5 0 -0.78125 0.359375q-0.28125 0.34375 -0.28125 1.015625l0 9.8125l-3.453125 0l0 -14.765625zm17.612457 19.5625l0 -19.5625l3.890625 0l0 1.390625l0.890625 0q0.4375 -0.828125 1.3125 -1.296875q0.890625 -0.46875 1.984375 -0.46875q1.765625 0 3.078125 0.953125q1.328125 0.9375 2.046875 2.6875q0.71875 1.734375 0.71875 4.109375q0 2.40625 -0.71875 4.140625q-0.71875 1.734375 -2.046875 2.6875q-1.3125 0.953125 -3.078125 0.953125q-1.09375 0 -1.984375 -0.484375q-0.875 -0.484375 -1.3125 -1.296875l-0.890625 0l0 6.1875l-3.890625 0zm6.921875 -7.875q1.53125 0 2.390625 -1.140625q0.875 -1.140625 0.875 -3.171875q0 -2.046875 -0.875 -3.171875q-0.859375 -1.125 -2.390625 -1.125q-1.5625 0 -2.4375 1.140625q-0.859375 1.140625 -0.859375 3.171875q0 2.046875 0.859375 3.171875q0.875 1.125 2.4375 1.125zm10.909332 -11.6875l8.21875 0l0 11.3125l4.34375 0l0 3.453125l-12.5625 0l0 -3.453125l4.328125 0l0 -7.84375l-4.328125 0l0 -3.46875zm6.078125 -1.75q-1.1875 0 -1.84375 -0.59375q-0.640625 -0.609375 -0.640625 -1.703125q0 -1.109375 0.640625 -1.703125q0.65625 -0.609375 1.84375 -0.609375q1.1875 0 1.828125 0.609375q0.640625 0.59375 0.640625 1.703125q0 1.09375 -0.640625 1.703125q-0.640625 0.59375 -1.828125 0.59375zm10.299988 -3.84375l8.234314 0l0 16.90625l4.3125 0l0 3.453125l-12.546814 0l0 -3.453125l4.343689 0l0 -13.4375l-4.343689 0l0 -3.46875zm19.034302 11.4375l8.171875 0l-1.265625 1.4375q0 -2.1875 -0.765625 -3.28125q-0.75 -1.109375 -2.28125 -1.109375q-1.5625 0 -2.375 1.171875q-0.796875 1.15625 -0.796875 3.234375q0 2.265625 0.796875 3.4375q0.796875 1.15625 2.46875 1.15625q0.96875 0 1.6875 -0.4375q0.734375 -0.453125 1.265625 -1.265625l3.75 0q-0.484375 1.609375 -1.453125 2.734375q-0.953125 1.125 -2.3125 1.71875q-1.359375 0.578125 -3.03125 0.578125q-2.15625 0 -3.703125 -0.9375q-1.546875 -0.9375 -2.375 -2.703125q-0.828125 -1.78125 -0.828125 -4.28125q0 -2.375 0.84375 -4.109375q0.859375 -1.734375 2.40625 -2.6875q1.5625 -0.953125 3.65625 -0.953125q2.046875 0 3.484375 0.921875q1.4375 0.90625 2.21875 2.625q0.78125 1.71875 0.78125 4.1875q0 0.375 -0.046875 0.71875q-0.03125 0.328125 -0.046875 0.625l-10.25 0l0 -2.78125zm13.893677 -5.84375l6.359375 0l0 1.34375l0.890625 0q0.40625 -0.828125 1.203125 -1.296875q0.8125 -0.46875 1.8125 -0.46875q1.75 0 2.65625 1.328125q0.90625 1.328125 0.90625 3.921875l0 2.375l-3.96875 0l0 -1.875q0 -2.015625 -1.484375 -2.015625q-0.96875 0 -1.421875 0.875q-0.453125 0.859375 -0.453125 2.640625l0 4.484375l4.171875 0l0 3.453125l-10.390625 0l0 -3.453125l2.46875 0l0 -7.84375l-2.75 0l0 -3.46875z" fill-rule="nonzero"/><defs><linearGradient id="p.10" gradientUnits="userSpaceOnUse" gradientTransform="matrix(8.690879905783154 0.0 0.0 8.690879905783154 0.0 0.0)" spreadMethod="pad" x1="37.45030594289233" y1="30.24226318968396" x2="46.141185848675484" y2="30.24226318968396"><stop offset="0.0" stop-color="#d8d9ff"/><stop offset="1.0" stop-color="#e1e485"/></linearGradient></defs><path fill="url(#p.10)" d="m348.3836 244.84738c-7.9310303 -0.19897461 -14.969025 15.065704 -18.548584 16.739685c-3.5795288 1.6739502 -6.0605164 -1.9532776 -2.928711 -6.695877c3.1318054 -4.7425995 13.544434 -20.842773 21.719513 -21.75978c8.17511 -0.9169922 19.928528 16.57666 27.331085 16.257812c7.4025574 -0.31886292 13.016541 -16.258408 17.084229 -18.170914c4.0676575 -1.9125061 9.92511 1.4354248 7.321808 6.695877c-2.6033325 5.260437 -14.278442 23.711243 -22.94168 24.86676c-8.663208 1.1555481 -21.106628 -17.734573 -29.037659 -17.933563z" fill-rule="evenodd"/><defs><linearGradient id="p.11" gradientUnits="userSpaceOnUse" gradientTransform="matrix(8.690879905783154 0.0 0.0 8.690879905783154 0.0 0.0)" spreadMethod="pad" x1="37.45030594289233" y1="33.49622060520178" x2="46.141185848675484" y2="33.49622060520178"><stop offset="0.0" stop-color="#d8d9ff"/><stop offset="1.0" stop-color="#e1e485"/></linearGradient></defs><path fill="url(#p.11)" d="m348.3836 273.12714c-7.9310303 -0.19897461 -14.969025 15.065704 -18.548584 16.739685c-3.5795288 1.6739502 -6.0605164 -1.9532776 -2.928711 -6.6958923c3.1318054 -4.742584 13.544434 -20.842773 21.719513 -21.759766c8.17511 -0.9169922 19.928528 16.57666 27.331085 16.257812c7.4025574 -0.31887817 13.016541 -16.258423 17.084229 -18.170929c4.0676575 -1.9125061 9.92511 1.4354248 7.321808 6.695862c-2.6033325 5.2604675 -14.278442 23.711243 -22.94168 24.86679c-8.663208 1.1555481 -21.106628 -17.734589 -29.037659 -17.933563z" fill-rule="evenodd"/><defs><linearGradient id="p.12" gradientUnits="userSpaceOnUse" gradientTransform="matrix(8.690879905783154 0.0 0.0 8.690879905783154 0.0 0.0)" spreadMethod="pad" x1="37.12912573870843" y1="70.97990495921151" x2="45.82000564449159" y2="70.97990495921151"><stop offset="0.0" stop-color="#d8d9ff"/><stop offset="1.0" stop-color="#e1e485"/></linearGradient></defs><path fill="url(#p.12)" d="m345.5923 598.8933c-7.931061 -0.19897461 -14.969055 15.065735 -18.548584 16.739685c-3.5795593 1.6739502 -6.0605164 -1.9532471 -2.9287415 -6.695862c3.1318054 -4.7426147 13.544434 -20.842773 21.719543 -21.759766c8.17511 -0.9169922 19.928528 16.57666 27.331085 16.257751c7.402527 -0.31884766 13.016541 -16.258362 17.084198 -18.170898c4.067688 -1.9124756 9.92511 1.4354248 7.321808 6.695862c-2.603302 5.260498 -14.278442 23.711243 -22.94165 24.866821c-8.663239 1.1555176 -21.106628 -17.73462 -29.037659 -17.933594z" fill-rule="evenodd"/><defs><linearGradient id="p.13" gradientUnits="userSpaceOnUse" gradientTransform="matrix(8.690879905783154 0.0 0.0 8.690879905783154 0.0 0.0)" spreadMethod="pad" x1="37.12912573870843" y1="74.23386001533079" x2="45.82000564449159" y2="74.23386001533079"><stop offset="0.0" stop-color="#d8d9ff"/><stop offset="1.0" stop-color="#e1e485"/></linearGradient></defs><path fill="url(#p.13)" d="m345.5923 627.17303c-7.931061 -0.19897461 -14.969055 15.065735 -18.548584 16.739685c-3.5795593 1.6740112 -6.0605164 -1.9532471 -2.9287415 -6.695862c3.1318054 -4.7426147 13.544434 -20.842773 21.719543 -21.759766c8.17511 -0.9169922 19.928528 16.57666 27.331085 16.257812c7.402527 -0.31884766 13.016541 -16.258423 17.084198 -18.170898c4.067688 -1.9125366 9.92511 1.4354248 7.321808 6.695862c-2.603302 5.260437 -14.278442 23.711243 -22.94165 24.86676c-8.663239 1.1555176 -21.106628 -17.734558 -29.037659 -17.933594z" fill-rule="evenodd"/><path fill="#000000" fill-opacity="0.0" d="m78.56334 725.0644l209.19685 0l0 70.897644l-209.19685 0z" fill-rule="evenodd"/><path fill="#d8d9ff" d="m118.55569 754.7532l0 -19.203125l12.546867 0l0 3.5l-8.499992 0l0 4.421875l7.2968674 0l0 3.40625l-7.2968674 0l0 4.375l8.265617 0l0 3.5l-12.312492 0zm15.628075 0l3.859375 -7.078125l-4.15625 -7.6875l4.203125 0l2.6875 5.0l0.265625 0.953125l0.40625 0l0.234375 -0.953125l2.796875 -5.0l3.953125 0l-4.171875 7.5l3.890625 7.265625l-4.28125 0l-2.375 -4.421875l-0.234375 -0.953125l-0.40625 0l-0.25 0.953125l-2.390625 4.421875l-4.03125 0zm20.159332 -8.921875l8.171875 0l-1.265625 1.4375q0 -2.1875 -0.765625 -3.28125q-0.75 -1.109375 -2.28125 -1.109375q-1.5625 0 -2.375 1.171875q-0.796875 1.15625 -0.796875 3.234375q0 2.265625 0.796875 3.4375q0.796875 1.15625 2.46875 1.15625q0.96875 0 1.6875 -0.4375q0.734375 -0.453125 1.265625 -1.265625l3.75 0q-0.484375 1.609375 -1.453125 2.734375q-0.953125 1.125 -2.3125 1.71875q-1.359375 0.578125 -3.03125 0.578125q-2.15625 0 -3.703125 -0.9375q-1.546875 -0.9375 -2.375 -2.703125q-0.828125 -1.78125 -0.828125 -4.28125q0 -2.375 0.84375 -4.109375q0.859375 -1.734375 2.40625 -2.6875q1.5625 -0.953125 3.65625 -0.953125q2.046875 0 3.484375 0.921875q1.4375 0.90625 2.21875 2.625q0.78125 1.71875 0.78125 4.1875q0 0.375 -0.046875 0.71875q-0.03125 0.328125 -0.046875 0.625l-10.25 0l0 -2.78125zm20.831207 9.375q-2.140625 0 -3.734375 -0.9375q-1.59375 -0.953125 -2.453125 -2.6875q-0.84375 -1.75 -0.84375 -4.125q0 -2.453125 0.875 -4.203125q0.875 -1.765625 2.484375 -2.734375q1.609375 -0.984375 3.78125 -0.984375q1.96875 0 3.421875 0.8125q1.453125 0.796875 2.296875 2.265625q0.84375 1.453125 0.90625 3.453125l-3.46875 0q-0.3125 -1.46875 -1.140625 -2.265625q-0.8125 -0.8125 -2.03125 -0.8125q-1.59375 0 -2.5 1.171875q-0.890625 1.15625 -0.890625 3.296875q0 2.046875 0.875 3.171875q0.875 1.125 2.421875 1.125q1.078125 0 1.828125 -0.671875q0.765625 -0.671875 1.125 -1.890625l3.5 0q-0.140625 1.84375 -1.0 3.203125q-0.84375 1.34375 -2.25 2.078125q-1.40625 0.734375 -3.203125 0.734375zm22.643707 -15.21875l0 14.765625l-3.875 0l0 -1.34375l-0.890625 0q-0.484375 0.859375 -1.34375 1.328125q-0.859375 0.46875 -2.0 0.46875q-1.453125 0 -2.484375 -0.6875q-1.03125 -0.703125 -1.59375 -2.0q-0.546875 -1.3125 -0.546875 -3.171875l0 -9.359375l3.890625 0l0 8.421875q0 1.5625 0.625 2.375q0.625 0.796875 1.84375 0.796875q1.25 0 1.875 -0.796875q0.625 -0.8125 0.625 -2.375l0 -8.421875l3.875 0zm10.440582 -3.8125l0 3.8125l6.46875 0l0 3.46875l-6.46875 0l0 6.15625q0 1.0625 0.390625 1.609375q0.390625 0.53125 1.125 0.53125q0.765625 0 1.25 -0.640625q0.484375 -0.65625 0.765625 -2.125l3.4375 0q-0.140625 3.03125 -1.578125 4.625q-1.421875 1.59375 -3.96875 1.59375q-2.5625 0 -3.9375 -1.4375q-1.359375 -1.4375 -1.359375 -4.125l0 -6.1875l-2.765625 0l0 -3.46875l2.765625 0l0 -3.8125l3.875 0zm13.284332 9.65625l8.171875 0l-1.265625 1.4375q0 -2.1875 -0.765625 -3.28125q-0.75 -1.109375 -2.28125 -1.109375q-1.5625 0 -2.375 1.171875q-0.796875 1.15625 -0.796875 3.234375q0 2.265625 0.796875 3.4375q0.796875 1.15625 2.46875 1.15625q0.96875 0 1.6875 -0.4375q0.734375 -0.453125 1.265625 -1.265625l3.75 0q-0.484375 1.609375 -1.453125 2.734375q-0.953125 1.125 -2.3125 1.71875q-1.359375 0.578125 -3.03125 0.578125q-2.15625 0 -3.703125 -0.9375q-1.546875 -0.9375 -2.375 -2.703125q-0.828125 -1.78125 -0.828125 -4.28125q0 -2.375 0.84375 -4.109375q0.859375 -1.734375 2.40625 -2.6875q1.5625 -0.953125 3.65625 -0.953125q2.046875 0 3.484375 0.921875q1.4375 0.90625 2.21875 2.625q0.78125 1.71875 0.78125 4.1875q0 0.375 -0.046875 0.71875q-0.03125 0.328125 -0.046875 0.625l-10.25 0l0 -2.78125zm18.815582 9.3125q-1.78125 0 -3.109375 -0.953125q-1.3125 -0.953125 -2.03125 -2.6875q-0.71875 -1.734375 -0.71875 -4.125q0 -2.390625 0.71875 -4.125q0.71875 -1.75 2.03125 -2.6875q1.328125 -0.953125 3.109375 -0.953125q1.078125 0 1.953125 0.46875q0.890625 0.46875 1.328125 1.296875l0.890625 0l0 -6.984375l3.890625 0l0 20.359375l-3.890625 0l0 -1.390625l-0.890625 0q-0.4375 0.8125 -1.328125 1.296875q-0.875 0.484375 -1.953125 0.484375zm1.140625 -3.46875q1.5625 0 2.421875 -1.140625q0.875 -1.140625 0.875 -3.171875q0 -2.046875 -0.875 -3.171875q-0.859375 -1.125 -2.421875 -1.125q-1.53125 0 -2.390625 1.140625q-0.859375 1.140625 -0.859375 3.171875q0 2.046875 0.859375 3.171875q0.859375 1.125 2.390625 1.125z" fill-rule="nonzero"/><path fill="#d8d9ff" d="m142.59937 764.35004l4.0625 0l0 12.34375q0 1.71875 0.78125 2.671875q0.796875 0.953125 2.1875 0.953125q1.4375 0 2.21875 -0.96875q0.78125 -0.984375 0.78125 -2.75l0 -12.25l3.890625 0l0 12.453125q0 3.46875 -1.796875 5.34375q-1.78125 1.859375 -5.15625 1.859375q-3.390625 0 -5.1875 -1.859375q-1.78125 -1.875 -1.78125 -5.34375l0 -12.453125zm21.190582 14.625q0.34375 0.8125 1.046875 1.265625q0.703125 0.4375 1.8125 0.4375q1.171875 0 1.796875 -0.34375q0.625 -0.359375 0.625 -1.03125q0 -0.546875 -0.453125 -0.84375q-0.4375 -0.3125 -1.375 -0.421875l-2.125 -0.25q-2.5 -0.28125 -3.71875 -1.390625q-1.203125 -1.125 -1.203125 -3.140625q0 -2.28125 1.65625 -3.59375q1.671875 -1.328125 4.625 -1.328125q3.125 0 4.828125 1.359375q1.703125 1.359375 1.84375 4.0l-3.625 0q-0.265625 -0.984375 -1.03125 -1.5q-0.765625 -0.515625 -2.03125 -0.515625q-1.25 0 -1.90625 0.359375q-0.640625 0.359375 -0.640625 1.046875q0 0.53125 0.421875 0.828125q0.4375 0.296875 1.375 0.421875l2.140625 0.25q2.515625 0.28125 3.71875 1.390625q1.21875 1.09375 1.21875 3.109375q0 1.546875 -0.734375 2.65625q-0.71875 1.09375 -2.109375 1.6875q-1.375 0.578125 -3.328125 0.578125q-2.96875 0 -4.625 -1.28125q-1.65625 -1.28125 -1.84375 -3.75l3.640625 0zm13.940582 -10.1875l8.21875 0l0 11.3125l4.34375 0l0 3.453125l-12.5625 0l0 -3.453125l4.328125 0l0 -7.84375l-4.328125 0l0 -3.46875zm6.078125 -1.75q-1.1875 0 -1.84375 -0.59375q-0.640625 -0.609375 -0.640625 -1.703125q0 -1.109375 0.640625 -1.703125q0.65625 -0.609375 1.84375 -0.609375q1.1875 0 1.828125 0.609375q0.640625 0.59375 0.640625 1.703125q0 1.09375 -0.640625 1.703125q-0.640625 0.59375 -1.828125 0.59375zm9.893707 16.515625l0 -14.765625l3.890625 0l0 1.34375l0.875 0q0.484375 -0.828125 1.34375 -1.3125q0.875 -0.484375 2.0 -0.484375q1.46875 0 2.5 0.703125q1.03125 0.6875 1.578125 2.0q0.546875 1.3125 0.546875 3.15625l0 9.359375l-3.890625 0l0 -8.40625q0 -1.578125 -0.625 -2.375q-0.609375 -0.8125 -1.84375 -0.8125q-1.25 0 -1.875 0.8125q-0.609375 0.796875 -0.609375 2.375l0 8.40625l-3.890625 0zm29.628098 -0.640625q0 1.796875 -0.859375 3.125q-0.859375 1.328125 -2.4375 2.046875q-1.5625 0.71875 -3.75 0.71875q-1.84375 0 -3.296875 -0.578125q-1.4375 -0.5625 -2.328125 -1.625q-0.875 -1.0625 -1.046875 -2.5l3.8125 0q0.390625 0.671875 1.125 1.046875q0.75 0.375 1.734375 0.375q1.484375 0 2.328125 -0.71875q0.84375 -0.703125 0.84375 -1.953125l0 -1.546875l-0.921875 0q-0.40625 0.734375 -1.296875 1.15625q-0.890625 0.421875 -1.9375 0.421875q-1.75 0 -3.03125 -0.859375q-1.265625 -0.875 -1.96875 -2.46875q-0.6875 -1.59375 -0.6875 -3.78125q0 -2.25 0.6875 -3.90625q0.703125 -1.65625 1.96875 -2.546875q1.28125 -0.90625 3.03125 -0.90625q1.109375 0 1.984375 0.46875q0.875 0.46875 1.28125 1.28125l0.890625 0l0 -1.375l3.875 0l0 14.125zm-9.984375 -7.1875q0 1.859375 0.84375 2.875q0.84375 1.0 2.3125 1.0q1.484375 0 2.3125 -1.0q0.828125 -1.015625 0.828125 -2.875q0 -1.84375 -0.828125 -2.84375q-0.828125 -1.015625 -2.3125 -1.015625q-1.46875 0 -2.3125 1.015625q-0.84375 1.0 -0.84375 2.84375z" fill-rule="nonzero"/><path fill="#000000" fill-opacity="0.0" d="m104.38591 867.1627l160.31496 0l0 70.897644l-160.31496 0z" fill-rule="evenodd"/><path fill="#2f3052" d="m166.25755 912.71155q-4.0 0 -6.078125 -2.8125q-2.078125 -2.828125 -2.078125 -8.34375q0 -5.53125 2.125 -8.34375q2.140625 -2.828125 6.265625 -2.828125q2.328125 0 4.0 0.96875q1.6875 0.953125 2.65625 2.796875q0.96875 1.828125 1.109375 4.4375l-4.109375 0q-0.40625 -2.046875 -1.296875 -3.0625q-0.890625 -1.03125 -2.359375 -1.03125q-1.96875 0 -2.9375 1.75q-0.953125 1.734375 -0.953125 5.3125q0 3.5625 0.90625 5.3125q0.90625 1.75 2.75 1.75q1.359375 0 2.21875 -0.953125q0.875 -0.96875 1.265625 -2.859375l4.109375 0q-0.15625 2.5 -1.125 4.28125q-0.953125 1.765625 -2.59375 2.703125q-1.640625 0.921875 -3.875 0.921875zm11.362427 -0.5l0 -21.328125l8.125 0q2.1875 0 3.828125 0.828125q1.65625 0.828125 2.546875 2.328125q0.90625 1.484375 0.90625 3.53125q0 1.984375 -0.90625 3.4375q-0.890625 1.453125 -2.546875 2.25q-1.640625 0.796875 -3.828125 0.796875l-3.625 0l0 8.15625l-4.5 0zm4.5 -12.203125l3.65625 0q1.265625 0 2.0 -0.640625q0.734375 -0.640625 0.734375 -1.796875q0 -1.171875 -0.734375 -1.8125q-0.734375 -0.640625 -2.0 -0.640625l-3.65625 0l0 4.890625zm13.346802 -9.125l4.515625 0l0 13.703125q0 1.921875 0.875 2.984375q0.875 1.046875 2.421875 1.046875q1.609375 0 2.46875 -1.078125q0.859375 -1.078125 0.859375 -3.0625l0 -13.59375l4.328125 0l0 13.84375q0 3.828125 -1.984375 5.90625q-1.984375 2.078125 -5.75 2.078125q-3.75 0 -5.75 -2.078125q-1.984375 -2.078125 -1.984375 -5.90625l0 -13.84375z" fill-rule="nonzero"/><path fill="#000000" fill-opacity="0.0" d="m430.8573 726.94104l209.19684 0l0 70.89758l-209.19684 0z" fill-rule="evenodd"/><path fill="#e1e485" d="m470.84964 756.6298l0 -19.203125l12.546875 0l0 3.5l-8.5 0l0 4.421875l7.296875 0l0 3.40625l-7.296875 0l0 4.375l8.265625 0l0 3.5l-12.3125 0zm15.628082 0l3.859375 -7.078125l-4.15625 -7.6875l4.203125 0l2.6875 5.0l0.265625 0.953125l0.40625 0l0.234375 -0.953125l2.796875 -5.0l3.953125 0l-4.171875 7.5l3.890625 7.265625l-4.28125 0l-2.375 -4.421875l-0.234375 -0.953125l-0.40625 0l-0.25 0.953125l-2.390625 4.421875l-4.03125 0zm20.159332 -8.921875l8.1719055 0l-1.265625 1.4375q0 -2.1875 -0.765625 -3.28125q-0.75 -1.109375 -2.2812805 -1.109375q-1.5625 0 -2.375 1.171875q-0.796875 1.15625 -0.796875 3.234375q0 2.265625 0.796875 3.4375q0.796875 1.15625 2.46875 1.15625q0.96875 0 1.6875305 -0.4375q0.734375 -0.453125 1.265625 -1.265625l3.75 0q-0.484375 1.609375 -1.453125 2.734375q-0.953125 1.125 -2.3125 1.71875q-1.359375 0.578125 -3.0312805 0.578125q-2.15625 0 -3.703125 -0.9375q-1.546875 -0.9375 -2.375 -2.703125q-0.828125 -1.78125 -0.828125 -4.28125q0 -2.375 0.84375 -4.109375q0.859375 -1.734375 2.40625 -2.6875q1.5625 -0.953125 3.65625 -0.953125q2.0469055 0 3.4844055 0.921875q1.4375 0.90625 2.21875 2.625q0.78125 1.71875 0.78125 4.1875q0 0.375 -0.046875 0.71875q-0.03125 0.328125 -0.046875 0.625l-10.2500305 0l0 -2.78125zm20.831207 9.375q-2.140625 0 -3.734375 -0.9375q-1.59375 -0.953125 -2.453125 -2.6875q-0.84375 -1.75 -0.84375 -4.125q0 -2.453125 0.875 -4.203125q0.875 -1.765625 2.484375 -2.734375q1.609375 -0.984375 3.78125 -0.984375q1.96875 0 3.421875 0.8125q1.453125 0.796875 2.296875 2.265625q0.84375 1.453125 0.90625 3.453125l-3.46875 0q-0.3125 -1.46875 -1.140625 -2.265625q-0.8125 -0.8125 -2.03125 -0.8125q-1.59375 0 -2.5 1.171875q-0.890625 1.15625 -0.890625 3.296875q0 2.046875 0.875 3.171875q0.875 1.125 2.421875 1.125q1.078125 0 1.828125 -0.671875q0.765625 -0.671875 1.125 -1.890625l3.5 0q-0.140625 1.84375 -1.0 3.203125q-0.84375 1.34375 -2.25 2.078125q-1.40625 0.734375 -3.203125 0.734375zm22.643738 -15.21875l0 14.765625l-3.875 0l0 -1.34375l-0.890625 0q-0.484375 0.859375 -1.34375 1.328125q-0.859375 0.46875 -2.0 0.46875q-1.453125 0 -2.484375 -0.6875q-1.03125 -0.703125 -1.59375 -2.0q-0.546875 -1.3125 -0.546875 -3.171875l0 -9.359375l3.890625 0l0 8.421875q0 1.5625 0.625 2.375q0.625 0.796875 1.84375 0.796875q1.25 0 1.875 -0.796875q0.625 -0.8125 0.625 -2.375l0 -8.421875l3.875 0zm10.440552 -3.8125l0 3.8125l6.46875 0l0 3.46875l-6.46875 0l0 6.15625q0 1.0625 0.390625 1.609375q0.390625 0.53125 1.125 0.53125q0.765625 0 1.25 -0.640625q0.484375 -0.65625 0.765625 -2.125l3.4375 0q-0.140625 3.03125 -1.578125 4.625q-1.421875 1.59375 -3.96875 1.59375q-2.5625 0 -3.9375 -1.4375q-1.359375 -1.4375 -1.359375 -4.125l0 -6.1875l-2.765625 0l0 -3.46875l2.765625 0l0 -3.8125l3.875 0zm13.284302 9.65625l8.171875 0l-1.265625 1.4375q0 -2.1875 -0.765625 -3.28125q-0.75 -1.109375 -2.28125 -1.109375q-1.5625 0 -2.375 1.171875q-0.796875 1.15625 -0.796875 3.234375q0 2.265625 0.796875 3.4375q0.796875 1.15625 2.46875 1.15625q0.96875 0 1.6875 -0.4375q0.734375 -0.453125 1.265625 -1.265625l3.75 0q-0.484375 1.609375 -1.453125 2.734375q-0.953125 1.125 -2.3125 1.71875q-1.359375 0.578125 -3.03125 0.578125q-2.15625 0 -3.703125 -0.9375q-1.546875 -0.9375 -2.375 -2.703125q-0.828125 -1.78125 -0.828125 -4.28125q0 -2.375 0.84375 -4.109375q0.859375 -1.734375 2.40625 -2.6875q1.5625 -0.953125 3.65625 -0.953125q2.046875 0 3.484375 0.921875q1.4375 0.90625 2.21875 2.625q0.78125 1.71875 0.78125 4.1875q0 0.375 -0.046875 0.71875q-0.03125 0.328125 -0.046875 0.625l-10.25 0l0 -2.78125zm18.815613 9.3125q-1.78125 0 -3.109375 -0.953125q-1.3125 -0.953125 -2.03125 -2.6875q-0.71875 -1.734375 -0.71875 -4.125q0 -2.390625 0.71875 -4.125q0.71875 -1.75 2.03125 -2.6875q1.328125 -0.953125 3.109375 -0.953125q1.078125 0 1.953125 0.46875q0.890625 0.46875 1.328125 1.296875l0.890625 0l0 -6.984375l3.890625 0l0 20.359375l-3.890625 0l0 -1.390625l-0.890625 0q-0.4375 0.8125 -1.328125 1.296875q-0.875 0.484375 -1.953125 0.484375zm1.140625 -3.46875q1.5625 0 2.421875 -1.140625q0.875 -1.140625 0.875 -3.171875q0 -2.046875 -0.875 -3.171875q-0.859375 -1.125 -2.421875 -1.125q-1.53125 0 -2.390625 1.140625q-0.859375 1.140625 -0.859375 3.171875q0 2.046875 0.859375 3.171875q0.859375 1.125 2.390625 1.125z" fill-rule="nonzero"/><path fill="#e1e485" d="m494.89334 766.2267l4.0625 0l0 12.34375q0 1.71875 0.78125 2.671875q0.796875 0.953125 2.1875 0.953125q1.4375 0 2.21875 -0.96875q0.78125 -0.984375 0.78125 -2.75l0 -12.25l3.890625 0l0 12.453125q0 3.46875 -1.796875 5.34375q-1.78125 1.859375 -5.15625 1.859375q-3.390625 0 -5.1875 -1.859375q-1.78125 -1.875 -1.78125 -5.34375l0 -12.453125zm21.190582 14.625q0.34375 0.8125 1.046875 1.265625q0.703125 0.4375 1.8125 0.4375q1.171875 0 1.796875 -0.34375q0.625 -0.359375 0.625 -1.03125q0 -0.546875 -0.453125 -0.84375q-0.4375 -0.3125 -1.375 -0.421875l-2.125 -0.25q-2.5 -0.28125 -3.71875 -1.390625q-1.203125 -1.125 -1.203125 -3.140625q0 -2.28125 1.65625 -3.59375q1.671875 -1.328125 4.625 -1.328125q3.125 0 4.828125 1.359375q1.703125 1.359375 1.84375 4.0l-3.625 0q-0.265625 -0.984375 -1.03125 -1.5q-0.765625 -0.515625 -2.03125 -0.515625q-1.25 0 -1.90625 0.359375q-0.640625 0.359375 -0.640625 1.046875q0 0.53125 0.421875 0.828125q0.4375 0.296875 1.375 0.421875l2.140625 0.25q2.515625 0.28125 3.71875 1.390625q1.21875 1.09375 1.21875 3.109375q0 1.546875 -0.734375 2.65625q-0.71875 1.09375 -2.109375 1.6875q-1.375 0.578125 -3.328125 0.578125q-2.96875 0 -4.625 -1.28125q-1.65625 -1.28125 -1.84375 -3.75l3.640625 0zm13.940552 -10.1875l8.21875 0l0 11.3125l4.34375 0l0 3.453125l-12.5625 0l0 -3.453125l4.328125 0l0 -7.84375l-4.328125 0l0 -3.46875zm6.078125 -1.75q-1.1875 0 -1.84375 -0.59375q-0.640625 -0.609375 -0.640625 -1.703125q0 -1.109375 0.640625 -1.703125q0.65625 -0.609375 1.84375 -0.609375q1.1875 0 1.828125 0.609375q0.640625 0.59375 0.640625 1.703125q0 1.09375 -0.640625 1.703125q-0.640625 0.59375 -1.828125 0.59375zm9.893738 16.515625l0 -14.765625l3.890625 0l0 1.34375l0.875 0q0.484375 -0.828125 1.34375 -1.3125q0.875 -0.484375 2.0 -0.484375q1.46875 0 2.5 0.703125q1.03125 0.6875 1.578125 2.0q0.546875 1.3125 0.546875 3.15625l0 9.359375l-3.890625 0l0 -8.40625q0 -1.578125 -0.625 -2.375q-0.609375 -0.8125 -1.84375 -0.8125q-1.25 0 -1.875 0.8125q-0.609375 0.796875 -0.609375 2.375l0 8.40625l-3.890625 0zm29.628052 -0.640625q0 1.796875 -0.859375 3.125q-0.859375 1.328125 -2.4375 2.046875q-1.5625 0.71875 -3.75 0.71875q-1.84375 0 -3.296875 -0.578125q-1.4375 -0.5625 -2.328125 -1.625q-0.875 -1.0625 -1.046875 -2.5l3.8125 0q0.390625 0.671875 1.125 1.046875q0.75 0.375 1.734375 0.375q1.484375 0 2.328125 -0.71875q0.84375 -0.703125 0.84375 -1.953125l0 -1.546875l-0.921875 0q-0.40625 0.734375 -1.296875 1.15625q-0.890625 0.421875 -1.9375 0.421875q-1.75 0 -3.03125 -0.859375q-1.265625 -0.875 -1.96875 -2.46875q-0.6875 -1.59375 -0.6875 -3.78125q0 -2.25 0.6875 -3.90625q0.703125 -1.65625 1.96875 -2.546875q1.28125 -0.90625 3.03125 -0.90625q1.109375 0 1.984375 0.46875q0.875 0.46875 1.28125 1.28125l0.890625 0l0 -1.375l3.875 0l0 14.125zm-9.984375 -7.1875q0 1.859375 0.84375 2.875q0.84375 1.0 2.3125 1.0q1.484375 0 2.3125 -1.0q0.828125 -1.015625 0.828125 -2.875q0 -1.84375 -0.828125 -2.84375q-0.828125 -1.015625 -2.3125 -1.015625q-1.46875 0 -2.3125 1.015625q-0.84375 1.0 -0.84375 2.84375z" fill-rule="nonzero"/><defs><linearGradient id="p.14" gradientUnits="userSpaceOnUse" gradientTransform="matrix(14.142153023046808 0.0 0.0 14.142153023046808 0.0 0.0)" spreadMethod="pad" x1="20.610745371346077" y1="56.75310224139623" x2="20.6106946235055" y2="70.89525526435197"><stop offset="0.0" stop-color="#2f3052" stop-opacity="0.0"/><stop offset="0.5" stop-color="#2f3052"/><stop offset="0.99999994" stop-color="#2f3052" stop-opacity="0.0"/><stop offset="1.0" stop-color="#ffffff" stop-opacity="0.0"/></linearGradient></defs><path fill="url(#p.14)" d="m291.48032 802.6116l137.03937 0l0 200.0l-137.03937 0z" fill-rule="evenodd"/><defs><linearGradient id="p.15" gradientUnits="userSpaceOnUse" gradientTransform="matrix(8.690879905783154 0.0 0.0 8.690879905783154 0.0 0.0)" spreadMethod="pad" x1="37.12912573870843" y1="104.88290946635371" x2="45.82000564449159" y2="104.88290946635371"><stop offset="0.0" stop-color="#d8d9ff"/><stop offset="1.0" stop-color="#e1e485"/></linearGradient></defs><path fill="url(#p.15)" d="m345.5923 893.5403c-7.931061 -0.19897461 -14.969055 15.065735 -18.548584 16.739685c-3.5795593 1.6739502 -6.0605164 -1.9532471 -2.9287415 -6.695862c3.1318054 -4.7426147 13.544434 -20.842773 21.719543 -21.759766c8.17511 -0.9169922 19.928528 16.57666 27.331085 16.257812c7.402527 -0.31884766 13.016541 -16.258423 17.084198 -18.17096c4.067688 -1.9124756 9.92511 1.4354858 7.321808 6.695923c-2.603302 5.260437 -14.278442 23.711243 -22.94165 24.86676c-8.663239 1.1555176 -21.106628 -17.73462 -29.037659 -17.933594z" fill-rule="evenodd"/><defs><linearGradient id="p.16" gradientUnits="userSpaceOnUse" gradientTransform="matrix(8.690879905783154 0.0 0.0 8.690879905783154 0.0 0.0)" spreadMethod="pad" x1="37.12912573870843" y1="108.13686924127008" x2="45.82000564449159" y2="108.13686924127008"><stop offset="0.0" stop-color="#d8d9ff"/><stop offset="1.0" stop-color="#e1e485"/></linearGradient></defs><path fill="url(#p.16)" d="m345.5923 921.82007c-7.931061 -0.19897461 -14.969055 15.065674 -18.548584 16.739624c-3.5795593 1.6740112 -6.0605164 -1.9532471 -2.9287415 -6.695862c3.1318054 -4.7426147 13.544434 -20.842773 21.719543 -21.759766c8.17511 -0.9169922 19.928528 16.57666 27.331085 16.257812c7.402527 -0.31884766 13.016541 -16.258423 17.084198 -18.170898c4.067688 -1.9125366 9.92511 1.4354248 7.321808 6.695862c-2.603302 5.260437 -14.278442 23.711243 -22.94165 24.86676c-8.663239 1.1555176 -21.106628 -17.734558 -29.037659 -17.933533z" fill-rule="evenodd"/></g></svg>